<svg width="119" height="131" viewBox="0 0 119 131" fill="none" xmlns="http://www.w3.org/2000/svg">
<path d="M51.4581 52.1232C44.6051 55.2585 37.3343 57.4554 29.9627 58.8328C28.5142 59.1035 27.6064 58.9551 27.2942 57.4722C26.9828 55.9933 26.673 54.522 26.3685 53.0757C26.0081 51.3638 32.0779 48.9137 33.5047 48.5215C35.8635 47.8732 38.2229 47.0853 40.5378 46.3502C42.9091 45.5972 45.2307 43.9014 47.7836 43.8633C49.4894 43.8379 51.2426 42.7617 52.9205 42.4085C54.2505 42.1284 55.2624 41.1018 55.7285 42.6198C55.94 43.3085 56.4405 43.9684 56.6802 45.1071C57.2421 47.7757 59.5336 49.9576 59.8675 52.7324C60.4223 57.3419 61.6441 61.7452 62.9669 66.1714C63.7931 68.9358 66.6372 75.3885 64.057 77.7565C59.9607 81.5157 55.3959 85.6429 49.4901 85.3776C43.3513 85.1019 33.8998 83.1114 33.451 75.4003C33.2944 72.7103 35.0583 71.3451 37.2569 70.2315C39.5496 69.0702 39.4828 70.191 40.5691 71.9978C41.2639 73.1534 40.8208 74.4404 41.514 75.5131C41.9016 76.1129 42.3379 76.9305 42.9586 77.3366C43.5324 77.712 45.619 77.852 46.2634 77.742C47.3724 77.5528 48.5114 77.6047 49.6545 77.364C50.619 77.1609 51.353 76.1665 52.363 75.9538C53.4379 75.7275 54.8876 75.1237 55.2639 73.9992C55.6001 72.9944 56.8874 72.1221 57.3744 71.1191C58.0157 69.7988 57.2784 68.0797 56.6281 66.9555C55.5164 65.0338 53.7834 63.5658 52.772 61.5894C51.9389 59.9617 51.911 58.2514 51.5368 56.4742C51.3299 55.4915 51.2457 54.5683 51.2559 53.5936C51.2763 51.663 50.6965 53.0625 49.5854 54.3653" stroke="black" stroke-width="1.5" stroke-linecap="round" stroke-linejoin="round"/>
<path d="M85.3107 33.2766C80.6311 35.3436 76.3936 36.7808 73.1763 40.8435C71.804 42.5765 70.0575 44.5514 70.1453 46.8871C70.2365 49.3139 71.2432 51.3191 73.1487 52.8499C75.4377 54.6888 78.8699 56.5529 81.63 54.418C82.7636 53.5411 83.3674 52.2273 84.4495 51.2949C85.2572 50.599 86.4702 49.947 87.4022 49.4366C90.1715 47.9202 92.4338 46.6108 95.5956 48.0582C102.591 51.2601 101.99 62.7808 95.9693 66.7533C93.0495 68.6797 88.7455 70.5082 85.2057 69.7315C84.0417 69.4761 80.0695 69.4191 79.6997 68.352" stroke="black" stroke-width="1.5" stroke-linecap="round" stroke-linejoin="round"/>
<path d="M85.529 33.8042C84.73 32.5323 84.0834 31.1949 83.362 29.9054C82.9619 29.1902 82.137 29.906 81.4236 30.1313C78.8073 30.9572 76.8126 32.523 74.5846 34.0058C72.738 35.2347 70.7043 36.4747 69.0313 37.9087C68.4434 38.4126 68.0128 39.1423 67.5402 39.7413C67.2467 40.1133 66.5801 40.7029 66.4459 41.1399C66.2602 41.745 66.2634 42.4731 66.075 43.1152C65.4061 45.3962 64.4867 47.3226 65.0126 49.8202C65.3408 51.3793 66.6665 52.2061 67.2924 53.6019C67.8003 54.7346 68.0498 55.729 69.0666 56.5133C69.6164 56.9375 70.3386 57.0241 70.8551 57.534C71.3196 57.9924 71.6694 57.9175 72.1425 58.1554C73.0951 58.6346 74.1339 58.6282 74.9256 59.4199C75.4065 59.9009 76.4045 59.6931 76.9446 59.3967C77.3495 59.1744 77.8328 58.8563 78.2715 58.7201C78.6025 58.6173 78.8864 58.995 79.1411 59.1585C79.7595 59.5556 80.5857 59.322 81.215 59.0583C82.3201 58.595 83.3693 57.7535 84.4065 57.1527C84.9091 56.8615 85.6957 56.0094 86.2051 55.9702C87.161 55.8967 87.991 54.9036 88.6954 54.3805C89.1976 54.0075 90.1153 53.4964 90.4812 53.0699C90.7507 52.7558 92.4575 53.0681 92.58 53.5159C92.7712 54.2144 93.4377 54.7528 93.606 55.5522C93.8051 56.4978 94.0752 57.5461 94.0069 58.5145C93.9551 59.2499 93.4029 59.9155 93.2033 60.6182C92.9994 61.3365 92.9265 61.9424 92.3725 62.4801C91.5084 63.3186 90.4337 63.2704 89.3 63.6457C86.8227 64.4659 84.3136 64.8023 81.7842 64.373C80.9193 64.2262 80.55 63.9162 79.653 64.2236C79.158 64.3932 78.3441 64.6357 77.8389 64.5448C77.2779 64.4438 78.6907 65.291 79.1361 65.6408C79.724 66.1026 80.1265 66.4703 80.1978 67.2164C80.2906 68.1872 79.6167 70.0325 80.525 67.5774" stroke="black" stroke-width="1.5" stroke-linecap="round" stroke-linejoin="round"/>
<path d="M46.5222 13.7027C62.5906 16.5644 78.2173 18.0622 93.6859 22.9299C95.1992 23.4061 98.7242 23.4809 99.7778 24.8076C99.9614 25.0388 99.0928 24.6574 98.8949 24.8765C97.585 26.3271 99.6276 29.5385 100.356 30.8896C103.396 36.5277 104.711 43.3915 105.714 49.7578C107.202 59.2049 107.106 71.0966 111.947 79.6397C112.11 79.9267 109.717 79.758 109.186 79.8698C105.711 80.6016 104.634 84.8354 103.089 87.7866C98.7873 96.0029 93.852 103.736 90.296 112.271C90.0321 112.904 89.9464 116.394 89.4269 116.668C88.0827 117.378 86.5746 116.182 85.2405 116.242C75.5823 116.678 65.5774 115.882 56.494 112.209C47.4665 108.559 37.1702 109.167 28.3511 104.927C25.7011 103.653 18.9989 98.1871 20.6546 100.617C20.9533 101.055 21.8316 102.316 21.7224 101.797C21.001 98.3707 21.3884 95.3732 19.9445 91.8706C17.7303 86.4992 16.6763 81.1073 14.8827 75.6128C11.6601 65.7406 9.90072 55.6089 5.55259 46.0318C4.70044 44.1549 5.90886 43.6897 7.42743 41.8719C11.7958 36.6431 14.9891 29.9914 20.4287 25.7906C27.0138 20.7053 34.6196 14.1726 42.7654 11.704C44.0023 11.3292 47 9.94766 48.0392 10.0669C49.9946 10.2912 47.5947 11.7624 47.4346 12.106C46.9772 13.0879 55.6751 15.8629 48.8642 15.7458C46.9823 15.7134 46.2429 16.1154 45.2441 14.6742C43.9456 12.8004 44.3778 13.7743 45.2696 12.7569C45.5325 12.4572 46.8609 12.7094 46.4632 12.6812C45.3948 12.6055 44.2605 15.3916 43.85 16.0212" stroke="black" stroke-width="1.5" stroke-linecap="round" stroke-linejoin="round"/>
</svg>
