<svg width="24" height="18" viewBox="0 0 24 18" fill="none" xmlns="http://www.w3.org/2000/svg">
<path d="M5.92246 2.11328C5.35886 2.91268 4.62486 3.59845 4.23328 4.49348C4.09265 4.81494 4.04594 5.16379 3.8963 5.47457C3.74406 5.79076 3.56136 6.16121 3.44841 6.48978C3.22527 7.13893 2.70187 7.64586 2.34362 8.20882C2.13289 8.53997 1.78462 9.05553 1.46065 9.29228C1.29567 9.41284 0.853349 9.99197 1.04902 10.0409C1.50464 10.1548 1.89119 10.3971 2.2967 10.6359C2.85435 10.9643 3.40976 11.2121 3.90697 11.632C4.53559 12.1628 5.28154 12.5409 5.89687 13.0908C6.3793 13.5219 6.79835 14.0214 7.28745 14.4494C7.70974 14.8189 8.21839 15.0913 8.64818 15.4539C8.67986 15.4807 8.98581 15.7377 8.9489 15.793C8.91082 15.8502 8.45468 15.2643 8.41783 15.2044" stroke="white" stroke-linecap="round" stroke-linejoin="round"/>
<path d="M15.6739 1.46045C14.7752 3.59596 13.7927 5.69381 12.9012 7.83325C12.3483 9.16031 11.8834 10.5018 11.4125 11.8621C11.0424 12.9314 10.5838 13.9749 10.1841 15.0314C10.0452 15.3984 9.94976 15.773 9.8684 16.1554C9.73523 16.7813 9.74879 16.0525 9.76176 15.7801" stroke="white" stroke-linecap="round" stroke-linejoin="round"/>
<path d="M17.6696 1C18.4521 1.89138 19.2013 2.7882 20.0327 3.63187C20.7122 4.32136 21.0128 5.31768 21.3934 6.1827C21.7884 7.08034 22.1838 7.82368 22.767 8.60129C22.836 8.69329 23.04 8.92108 23.04 9.04065C23.04 9.09812 22.7647 9.09654 22.72 9.1025C22.568 9.12277 22.3868 9.2516 22.2594 9.33071C19.9477 10.7655 18.3848 12.8394 17.0255 15.1362C16.7932 15.5287 16.6212 16.0966 16.2854 16.3988C16.0686 16.5939 15.8918 16.8505 15.6349 16.9789C15.3933 17.0997 15.5646 16.6722 15.5965 16.4329" stroke="white" stroke-linecap="round" stroke-linejoin="round"/>
</svg>
