<svg width="149" height="230" viewBox="0 0 149 230" fill="none" xmlns="http://www.w3.org/2000/svg">
<path d="M82.6647 138.45L90.4663 122.485L104.274 132.645M82.6647 138.45L104.274 132.645M82.6647 138.45L80.8682 150.061M104.274 132.645L108.145 141.998M108.145 141.998L120.723 205.859L135.56 201.666L116.33 115.551L64.603 129.419L56.8623 227.146L75.2465 219.083L80.8682 150.061M108.145 141.998L80.8682 150.061" stroke="black" stroke-width="3"/>
<path d="M138.463 2.02015C134.915 1.05256 5.58024 35.2407 3 38.1435C5.47273 71.6866 11.0632 139.095 13.6435 140.385C16.8688 141.998 144.268 108.778 146.203 105.23C148.138 101.682 142.01 2.98774 138.463 2.02015Z" stroke="black" stroke-width="4"/>
<path d="M134.395 5.90959C131.064 4.99889 9.61625 37.1768 7.19336 39.9089C9.5153 71.4797 14.7649 134.925 17.1878 136.139C20.2164 137.657 139.847 106.39 141.664 103.051C143.481 99.7113 137.727 6.82029 134.395 5.90959Z" stroke="black" stroke-width="3"/>
<path d="M41.7031 72.0089L48.4763 49.7544L62.6676 67.171L41.7031 72.0089Z" stroke="black" stroke-width="1.5" stroke-linejoin="round"/>
<circle cx="60.0874" cy="68.4614" r="6.99071" stroke="black" stroke-width="1.5"/>
<path d="M102.206 43.1751C102.013 43.2269 101.814 43.2428 101.61 43.223C101.412 43.1933 101.245 43.1428 101.11 43.0713C100.975 42.9998 100.899 42.9167 100.882 42.8219C100.856 42.6962 100.873 42.5882 100.932 42.4979C100.99 42.4077 101.108 42.3514 101.284 42.329C101.561 42.3127 101.833 42.2606 102.099 42.1727C102.363 42.077 102.6 41.9556 102.809 41.8085C103.026 41.6593 103.188 41.4917 103.296 41.3055C103.45 41.0487 103.513 40.8497 103.483 40.7085C103.452 40.5596 103.304 40.4418 103.041 40.355C102.922 40.3124 102.781 40.2798 102.617 40.2574C102.454 40.2349 102.295 40.2279 102.139 40.2363C101.99 40.2349 101.862 40.2526 101.756 40.2893C101.689 40.3157 101.6 40.3269 101.492 40.3229C101.381 40.3111 101.268 40.2917 101.153 40.2645C101.092 40.2229 101.026 40.1454 100.954 40.0321C100.882 39.9188 100.835 39.8488 100.811 39.822C100.793 39.7854 100.807 39.7318 100.855 39.6612C100.902 39.5905 101.004 39.4762 101.16 39.3184C101.315 39.1528 101.544 38.9258 101.848 38.6373C102.125 38.3726 102.336 38.1711 102.481 38.0329C102.632 37.8848 102.746 37.7713 102.824 37.6923C102.908 37.6036 102.977 37.519 103.03 37.4385C103.093 37.3055 103.114 37.213 103.092 37.161C103.07 37.1089 102.953 37.0905 102.742 37.1057C102.544 37.142 102.39 37.1835 102.278 37.23C102.164 37.2688 102.111 37.3036 102.12 37.3345C102.12 37.3345 102.116 37.3355 102.108 37.3376C102.108 37.3376 102.097 37.3407 102.073 37.3469C102.031 37.3418 101.947 37.3685 101.821 37.4269C101.696 37.4852 101.576 37.5464 101.461 37.6105C101.353 37.6724 101.298 37.7161 101.297 37.7413C101.293 37.7588 101.247 37.8004 101.156 37.8659C101.072 37.9217 100.983 37.9746 100.888 38.0247C100.802 38.0727 100.747 38.0999 100.724 38.1061C100.681 38.101 100.62 38.0593 100.541 37.9811C100.47 37.9008 100.406 37.8145 100.348 37.7224C100.288 37.6224 100.26 37.5511 100.266 37.5083C100.273 37.4733 100.314 37.4124 100.391 37.3258C100.472 37.2293 100.566 37.1297 100.671 37.027C100.774 36.9166 100.862 36.8307 100.937 36.7693C101.037 36.7094 101.188 36.6399 101.391 36.5608C101.599 36.472 101.805 36.3918 102.01 36.3205C102.22 36.2393 102.372 36.1902 102.467 36.1731C102.833 36.1165 103.144 36.1326 103.399 36.2214C103.653 36.3025 103.852 36.4894 103.997 36.7819C104.049 36.8839 104.079 36.9959 104.087 37.118C104.095 37.2402 104.075 37.3695 104.029 37.5061C103.983 37.6428 103.901 37.8013 103.784 37.9818C103.624 38.1572 103.501 38.3019 103.416 38.4159C103.336 38.5201 103.219 38.6385 103.064 38.7711C103.02 38.8243 102.946 38.8895 102.843 38.967C102.739 39.0444 102.643 39.1159 102.552 39.1814C102.462 39.247 102.419 39.2875 102.424 39.3029C102.424 39.3029 102.46 39.3014 102.534 39.2982C102.613 39.2852 102.699 39.2789 102.79 39.2793C102.887 39.2699 102.96 39.2794 103.009 39.3077C103.253 39.3249 103.494 39.4052 103.732 39.5487C103.975 39.6824 104.149 39.793 104.255 39.8805C104.428 40.0911 104.51 40.3507 104.501 40.6594C104.499 40.9583 104.427 41.2632 104.287 41.5741C104.152 41.8752 103.971 42.1431 103.744 42.3779C103.561 42.5595 103.318 42.7198 103.016 42.8588C102.719 42.9879 102.449 43.0934 102.206 43.1751Z" fill="black"/>
<path d="M101.392 45.688C101.345 45.7005 101.286 45.7121 101.215 45.723C101.145 45.7417 101.064 45.7469 100.97 45.7388C100.854 45.7698 100.754 45.7676 100.67 45.7322C100.596 45.7024 100.536 45.6646 100.491 45.6188C100.375 45.5256 100.356 45.4396 100.434 45.3607C100.52 45.2797 100.702 45.1854 100.98 45.0779C101.103 45.0118 101.29 44.9368 101.541 44.853C101.797 44.7594 102.079 44.6674 102.386 44.5768C102.691 44.4786 102.977 44.3893 103.246 44.3091C103.522 44.2269 103.737 44.165 103.892 44.1236C104.093 44.0698 104.248 44.0448 104.356 44.0488C104.463 44.0451 104.57 44.0744 104.678 44.1366C104.825 44.2214 104.885 44.3378 104.859 44.4858C104.83 44.626 104.722 44.7044 104.536 44.7211C104.498 44.7315 104.425 44.755 104.319 44.7917C104.213 44.8284 104.096 44.8683 103.966 44.9112C103.845 44.952 103.739 44.9888 103.648 45.0213C103.602 45.0338 103.483 45.0697 103.292 45.1292C103.101 45.1887 102.879 45.2565 102.626 45.3325C102.373 45.4086 102.13 45.4777 101.898 45.5398C101.669 45.6096 101.5 45.659 101.392 45.688Z" fill="black"/>
<path d="M102.524 50.4443C102.489 50.4372 102.424 50.4092 102.328 50.3603C102.24 50.3094 102.149 50.2508 102.057 50.1844C101.963 50.1103 101.898 50.0532 101.862 50.013C101.828 49.9806 101.81 49.9111 101.806 49.8044C101.81 49.6957 101.827 49.6372 101.858 49.6289C101.886 49.6381 101.909 49.6028 101.929 49.5229C101.949 49.443 101.968 49.3592 101.986 49.2716C102.002 49.1762 102.008 49.1208 102.004 49.1054C102.003 49.0724 102.016 49.044 102.043 49.0203C102.076 48.9868 102.104 48.9543 102.129 48.9228C102.151 48.8506 102.185 48.7754 102.23 48.697C102.281 48.6088 102.319 48.5363 102.346 48.4796C102.387 48.3858 102.468 48.2399 102.589 48.0418C102.709 47.8438 102.825 47.6429 102.936 47.4392C103.051 47.218 103.153 47.0252 103.241 46.8607C103.327 46.6885 103.367 46.5743 103.36 46.5181C103.36 46.5181 103.369 46.5034 103.386 46.474C103.409 46.4348 103.436 46.3985 103.468 46.3649C103.501 46.3314 103.541 46.2793 103.588 46.2086C103.643 46.1359 103.688 46.0702 103.722 46.0114C103.72 45.9454 103.737 45.8665 103.77 45.7748C103.809 45.6732 103.857 45.5734 103.913 45.4755C103.95 45.3662 103.981 45.2502 104.007 45.1275C104.03 44.9971 104.042 44.9028 104.043 44.8445C104.043 44.7533 104.022 44.7052 103.979 44.7001C103.934 44.6872 103.819 44.6766 103.635 44.668C103.433 44.6559 103.256 44.6909 103.104 44.773C102.952 44.8551 102.767 45.029 102.548 45.2947C102.446 45.3468 102.354 45.4047 102.272 45.4682C102.197 45.5296 102.128 45.5647 102.064 45.5735C102.029 45.5664 101.985 45.5409 101.932 45.4972C101.878 45.4534 101.822 45.4146 101.764 45.3806L101.514 44.9133L101.821 44.62C102.084 44.3341 102.345 44.1027 102.604 43.9256C102.868 43.7388 103.118 43.6511 103.353 43.6627C103.438 43.6399 103.519 43.6308 103.594 43.6354C103.668 43.6322 103.705 43.6306 103.705 43.6306C103.765 43.6063 103.862 43.6134 103.996 43.6519C104.139 43.6883 104.282 43.7451 104.427 43.8222C104.58 43.8973 104.694 43.9827 104.769 44.0784C104.942 44.2308 105.049 44.4424 105.088 44.7134C105.128 44.9844 105.089 45.2888 104.973 45.6265C104.946 45.6832 104.887 45.8026 104.795 45.9846C104.703 46.1666 104.597 46.3731 104.477 46.6041C104.362 46.8253 104.254 47.0241 104.152 47.2005C104.058 47.3748 103.997 47.4864 103.968 47.5354C103.921 47.5731 103.848 47.6713 103.749 47.8302C103.659 47.9869 103.561 48.1623 103.455 48.3562C103.356 48.5403 103.271 48.7037 103.202 48.8465C103.138 48.9796 103.114 49.044 103.129 49.0399C103.13 49.0729 103.168 49.0625 103.245 49.0088C103.328 48.9453 103.4 48.8927 103.464 48.8509C103.569 48.7812 103.695 48.7102 103.841 48.6378C103.993 48.5557 104.147 48.4813 104.303 48.4147C104.46 48.348 104.594 48.2953 104.708 48.2565C104.83 48.2156 104.905 48.2037 104.935 48.2207C104.961 48.2552 104.976 48.2675 104.982 48.2577C104.993 48.2381 104.999 48.2283 104.999 48.2283C105 48.1701 105.092 48.1288 105.276 48.1043C105.468 48.0778 105.643 48.0681 105.803 48.0751C105.894 48.0755 105.968 48.0888 106.025 48.115C106.089 48.1392 106.125 48.1667 106.134 48.1976C106.134 48.1976 106.147 48.2148 106.172 48.2493C106.204 48.274 106.25 48.3072 106.311 48.3489C106.461 48.4162 106.49 48.5244 106.398 48.6734C106.313 48.8204 106.109 48.9083 105.785 48.937C105.584 48.9908 105.421 49.0469 105.296 49.1053C105.269 49.129 105.206 49.1544 105.105 49.1813C105.005 49.2082 104.909 49.238 104.819 49.2705C104.675 49.2923 104.538 49.3373 104.407 49.4055C104.275 49.466 104.12 49.553 103.943 49.6666C103.88 49.7084 103.781 49.7721 103.647 49.8579C103.512 49.9436 103.366 50.0324 103.209 50.1243C103.051 50.2162 102.906 50.2924 102.773 50.3528C102.648 50.4112 102.565 50.4417 102.524 50.4443Z" fill="black"/>
<path d="M110.095 75.9239C110.076 75.9456 110.019 75.965 109.924 75.9821C109.837 75.9972 109.738 75.9988 109.627 75.9871C109.526 75.981 109.443 75.9621 109.376 75.9302C109.337 75.9076 109.297 75.8811 109.255 75.8507C109.212 75.8127 109.176 75.7395 109.147 75.6313C109.126 75.5211 109.106 75.34 109.088 75.088C109.078 74.9252 109.073 74.7525 109.074 74.5701C109.074 74.3877 109.078 74.2295 109.083 74.0955C109.089 73.9615 109.091 73.8945 109.091 73.8945C109.126 73.8687 109.149 73.7383 109.161 73.5033C109.18 73.2662 109.194 72.9807 109.204 72.6468C109.206 72.5303 109.212 72.3342 109.221 72.0585C109.23 71.7828 109.241 71.5148 109.254 71.2545C109.263 71.0118 109.282 70.8204 109.311 70.6801C109.34 70.5399 109.354 70.4698 109.354 70.4698C109.354 70.4698 109.315 70.5093 109.237 70.5883C109.158 70.6672 109.058 70.7727 108.936 70.9048C108.814 71.0368 108.689 71.1864 108.56 71.3535C108.449 71.466 108.327 71.6146 108.195 71.7992C108.067 71.9741 107.946 72.1226 107.829 72.2449C107.664 72.4631 107.549 72.6057 107.484 72.6728C107.427 72.7378 107.359 72.7603 107.279 72.7403C107.156 72.6822 107.026 72.5844 106.89 72.447C106.759 72.2998 106.707 72.1813 106.732 72.0916C106.746 72.0798 106.787 72.0315 106.855 71.9469C106.931 71.8603 107.016 71.7589 107.109 71.6428C107.202 71.5268 107.286 71.4215 107.36 71.3272C107.442 71.2307 107.499 71.1657 107.531 71.1322C107.554 71.1259 107.59 71.0875 107.637 71.0169C107.684 70.9462 107.737 70.8784 107.794 70.8134C107.82 70.7567 107.927 70.6161 108.116 70.3917C108.304 70.1673 108.506 69.9184 108.723 69.645C108.961 69.3907 109.178 69.1794 109.373 69.0112C109.568 68.843 109.682 68.7586 109.715 68.758C109.738 68.7518 109.8 68.7644 109.899 68.7957C110.006 68.8249 110.112 68.8629 110.216 68.9097C110.319 68.9565 110.381 69.002 110.401 69.0463C110.462 69.088 110.472 69.2178 110.431 69.4358C110.419 69.5137 110.403 69.6546 110.383 69.8587C110.361 70.0551 110.34 70.2844 110.319 70.5468C110.304 70.7993 110.288 71.0518 110.273 71.3043C110.264 71.5471 110.258 71.7558 110.255 71.9305C110.257 72.1866 110.249 72.3876 110.23 72.5334C110.219 72.6772 110.207 72.8172 110.193 72.9532C110.186 73.0795 110.183 73.2542 110.185 73.4773C110.164 73.6155 110.148 73.7894 110.138 73.9991C110.134 74.1991 110.133 74.398 110.137 74.5959C110.138 74.786 110.142 74.9422 110.15 75.0643C110.134 75.2509 110.128 75.4305 110.133 75.6031C110.138 75.7757 110.125 75.8827 110.095 75.9239Z" fill="black"/>
<path d="M107.841 78.5862C107.794 78.5987 107.735 78.6103 107.664 78.6212C107.594 78.6399 107.513 78.6451 107.42 78.637C107.304 78.668 107.204 78.6658 107.12 78.6304C107.045 78.6006 106.986 78.5628 106.94 78.517C106.824 78.4238 106.805 78.3378 106.883 78.2589C106.969 78.1778 107.151 78.0836 107.429 77.9761C107.552 77.91 107.739 77.835 107.99 77.7512C108.246 77.6576 108.528 77.5656 108.835 77.475C109.14 77.3767 109.427 77.2875 109.695 77.2073C109.971 77.125 110.187 77.0632 110.341 77.0218C110.542 76.968 110.697 76.943 110.806 76.947C110.912 76.9433 111.019 76.9725 111.127 77.0348C111.274 77.1196 111.334 77.236 111.308 77.3839C111.279 77.5241 111.172 77.6026 110.986 77.6193C110.947 77.6297 110.875 77.6532 110.769 77.6899C110.662 77.7266 110.545 77.7665 110.415 77.8094C110.294 77.8502 110.188 77.887 110.097 77.9195C110.051 77.932 109.932 77.9679 109.741 78.0274C109.55 78.0869 109.328 78.1547 109.075 78.2307C108.822 78.3068 108.58 78.3759 108.348 78.438C108.118 78.5078 107.949 78.5572 107.841 78.5862Z" fill="black"/>
<path d="M108.974 83.3425C108.939 83.3354 108.874 83.3074 108.778 83.2585C108.69 83.2076 108.599 83.149 108.507 83.0826C108.413 83.0085 108.348 82.9514 108.312 82.9112C108.279 82.8788 108.26 82.8093 108.256 82.7026C108.26 82.5939 108.278 82.5353 108.309 82.5271C108.336 82.5363 108.36 82.501 108.38 82.4211C108.4 82.3412 108.419 82.2574 108.436 82.1698C108.452 82.0744 108.458 82.019 108.454 82.0036C108.454 81.9706 108.467 81.9422 108.493 81.9185C108.526 81.885 108.554 81.8525 108.579 81.821C108.601 81.7488 108.635 81.6736 108.68 81.5952C108.731 81.507 108.77 81.4345 108.796 81.3778C108.837 81.284 108.918 81.138 109.039 80.94C109.16 80.742 109.276 80.5411 109.387 80.3374C109.501 80.1162 109.603 79.9234 109.691 79.7589C109.778 79.5867 109.817 79.4725 109.811 79.4163C109.811 79.4163 109.819 79.4016 109.836 79.3722C109.859 79.333 109.886 79.2967 109.919 79.2631C109.951 79.2296 109.991 79.1775 110.038 79.1068C110.093 79.0341 110.138 78.9684 110.172 78.9096C110.171 78.8436 110.187 78.7647 110.22 78.673C110.259 78.5714 110.307 78.4716 110.364 78.3737C110.401 78.2644 110.432 78.1484 110.457 78.0257C110.48 77.8953 110.492 77.801 110.493 77.7427C110.493 77.6515 110.472 77.6034 110.429 77.5983C110.384 77.5854 110.27 77.5748 110.085 77.5662C109.883 77.5541 109.706 77.5891 109.554 77.6712C109.402 77.7533 109.217 77.9272 108.998 78.1929C108.896 78.245 108.804 78.3029 108.722 78.3663C108.647 78.4278 108.578 78.4629 108.514 78.4717C108.479 78.4645 108.435 78.4391 108.382 78.3954C108.329 78.3516 108.273 78.3128 108.214 78.2788L107.964 77.8115L108.271 77.5181C108.534 77.2323 108.795 77.0009 109.054 76.8238C109.319 76.637 109.568 76.5493 109.803 76.5609C109.888 76.5381 109.969 76.529 110.045 76.5336C110.118 76.5304 110.155 76.5288 110.155 76.5288C110.215 76.5045 110.312 76.5116 110.446 76.5501C110.589 76.5865 110.732 76.6433 110.877 76.7204C111.03 76.7954 111.144 76.8809 111.219 76.9766C111.393 77.1289 111.499 77.3406 111.538 77.6116C111.578 77.8826 111.539 78.187 111.423 78.5247C111.397 78.5814 111.337 78.7008 111.245 78.8828C111.153 79.0648 111.047 79.2713 110.927 79.5023C110.812 79.7235 110.704 79.9223 110.602 80.0987C110.508 80.273 110.447 80.3846 110.419 80.4336C110.371 80.4713 110.298 80.5695 110.199 80.7284C110.109 80.8851 110.011 81.0605 109.906 81.2544C109.806 81.4385 109.721 81.6019 109.652 81.7447C109.588 81.8778 109.564 81.9422 109.579 81.9381C109.58 81.9711 109.619 81.9607 109.695 81.907C109.778 81.8435 109.851 81.7909 109.914 81.7491C110.019 81.6794 110.145 81.6084 110.292 81.536C110.444 81.4539 110.598 81.3795 110.754 81.3129C110.91 81.2462 111.045 81.1935 111.159 81.1547C111.28 81.1138 111.356 81.1019 111.385 81.1189C111.411 81.1534 111.426 81.1657 111.432 81.1559C111.443 81.1363 111.449 81.1265 111.449 81.1265C111.45 81.0683 111.543 81.0269 111.726 81.0025C111.918 80.976 112.094 80.9663 112.253 80.9733C112.344 80.9737 112.418 80.987 112.475 81.0132C112.539 81.0373 112.576 81.0649 112.584 81.0958C112.584 81.0958 112.597 81.113 112.623 81.1475C112.654 81.1722 112.7 81.2054 112.761 81.2471C112.912 81.3144 112.941 81.4226 112.848 81.5716C112.763 81.7186 112.559 81.8064 112.235 81.8352C112.034 81.889 111.871 81.9451 111.746 82.0035C111.719 82.0272 111.656 82.0526 111.555 82.0795C111.455 82.1064 111.359 82.1361 111.269 82.1687C111.125 82.1905 110.988 82.2355 110.858 82.3037C110.725 82.3642 110.57 82.4512 110.393 82.5648C110.33 82.6066 110.231 82.6703 110.097 82.756C109.962 82.8418 109.816 82.9306 109.659 83.0225C109.501 83.1144 109.356 83.1906 109.223 83.251C109.098 83.3094 109.015 83.3399 108.974 83.3425Z" fill="black"/>
<path d="M114.215 39.3581C114.049 39.2949 113.957 39.2285 113.938 39.159C113.895 39.1209 113.854 39.107 113.815 39.1174C113.794 39.1313 113.76 39.0989 113.714 39.0201C113.676 38.9393 113.636 38.8507 113.594 38.7544C113.559 38.656 113.541 38.5903 113.541 38.5573C113.555 38.4872 113.601 38.4253 113.677 38.3716C113.762 38.3159 113.848 38.2805 113.935 38.2654C114.027 38.2406 114.086 38.258 114.11 38.3178C114.142 38.3755 114.214 38.4102 114.324 38.4219C114.443 38.4315 114.586 38.4097 114.754 38.3564C114.968 38.2907 115.156 38.2032 115.317 38.0937C115.486 37.9822 115.628 37.8488 115.744 37.6936C115.868 37.5362 115.97 37.3599 116.05 37.1645C116.075 37.0418 116.087 36.8854 116.085 36.6952C116.084 36.5051 116.073 36.3384 116.051 36.1951C116.029 36.0519 115.999 35.9855 115.96 35.9958C115.96 35.9958 115.945 35.9708 115.915 35.9209C115.893 35.8689 115.862 35.8151 115.822 35.7595C115.753 35.6539 115.633 35.5618 115.463 35.4832C115.29 35.3968 115.131 35.3442 114.985 35.3253C114.927 35.3243 114.815 35.3543 114.649 35.4153C114.483 35.4763 114.345 35.5301 114.233 35.5766C114.111 35.6175 114.038 35.6371 114.013 35.6356C113.993 35.6243 113.983 35.6187 113.983 35.6187C113.943 35.6213 113.866 35.6002 113.755 35.5555C113.651 35.5088 113.551 35.4571 113.453 35.4005C113.362 35.3419 113.312 35.2933 113.302 35.2546C113.303 35.1964 113.32 35.0923 113.355 34.9423C113.389 34.7923 113.436 34.6265 113.495 34.4451C113.562 34.2615 113.629 34.0819 113.698 33.906C113.767 33.7302 113.835 33.5835 113.903 33.466C114.067 33.1489 114.294 32.885 114.586 32.6744C114.875 32.4561 115.18 32.3122 115.501 32.2427C115.727 32.1904 115.902 32.1768 116.024 32.2019C116.153 32.2172 116.28 32.2743 116.406 32.3731C116.497 32.4647 116.55 32.5705 116.565 32.6906C116.581 32.8106 116.566 32.9098 116.521 32.9882C116.476 33.0666 116.4 33.095 116.295 33.0735C116.168 33.033 116.014 33.0453 115.833 33.1104C115.652 33.1756 115.465 33.267 115.273 33.3847C115.127 33.49 115.01 33.5793 114.922 33.6526C114.832 33.7181 114.779 33.7986 114.763 33.894C114.739 33.9254 114.722 33.9548 114.712 33.9821C114.711 34.0074 114.694 34.0203 114.661 34.0208C114.661 34.0208 114.653 34.0394 114.638 34.0765C114.621 34.1059 114.617 34.1361 114.625 34.167C114.599 34.2237 114.581 34.2657 114.572 34.293C114.569 34.3106 114.547 34.308 114.508 34.2854C114.508 34.2854 114.511 34.297 114.517 34.3202C114.524 34.3433 114.527 34.3714 114.527 34.4044C114.534 34.4606 114.56 34.4951 114.605 34.5079C114.655 34.5109 114.756 34.5005 114.907 34.4766C115.109 34.4558 115.26 34.4484 115.361 34.4544C115.467 34.4507 115.633 34.4809 115.857 34.545C116.107 34.6107 116.315 34.7537 116.482 34.9741C116.654 35.1846 116.787 35.4347 116.881 35.7242C116.981 36.0039 117.047 36.2803 117.079 36.5534C117.101 36.7296 117.113 36.8671 117.115 36.9661C117.116 37.065 117.085 37.2101 117.02 37.4014C116.909 37.6963 116.74 37.9776 116.513 38.2453C116.285 38.5053 116.03 38.7308 115.75 38.9218C115.47 39.1128 115.193 39.2533 114.919 39.3433C114.651 39.4235 114.416 39.4285 114.215 39.3581Z" fill="black"/>
<path d="M114.293 41.8182C114.247 41.8306 114.188 41.8422 114.116 41.8532C114.046 41.8718 113.965 41.877 113.872 41.8689C113.756 41.9 113.656 41.8978 113.572 41.8623C113.498 41.8325 113.438 41.7947 113.392 41.7489C113.276 41.6558 113.257 41.5697 113.336 41.4908C113.422 41.4098 113.603 41.3155 113.881 41.208C114.004 41.1419 114.191 41.0669 114.442 40.9832C114.698 40.8896 114.98 40.7975 115.287 40.707C115.592 40.6087 115.879 40.5194 116.147 40.4392C116.423 40.357 116.639 40.2951 116.793 40.2537C116.994 40.1999 117.149 40.175 117.258 40.179C117.364 40.1752 117.472 40.2045 117.579 40.2667C117.726 40.3516 117.787 40.4679 117.76 40.6159C117.731 40.7561 117.624 40.8345 117.438 40.8513C117.399 40.8616 117.327 40.8851 117.221 40.9219C117.115 40.9586 116.997 40.9984 116.868 41.0413C116.746 41.0822 116.64 41.1189 116.549 41.1515C116.503 41.1639 116.384 41.1998 116.193 41.2593C116.002 41.3188 115.78 41.3866 115.527 41.4627C115.274 41.5387 115.032 41.6078 114.8 41.6699C114.57 41.7398 114.401 41.7892 114.293 41.8182Z" fill="black"/>
<path d="M115.426 46.5745C115.39 46.5673 115.325 46.5393 115.229 46.4905C115.141 46.4395 115.051 46.3809 114.958 46.3145C114.864 46.2404 114.799 46.1833 114.763 46.1432C114.73 46.1107 114.711 46.0412 114.707 45.9345C114.711 45.8258 114.729 45.7673 114.76 45.759C114.787 45.7682 114.811 45.7329 114.831 45.653C114.851 45.5731 114.87 45.4894 114.888 45.4017C114.904 45.3064 114.909 45.251 114.905 45.2355C114.905 45.2025 114.918 45.1742 114.945 45.1504C114.977 45.1169 115.006 45.0844 115.03 45.0529C115.052 44.9808 115.086 44.9055 115.131 44.8271C115.182 44.7389 115.221 44.6665 115.247 44.6098C115.288 44.5159 115.369 44.37 115.49 44.172C115.611 43.9739 115.727 43.7731 115.838 43.5694C115.952 43.3482 116.054 43.1553 116.142 42.9908C116.229 42.8186 116.269 42.7044 116.262 42.6482C116.262 42.6482 116.27 42.6335 116.287 42.6041C116.31 42.565 116.337 42.5286 116.37 42.4951C116.402 42.4615 116.442 42.4094 116.489 42.3388C116.545 42.266 116.589 42.2003 116.623 42.1415C116.622 42.0755 116.638 41.9967 116.671 41.9049C116.71 41.8033 116.758 41.7036 116.815 41.6056C116.852 41.4963 116.883 41.3803 116.908 41.2576C116.931 41.1272 116.943 41.0329 116.944 40.9747C116.944 40.8835 116.923 40.8353 116.88 40.8302C116.836 40.8174 116.721 40.8067 116.536 40.7981C116.334 40.786 116.157 40.821 116.005 40.9031C115.853 40.9853 115.668 41.1591 115.449 41.4248C115.348 41.477 115.255 41.5348 115.173 41.5983C115.098 41.6597 115.029 41.6948 114.965 41.7037C114.93 41.6965 114.886 41.671 114.833 41.6273C114.78 41.5835 114.724 41.5447 114.665 41.5108L114.416 41.0434L114.722 40.7501C114.985 40.4643 115.246 40.2328 115.505 40.0558C115.77 39.8689 116.02 39.7813 116.255 39.7928C116.34 39.7701 116.42 39.7609 116.496 39.7655C116.569 39.7623 116.606 39.7607 116.606 39.7607C116.666 39.7364 116.763 39.7435 116.898 39.782C117.04 39.8184 117.184 39.8752 117.328 39.9523C117.481 40.0274 117.595 40.1128 117.67 40.2085C117.844 40.3609 117.95 40.5725 117.99 40.8436C118.029 41.1146 117.991 41.4189 117.874 41.7566C117.848 41.8133 117.789 41.9327 117.697 42.1147C117.605 42.2967 117.498 42.5032 117.378 42.7343C117.263 42.9555 117.155 43.1543 117.053 43.3306C116.959 43.5049 116.898 43.6165 116.87 43.6655C116.822 43.7032 116.749 43.8015 116.651 43.9603C116.56 44.1171 116.462 44.2924 116.357 44.4863C116.257 44.6704 116.172 44.8338 116.103 44.9767C116.039 45.1097 116.015 45.1741 116.031 45.17C116.031 45.203 116.07 45.1926 116.147 45.1389C116.229 45.0755 116.302 45.0228 116.365 44.981C116.471 44.9113 116.597 44.8403 116.743 44.768C116.895 44.6859 117.049 44.6115 117.205 44.5448C117.361 44.4781 117.496 44.4254 117.61 44.3866C117.731 44.3458 117.807 44.3338 117.836 44.3508C117.862 44.3853 117.878 44.3976 117.883 44.3878C117.895 44.3682 117.9 44.3584 117.9 44.3584C117.901 44.3002 117.994 44.2589 118.178 44.2344C118.369 44.2079 118.545 44.1982 118.704 44.2052C118.795 44.2056 118.869 44.2189 118.926 44.2451C118.99 44.2693 119.027 44.2968 119.035 44.3277C119.035 44.3277 119.048 44.345 119.074 44.3795C119.105 44.4042 119.151 44.4373 119.212 44.479C119.363 44.5463 119.392 44.6545 119.299 44.8036C119.214 44.9505 119.01 45.0384 118.686 45.0671C118.486 45.1209 118.323 45.1771 118.197 45.2354C118.171 45.2592 118.107 45.2845 118.007 45.3114C117.906 45.3383 117.811 45.3681 117.72 45.4007C117.577 45.4225 117.44 45.4675 117.309 45.5356C117.176 45.5961 117.021 45.6831 116.845 45.7967C116.781 45.8385 116.682 45.9023 116.548 45.988C116.414 46.0737 116.268 46.1625 116.11 46.2544C115.952 46.3463 115.807 46.4225 115.674 46.483C115.549 46.5413 115.466 46.5719 115.426 46.5745Z" fill="black"/>
<path d="M122.606 72.0832C122.575 72.0915 122.483 72.0581 122.33 71.983C122.185 71.9059 122.084 71.7591 122.026 71.5428C121.97 71.3012 121.941 71.0397 121.94 70.7583C121.945 70.4671 121.954 70.2079 121.968 69.9806C121.977 69.8291 121.984 69.7029 121.991 69.6018C122.004 69.4988 122.008 69.4356 122.002 69.4124C121.994 69.4145 121.954 69.4336 121.881 69.4698C121.815 69.5039 121.732 69.547 121.63 69.5992C121.272 69.7779 120.992 69.8942 120.791 69.948C120.598 69.9998 120.401 69.9284 120.2 69.7338C120.141 69.6999 120.056 69.6315 119.946 69.5285C119.835 69.4256 119.745 69.3049 119.675 69.1663C119.612 69.0257 119.618 68.8917 119.691 68.7644C119.717 68.5505 119.741 68.3948 119.765 68.2974C119.789 68.2 119.803 68.1299 119.808 68.0871C119.821 68.0422 119.822 68.0005 119.812 67.9618C119.815 67.9443 119.821 67.918 119.828 67.883C119.835 67.8479 119.846 67.8118 119.861 67.7747C119.9 67.6402 119.956 67.4636 120.03 67.245C120.111 67.0244 120.197 66.8027 120.286 66.58C120.381 66.3474 120.467 66.1422 120.544 65.9643C120.618 65.7787 120.676 65.6555 120.718 65.5946C120.758 65.559 120.83 65.5025 120.933 65.4251C121.045 65.3456 121.127 65.2986 121.181 65.2841C121.243 65.2676 121.313 65.2945 121.389 65.365C121.472 65.4257 121.544 65.4934 121.605 65.5681C121.667 65.6427 121.702 65.6955 121.71 65.7264C121.71 65.7264 121.708 65.7352 121.705 65.7527C121.701 65.7702 121.693 65.8014 121.68 65.8463C121.661 65.9009 121.632 65.9752 121.591 66.069C121.557 66.1608 121.503 66.283 121.428 66.4356C121.364 66.5686 121.291 66.7581 121.207 67.004C121.122 67.2422 121.041 67.4958 120.964 67.7649C120.893 68.0242 120.835 68.2551 120.789 68.4577C120.744 68.6603 120.73 68.7925 120.747 68.8543C120.757 68.8929 120.777 68.9207 120.806 68.9377C120.841 68.9449 120.897 68.9381 120.975 68.9174C121.071 68.875 121.156 68.8358 121.229 68.7996C121.31 68.7614 121.383 68.7252 121.448 68.6911C121.529 68.6529 121.598 68.6178 121.656 68.5858C121.712 68.546 121.765 68.5112 121.814 68.4812C121.87 68.4415 121.919 68.4077 121.961 68.3798C122.009 68.3421 122.048 68.3026 122.079 68.2614C122.151 68.1593 122.192 68.0363 122.203 67.8925C122.215 67.7487 122.24 67.5513 122.281 67.3003C122.301 67.1292 122.326 66.9735 122.354 66.8333C122.389 66.6833 122.418 66.547 122.444 66.4243C122.541 66.0171 122.634 65.7147 122.722 65.5173C122.808 65.3121 122.859 65.2074 122.874 65.2033C122.897 65.197 122.96 65.2135 123.061 65.2525C123.163 65.2915 123.262 65.3355 123.358 65.3843C123.434 65.4219 123.498 65.4586 123.549 65.4946C123.598 65.5229 123.624 65.5448 123.628 65.5602C123.653 65.653 123.656 65.7558 123.636 65.8687C123.623 65.9717 123.594 66.0955 123.549 66.2398C123.505 66.3841 123.459 66.5664 123.41 66.7865C123.354 67.0416 123.306 67.2947 123.266 67.5457C123.223 67.789 123.185 68.0312 123.15 68.2725C123.113 68.5059 123.083 68.7335 123.06 68.9551C123.036 69.1767 123.013 69.3857 122.992 69.5821C122.944 70.0836 122.918 70.4508 122.914 70.6837C122.91 70.9166 122.92 71.0756 122.942 71.1606C122.971 71.2358 123.004 71.2973 123.042 71.3452C123.068 71.4457 123.063 71.5506 123.026 71.6598C122.987 71.7614 122.929 71.8517 122.851 71.9306C122.772 72.0095 122.691 72.0604 122.606 72.0832Z" fill="black"/>
<path d="M120.742 74.7156C120.696 74.728 120.637 74.7397 120.565 74.7506C120.496 74.7693 120.414 74.7745 120.321 74.7664C120.205 74.7974 120.105 74.7952 120.021 74.7598C119.947 74.73 119.887 74.6922 119.842 74.6464C119.725 74.5532 119.707 74.4672 119.785 74.3882C119.871 74.3072 120.053 74.213 120.33 74.1055C120.453 74.0393 120.64 73.9644 120.891 73.8806C121.148 73.787 121.429 73.695 121.736 73.6044C122.041 73.5061 122.328 73.4169 122.596 73.3367C122.873 73.2544 123.088 73.1926 123.242 73.1512C123.443 73.0974 123.598 73.0724 123.707 73.0764C123.814 73.0727 123.921 73.1019 124.029 73.1642C124.176 73.249 124.236 73.3654 124.209 73.5133C124.18 73.6535 124.073 73.732 123.887 73.7487C123.848 73.7591 123.776 73.7826 123.67 73.8193C123.564 73.856 123.446 73.8959 123.317 73.9388C123.195 73.9796 123.089 74.0163 122.998 74.0489C122.952 74.0613 122.833 74.0973 122.642 74.1568C122.451 74.2163 122.229 74.2841 121.976 74.3601C121.723 74.4362 121.481 74.5053 121.249 74.5674C121.019 74.6372 120.85 74.6866 120.742 74.7156Z" fill="black"/>
<path d="M122.847 79.2984C122.654 79.3502 122.455 79.3661 122.251 79.3463C122.053 79.3166 121.886 79.2661 121.751 79.1946C121.616 79.1231 121.54 79.04 121.522 78.9452C121.497 78.8195 121.514 78.7115 121.572 78.6212C121.631 78.531 121.748 78.4747 121.925 78.4523C122.202 78.436 122.474 78.3839 122.74 78.296C123.004 78.2003 123.241 78.0789 123.45 77.9318C123.667 77.7826 123.829 77.6149 123.936 77.4288C124.091 77.172 124.154 76.973 124.124 76.8318C124.092 76.6829 123.945 76.5651 123.681 76.4783C123.562 76.4357 123.421 76.4031 123.258 76.3806C123.094 76.3582 122.935 76.3511 122.78 76.3596C122.631 76.3582 122.503 76.3759 122.397 76.4126C122.329 76.439 122.241 76.4501 122.132 76.4462C122.022 76.4344 121.909 76.415 121.794 76.3878C121.733 76.3461 121.667 76.2687 121.595 76.1554C121.523 76.0421 121.475 75.9721 121.452 75.9453C121.433 75.9087 121.448 75.8551 121.495 75.7845C121.543 75.7138 121.645 75.5995 121.801 75.4417C121.956 75.2761 122.185 75.049 122.488 74.7606C122.765 74.4959 122.976 74.2944 123.121 74.1561C123.272 74.0081 123.387 73.8946 123.465 73.8156C123.549 73.7269 123.617 73.6423 123.67 73.5618C123.734 73.4288 123.755 73.3363 123.733 73.2843C123.71 73.2322 123.594 73.2138 123.382 73.229C123.185 73.2653 123.03 73.3067 122.919 73.3533C122.805 73.392 122.752 73.4269 122.76 73.4578C122.76 73.4578 122.756 73.4588 122.749 73.4609C122.749 73.4609 122.737 73.464 122.714 73.4702C122.671 73.4651 122.587 73.4918 122.462 73.5501C122.337 73.6085 122.217 73.6697 122.101 73.7338C121.994 73.7957 121.939 73.8394 121.938 73.8646C121.934 73.8821 121.887 73.9237 121.797 73.9892C121.713 74.045 121.623 74.0979 121.529 74.148C121.442 74.196 121.388 74.2232 121.364 74.2294C121.322 74.2243 121.261 74.1826 121.182 74.1044C121.111 74.0241 121.046 73.9378 120.988 73.8456C120.928 73.7457 120.901 73.6744 120.906 73.6316C120.913 73.5966 120.955 73.5357 121.031 73.449C121.113 73.3526 121.206 73.253 121.311 73.1503C121.414 73.0399 121.503 72.954 121.578 72.8926C121.678 72.8327 121.829 72.7632 122.031 72.6841C122.239 72.5953 122.446 72.5151 122.65 72.4438C122.86 72.3626 123.013 72.3135 123.108 72.2964C123.473 72.2397 123.784 72.2559 124.04 72.3447C124.293 72.4258 124.493 72.6127 124.637 72.9052C124.689 73.0072 124.719 73.1192 124.727 73.2413C124.735 73.3635 124.716 73.4928 124.67 73.6294C124.624 73.7661 124.542 73.9246 124.425 74.1051C124.265 74.2805 124.142 74.4252 124.056 74.5392C123.977 74.6434 123.859 74.7618 123.704 74.8944C123.661 74.9476 123.587 75.0128 123.483 75.0903C123.38 75.1677 123.283 75.2392 123.193 75.3047C123.103 75.3703 123.06 75.4108 123.064 75.4262C123.064 75.4262 123.101 75.4246 123.175 75.4215C123.254 75.4085 123.339 75.4022 123.431 75.4026C123.527 75.3932 123.6 75.4027 123.649 75.4309C123.894 75.4482 124.135 75.5285 124.372 75.672C124.615 75.8057 124.79 75.9163 124.896 76.0038C125.068 76.2143 125.15 76.474 125.142 76.7827C125.139 77.0816 125.068 77.3865 124.927 77.6974C124.793 77.9985 124.612 78.2664 124.385 78.5012C124.202 78.6828 123.959 78.8431 123.657 78.982C123.36 79.1112 123.09 79.2167 122.847 79.2984Z" fill="black"/>
<path d="M107.645 41.5261C107.598 41.5362 107.539 41.5488 107.469 41.5639C107.397 41.5713 107.314 41.5685 107.222 41.5558C107.104 41.581 107.005 41.5777 106.925 41.546C106.851 41.5047 106.792 41.46 106.749 41.412C106.638 41.3132 106.622 41.2224 106.702 41.1397C106.789 41.0474 106.974 40.9545 107.256 40.8609C107.382 40.801 107.573 40.7355 107.828 40.6643C108.088 40.5836 108.371 40.5066 108.674 40.4331C108.976 40.3518 109.262 40.2778 109.534 40.2111C109.807 40.1444 110.021 40.0942 110.177 40.0605C110.381 40.0167 110.565 39.9976 110.729 40.003C110.902 40.0068 111.041 40.0424 111.145 40.1099C111.288 40.202 111.342 40.3213 111.308 40.4677C111.273 40.6063 111.161 40.6793 110.975 40.6867C110.936 40.6951 110.862 40.715 110.754 40.7464C110.647 40.7778 110.527 40.8117 110.396 40.8481C110.272 40.8829 110.165 40.9143 110.072 40.9423C110.025 40.9524 109.897 40.9841 109.688 41.0373C109.478 41.0906 109.234 41.1514 108.954 41.2198C108.682 41.2866 108.421 41.3508 108.173 41.4125C107.93 41.4646 107.754 41.5025 107.645 41.5261ZM109.611 43.0179C109.512 43.1291 109.417 43.1454 109.327 43.0667C109.242 42.9785 109.153 42.7931 109.06 42.5105C109 42.3842 108.93 42.1946 108.851 41.9416C108.778 41.679 108.701 41.3969 108.62 41.0953C108.547 40.7919 108.476 40.5042 108.41 40.2322C108.343 39.9601 108.293 39.7459 108.259 39.5895C108.215 39.3861 108.196 39.202 108.202 39.0372C108.205 38.8646 108.237 38.7268 108.297 38.6239C108.389 38.4814 108.508 38.4271 108.655 38.461C108.801 38.495 108.878 38.6053 108.885 38.7919C108.902 38.8293 108.922 38.9028 108.945 39.0123C108.976 39.1201 109.01 39.2396 109.047 39.3709C109.082 39.4943 109.113 39.6021 109.141 39.6943C109.151 39.7412 109.183 39.8694 109.236 40.0789C109.289 40.2884 109.35 40.5331 109.418 40.813C109.485 41.085 109.546 41.3462 109.599 41.5964C109.659 41.8372 109.701 42.0123 109.725 42.1218C109.735 42.1688 109.744 42.2283 109.751 42.3003C109.766 42.3707 109.767 42.4523 109.754 42.545C109.78 42.6624 109.772 42.7621 109.733 42.8443C109.699 42.9169 109.659 42.9748 109.611 43.0179Z" fill="black"/>
<path d="M117.152 76.0247C117.121 76.0314 117.077 76.0367 117.021 76.0407C116.972 76.043 116.929 76.0318 116.891 76.0073C116.859 76.014 116.802 76.0141 116.719 76.0074C116.636 76.0008 116.559 75.9886 116.49 75.9708C116.405 75.9563 116.286 75.9165 116.133 75.8512C115.978 75.7782 115.822 75.6973 115.663 75.6086C115.505 75.5199 115.368 75.4348 115.252 75.3533C115.145 75.2702 115.086 75.2051 115.075 75.1582C115.067 75.1191 115.043 75.1037 115.004 75.1122C115.004 75.1122 114.99 75.1029 114.961 75.0845C114.931 75.0583 114.913 75.0295 114.906 74.9983C114.889 74.92 114.842 74.8894 114.763 74.9062C114.763 74.9062 114.72 74.9727 114.635 75.1058C114.556 75.2371 114.456 75.3979 114.333 75.5879C114.161 75.8541 114.032 76.0497 113.944 76.175C113.863 76.2907 113.791 76.3553 113.728 76.3688C113.665 76.3822 113.577 76.3725 113.464 76.3397C113.357 76.2973 113.253 76.2337 113.153 76.1488C113.061 76.0623 112.999 75.9487 112.969 75.8079C112.969 75.8079 113.028 75.7011 113.146 75.4876C113.271 75.2723 113.423 75.0473 113.602 74.8125L114.069 74.0737L113.844 73.6557C113.762 73.5423 113.676 73.4259 113.584 73.3064C113.499 73.1774 113.431 73.0694 113.38 72.9822C113.257 72.8695 113.189 72.7983 113.174 72.7687C113.166 72.7296 113.183 72.6564 113.225 72.5491C113.274 72.473 113.362 72.3886 113.49 72.2957C113.623 72.1934 113.744 72.1634 113.851 72.2057C113.898 72.1956 113.975 72.2486 114.081 72.3648C114.187 72.4731 114.287 72.5987 114.384 72.7417C114.486 72.8751 114.544 72.9731 114.557 73.0357C114.584 73.1608 114.622 73.2223 114.671 73.22C114.727 73.216 114.836 73.1313 114.996 72.9657C115.072 72.8595 115.131 72.7731 115.174 72.7066C115.215 72.6323 115.236 72.5951 115.236 72.5951C115.254 72.5666 115.312 72.4928 115.409 72.3737C115.506 72.2546 115.606 72.1307 115.71 72.0021C115.813 71.8735 115.882 71.7972 115.918 71.7731C115.971 71.7127 116.049 71.6959 116.153 71.7226C116.255 71.7416 116.351 71.7864 116.44 71.8573C116.535 71.9187 116.591 71.9924 116.61 72.0784C116.63 72.1723 116.625 72.2838 116.596 72.4129C116.565 72.5341 116.48 72.6546 116.342 72.7743C116.223 72.9063 116.132 73.012 116.067 73.0914C116.01 73.1691 115.951 73.2555 115.889 73.3505C115.826 73.4377 115.725 73.5741 115.585 73.7598L115.333 74.0718L115.588 74.3481C115.632 74.3961 115.688 74.4494 115.758 74.5081C115.836 74.565 115.905 74.6032 115.967 74.6227C116.027 74.6752 116.127 74.7396 116.266 74.816C116.404 74.8846 116.536 74.9463 116.662 75.0009C116.788 75.0556 116.859 75.0812 116.875 75.0778C116.906 75.0711 116.944 75.0753 116.988 75.0903C117.032 75.1054 117.085 75.1226 117.146 75.1421C117.222 75.1912 117.272 75.287 117.294 75.4295C117.315 75.5641 117.311 75.696 117.281 75.8251C117.258 75.9447 117.215 76.0112 117.152 76.0247Z" fill="black"/>
</svg>
