<svg width="174" height="143" viewBox="0 0 174 143" fill="none" xmlns="http://www.w3.org/2000/svg">
<path d="M34.748 2C25.014 21.4578 -4.74066 79.5076 6.13772 60.6657C8.62608 56.3557 10.564 51.6109 13.2121 47.3013C24.6778 28.6417 52.8477 41.9231 35.4477 53.7881C25.3344 60.6844 18.5277 60.0334 13.4834 49.8314C11.5657 45.9529 12.2993 52.8823 14.9442 48.3013" stroke="#001D3D" stroke-width="3" stroke-linecap="round" stroke-linejoin="round"/>
<path d="M58.3777 50.5724C35.8217 46.784 47.6968 69.5883 56.4672 66.437C60.7323 64.9046 61.6852 59.5562 61.1597 55.6427C60.9898 54.3772 60.5897 53.6548 59.5763 52.9964C58.0686 52.0168 58.6673 52.3122 58.4268 53.4874" stroke="#001D3D" stroke-width="3" stroke-linecap="round" stroke-linejoin="round"/>
<path d="M74.7737 59.1728C71.1515 61.6548 67.5921 63.4109 65.9297 67.6024C65.164 69.5327 65.5994 71.9447 67.572 72.8967C71.5647 74.8237 79.0397 73.1489 79.6131 68.013C79.9405 65.0812 79.2767 62.5276 77.3562 60.311C76.7685 59.6327 75.613 59.9335 75.0893 60.6541C74.2855 61.76 74.6979 61.7444 73.0572 61.6459" stroke="#001D3D" stroke-width="3" stroke-linecap="round" stroke-linejoin="round"/>
<path d="M95.3223 54.582C92.1222 60.8253 88.9801 67.057 85.7161 73.2205C84.6825 75.1722 83.1093 79.7137 83.0574 81.8532C82.8655 89.7631 93.4291 82.9558 91.7325 80.7997" stroke="#001D3D" stroke-width="3" stroke-linecap="round" stroke-linejoin="round"/>
<path d="M80.8302 57.1842C86.3039 60.2291 91.7408 63.4173 97.3714 66.1729C97.679 66.3235 98.7614 66.9288 99.3478 66.8329C99.6871 66.7774 100 66.547 100.345 66.4945C101.388 66.3357 100.669 66.3565 99.6752 66.0436" stroke="#001D3D" stroke-width="3" stroke-linecap="round" stroke-linejoin="round"/>
<path d="M114.614 74.6687C111.083 76.1212 102.146 78.6495 104.14 84.3382C104.488 85.3323 105.399 85.6514 106.358 85.747C108.775 85.9881 111.279 85.1335 113.704 85.4661C118.013 86.0571 115.57 88.8966 113.286 90.3568C110.841 91.92 105.669 94.8441 102.694 93.7034C98.3031 92.0196 101.941 90.2196 104.781 89.1992" stroke="#001D3D" stroke-width="3" stroke-linecap="round" stroke-linejoin="round"/>
<path d="M128.49 71.1333C125.873 77.549 122.972 83.6919 119.511 89.6849C118.97 90.6229 117.664 92.4295 118.749 93.4784C120.628 95.2956 123.198 90.8379 123.354 89.5298" stroke="#001D3D" stroke-width="3" stroke-linecap="round" stroke-linejoin="round"/>
<path d="M117.669 77.876C118.756 78.1641 129.466 81.5554 128.637 79.8784" stroke="#001D3D" stroke-width="3" stroke-linecap="round" stroke-linejoin="round"/>
<path d="M130.242 88.5992C128.189 91.9805 126.066 95.3316 124.088 98.7582C123.201 100.295 125.9 95.7036 126.916 94.2487C128.595 91.8429 131.033 88.0036 134.227 87.7246C136.327 87.5411 139.849 90.4025 136.347 89.5256" stroke="#001D3D" stroke-width="3" stroke-linecap="round" stroke-linejoin="round"/>
<path d="M146.148 96.0499C145.171 96.225 129.667 99.2577 133.147 104.068C134.27 105.62 137.116 104.456 138.512 104.054C142.237 102.982 142.572 99.4634 144.537 96.8679C145.217 95.97 145.1 96.1074 144.692 97.2941C143.859 99.7137 142.487 101.728 141.076 103.835C140.801 104.245 138.283 107.058 138.967 107.765C139.579 108.397 142.337 105.805 142.788 105.369" stroke="#001D3D" stroke-width="3" stroke-linecap="round" stroke-linejoin="round"/>
<path d="M153.851 100.208C149.903 107.837 146.374 116.076 141.338 123.103C140.329 124.511 139.338 125.846 138.47 127.349C135.932 131.745 138.666 125.487 139.201 124.082" stroke="#001D3D" stroke-width="3" stroke-linecap="round" stroke-linejoin="round"/>
<path d="M151.883 103.115C156.244 105.072 160.25 106.941 156.381 111.325C155.234 112.625 153.934 113.829 152.119 113.707C148.926 113.492 147.956 112.614 151.164 111.36" stroke="#001D3D" stroke-width="3" stroke-linecap="round" stroke-linejoin="round"/>
</svg>
