<svg width="87" height="64" viewBox="0 0 87 64" fill="none" xmlns="http://www.w3.org/2000/svg">
<path d="M1.41113 34.2311C1.84084 36.441 2.93325 37.8768 3.78003 39.8879C4.35658 41.2572 5.43449 42.3175 6.03477 43.661C6.68306 45.112 7.65382 46.8163 8.55779 48.1077C9.33275 49.2148 9.84056 50.2638 10.8182 51.2415C12.5465 52.9698 13.8541 55.0293 15.5903 56.7328C18.1141 59.209 22.3878 62.4398 26.0648 62.2355C27.2459 62.1699 28.5538 62.536 29.7124 62.3611C30.7062 62.2111 31.9131 62.1609 32.909 62.3325C34.5454 62.6147 36.3211 62.3309 37.8865 62.6693C38.7314 62.852 39.6511 62.5851 40.5066 62.7435C41.6157 62.9489 42.9152 63.0004 44.0456 63.0004C47.7452 63.0004 51.4353 62.9781 55.1252 62.5095C57.1245 62.2556 59.1054 62.9184 61.0846 62.5666C62.9423 62.2363 65.4167 62.5775 67.1638 61.8131C69.3111 60.8737 71.4473 59.3962 73.1061 57.7375C73.938 56.9055 74.5693 55.9118 75.1325 54.8834C75.8722 53.5325 76.2841 52.0754 77.0276 50.7278C79.6206 46.028 81.0986 40.7968 83.1982 35.8979C83.693 34.7433 84.5064 33.808 85.099 32.7413C85.2489 32.4714 85.3168 32.1268 85.5613 31.8679C86.4767 30.8987 84.7233 30.7957 83.9174 30.4294" stroke="white" stroke-linecap="round" stroke-linejoin="round"/>
<path d="M1 34.4358C2.83619 32.0333 4.39384 30.2686 7.0621 28.9103C9.29652 27.7727 11.6136 26.4217 13.6322 24.9374C16.7345 22.6563 21.0036 21.6397 24.7803 20.953C28.8911 20.2056 32.9372 19.3319 37.1215 19.3319C38.4159 19.3319 39.697 19.7217 40.9916 19.7429C42.5416 19.7683 44.0954 19.8171 45.6381 19.9484C48.0059 20.1499 50.4361 20.1023 52.8076 20.1539C56.1162 20.2258 59.2833 21.9385 62.5914 22.2031C64.5592 22.3606 66.8541 22.6548 68.7677 23.1906C69.4844 23.3913 70.302 23.5278 70.9711 23.8528C71.8033 24.257 72.3869 24.941 73.1516 25.4168C75.62 26.9528 78.3795 27.6751 81.046 28.8418C81.8633 29.1993 83.269 29.8122 84.1741 29.8122C85.4201 29.8122 85.3557 32.1123 85.3557 29.8122" stroke="white" stroke-linecap="round" stroke-linejoin="round"/>
<path d="M85.1503 31.2515C83.6263 33.2939 82.5402 34.0715 80.3782 35.2643C78.681 36.2007 76.8008 36.8631 74.8983 37.2108C73.1231 37.5353 71.1837 37.7918 69.3842 37.9358C67.8863 38.0556 66.3588 37.8814 64.8291 38.0556C61.3699 38.4497 57.8793 39.3414 54.5429 40.3161C49.7797 41.7076 45.1802 41.8532 40.261 42.1199C34.8907 42.411 29.506 42.0007 24.2438 40.9097C22.4693 40.5418 20.5933 40.8721 18.7868 40.8013C16.7971 40.7232 14.8479 40.1751 12.9758 39.5283C12.1879 39.2562 11.4618 38.8376 10.6355 38.6493C9.66803 38.4289 8.68464 38.5158 7.7243 38.284C6.38617 37.961 4.82406 37.3765 3.69431 36.5943C3.20274 36.254 2.46465 35.9727 2.07889 35.4584C1.96636 35.3084 1.82202 34.9746 1.82202 34.7963C1.82202 34.3709 1.47359 34.4783 2.02752 34.8476" stroke="white" stroke-linecap="round" stroke-linejoin="round"/>
<path d="M40.9681 52.1092C42.2186 51.9702 43.8713 51.9941 43.3542 50.3853C43.1882 49.8689 42.77 49.8138 42.3267 49.6661C41.0051 49.2255 38.6393 50.0786 38.1426 51.4584C37.2511 53.9346 38.9382 56.609 41.5903 55.751C42.3118 55.5176 43.5919 55.0077 44.0506 54.3525C44.6012 53.5658 43.7745 53.7982 43.2286 53.0339" stroke="white" stroke-linecap="round" stroke-linejoin="round"/>
<path d="M37.1665 49.437C39.1598 48.6372 40.1796 48.3068 42.1954 48.3068C43.008 48.3068 43.4143 48.2495 44.1305 48.7178C45.3137 49.4914 45.7209 50.9618 45.5975 52.2569C45.4934 53.3504 45.1315 54.8492 44.747 55.8873C44.461 56.6594 43.7532 56.7927 43.0288 56.9376C42.3668 57.07 40.9236 56.6998 40.4031 56.9889C39.8506 57.2959 38.1594 57.3994 37.7316 56.8291C37.3382 56.3045 36.9163 56.0783 36.63 55.442C36.3566 54.8346 36.2333 54.254 36.0135 53.6497C35.7116 52.8196 35.1692 50.553 36.2932 50.0535C36.9519 49.7607 37.234 49.5854 37.9885 49.5854C38.2027 49.5854 38.3861 49.7452 38.605 49.7452C38.9208 49.7452 37.996 49.5397 37.6803 49.5397" stroke="white" stroke-linecap="round" stroke-linejoin="round"/>
<path d="M40.7627 41.2175C42.212 39.3434 43.5345 37.4109 45.0324 35.5892C45.8371 34.6105 46.8367 33.7687 47.7039 32.8321C50.187 30.1504 52.7174 27.2154 54.6108 24.0815C56.4759 20.9943 59.0214 17.6324 61.786 15.3137C63.2463 14.0889 64.5512 12.7353 65.8217 11.3237C67.0543 9.95405 67.6221 8.03863 68.7899 6.59156C69.6943 5.47094 75.614 -2.1552 76.6444 2.48166C77.0493 4.30356 75.2718 5.57812 74.1556 6.69431C72.889 7.96097 71.6162 9.57024 70.5366 11.0097C69.4959 12.3974 68.2309 13.6173 67.2202 15.0169C65.845 16.921 63.3427 18.2831 62.3397 20.4396C61.5122 22.2187 60.1393 23.6485 59.1088 25.2973C57.6807 27.5823 56.0075 29.4907 54.3254 31.582C52.9925 33.2392 50.9034 34.6015 49.9586 36.4911C49.1694 38.0695 47.7705 38.7348 46.4937 39.7562C45.9379 40.2008 45.2624 40.4476 44.7698 41.0634C44.606 41.2682 44.3127 41.505 44.1591 41.2746C44.0715 41.1432 43.7373 41.4377 43.7995 41.5828C44.0185 42.0939 43.4857 40.3534 43.4341 40.19" stroke="white" stroke-linecap="round" stroke-linejoin="round"/>
<path d="M39.9404 41.7316C40.3342 41.9312 42.8174 43.8164 42.8174 42.2967C42.8174 41.8367 43.4082 41.07 43.6165 40.6014C43.774 40.2471 42.3551 40.5866 42.1438 40.8583C41.8678 41.2131 41.3327 41.5013 42.2009 41.5261C42.8679 41.5452 43.3891 41.2584 43.8962 40.864C44.0419 40.7506 46.0022 41.0609 44.2558 41.0124C43.3271 40.9866 42.4246 41.0124 41.533 41.0124C40.7623 41.0124 42.324 40.8069 42.5491 40.8069C42.7287 40.8069 41.2467 41.6884 40.9907 41.4005C40.9285 41.3305 40.8204 41.1375 41.0707 41.0124" stroke="white" stroke-linecap="round" stroke-linejoin="round"/>
<path d="M7.26758 34.128C7.38315 34.1893 11.0553 36.1119 11.0692 35.8747C11.0861 35.5874 10.8814 35.337 11.0236 35.0527C11.6448 33.8102 12.4488 34.406 13.5181 34.8872C14.3522 35.2626 13.0863 31.1059 15.6015 32.8608C16.9012 33.7675 17.2478 33.6231 17.0343 32.1016C16.8726 30.9495 17.2704 30.9462 18.2616 31.0684C18.9353 31.1515 19.4181 31.2985 19.8028 30.6574C20.2695 29.8796 20.7953 29.437 21.7493 29.7726C22.5403 30.0509 23.2427 30.8334 23.7871 29.8354C24.0266 29.3963 23.8245 28.0822 24.5805 28.3342C25.0545 28.4921 25.6787 29.1108 26.2188 28.9164C26.628 28.7691 26.9424 27.5001 27.4061 27.7006C27.8897 27.9097 28.3828 28.8278 28.993 28.6082C29.2876 28.5021 29.834 27.5392 29.2555 27.6549" stroke="white" stroke-linecap="round" stroke-linejoin="round"/>
<path d="M21.7549 32.2784C23.0284 33.3146 27.7982 38.8497 29.1984 34.7158C29.4491 33.9755 29.489 32.509 30.1916 33.7226C30.7707 34.7228 31.6424 35.417 32.589 34.4703C33.2163 33.8431 33.4957 32.7782 34.3928 32.4496C35.2161 32.1482 35.8205 33.696 36.5049 32.7921C37.0568 32.0632 36.7897 30.8097 35.9797 30.3719C35.714 30.2282 35.6398 30.7232 35.5231 30.8399" stroke="white" stroke-linecap="round" stroke-linejoin="round"/>
<path d="M32.749 25.9081C34.7334 25.5672 37.2331 24.8733 38.7426 26.6501C39.4424 27.4738 39.3761 28.5254 38.9139 29.4586C38.576 30.1407 37.6673 30.4808 37.0873 29.8125C36.6114 29.2643 37.5926 28.3604 37.9435 28.0258C39.1461 26.8791 40.929 28.7152 41.3056 29.9609C41.6202 31.0015 38.7756 33.4125 39.1194 32.3812" stroke="white" stroke-linecap="round" stroke-linejoin="round"/>
<path d="M66.1412 29.4016C66.731 29.1989 70.5223 27.978 69.7945 29.9952C69.421 31.0301 67.9922 31.5854 67.0545 31.9246C66.611 32.085 65.4657 32.0573 66.2097 31.4109C66.8538 30.8512 67.7613 30.5886 68.6071 30.6574C71.9043 30.9254 67.2935 34.713 66.3467 35.2353C64.5072 36.2503 62.0047 37.318 60.0791 36.0802" stroke="white" stroke-linecap="round" stroke-linejoin="round"/>
<path d="M45.9008 23.339C46.6829 24.6114 47.6242 25.8897 48.2925 27.2263C48.5225 27.6863 47.5273 26.5085 47.2936 26.0504C47.2317 25.9291 46.8034 24.58 46.7627 24.5891C46.2622 24.7003 46.1446 26.9916 46.0092 27.4146C45.3691 29.415 43.7874 28.6487 42.2361 28.4992C40.3581 28.3182 39.5181 30.1707 38.4801 31.3533C37.6496 32.2995 37.3232 32.5899 37.8865 33.7165C38.3422 34.6281 38.5318 35.512 37.8865 36.3365C37.3829 36.98 36.7525 37.3866 36.1455 37.9177C35.5893 38.4044 36.3869 38.3242 36.2825 38.0319C35.9975 37.2339 34.2385 37.4001 33.6624 37.4382C31.5241 37.5796 29.3458 37.0433 27.2464 37.1757C26.131 37.246 25.0811 37.8681 23.9756 38.0319C22.8528 38.1982 24.337 39.1728 24.7576 39.4532C25.4814 39.9358 23.3405 38.4269 22.5542 38.0547C21.2355 37.4306 20.0174 36.9473 19.3348 35.5659C18.6507 34.1813 18.0482 33.2373 16.8917 32.2209C16.493 31.8705 16.4458 31.3375 16.6406 30.8624C17.0917 29.7617 18.0922 28.8658 19.0837 28.2709" stroke="white" stroke-linecap="round" stroke-linejoin="round"/>
<path d="M45.6942 27.4492C43.1186 25.6517 40.9934 24.8776 37.9653 24.4695C36.9008 24.3261 35.7654 23.5891 35.0712 22.7742C34.4552 22.0511 34.8044 22.2424 34.078 23.2252C33.0858 24.5676 32.349 23.3625 31.0812 23.7161C29.1381 24.2579 27.4704 26.0641 25.4986 26.3989C24.9586 26.4906 25.0888 25.5872 24.414 25.9765C23.2777 26.6321 22.4086 27.2523 21.0804 27.4606C20.2772 27.5866 18.7549 28.1156 18.8771 29.0932" stroke="white" stroke-linecap="round" stroke-linejoin="round"/>
<path d="M63.1611 27.4497C65.6464 27.6893 68.1645 27.6584 70.6389 27.9235C71.5101 28.0168 71.9553 28.3689 72.5682 28.9395C73.1211 29.4542 73.984 30.6658 74.7773 30.7319C75.9211 30.8272 76.5121 30.3521 77.58 30.0184C78.2229 29.8175 80.2743 30.0184 79.6007 30.0184" stroke="white" stroke-linecap="round" stroke-linejoin="round"/>
<path d="M61.3131 30.224C58.6416 31.9844 57.2144 34.6544 54.3548 36.2576C53.7886 36.575 52.0553 37.1894 52.1857 38.2326C52.2801 38.9875 58.0684 36.6241 58.9499 36.1834" stroke="white" stroke-linecap="round" stroke-linejoin="round"/>
<path d="M71.2783 32.6898C72.731 33.7711 73.9834 35.3166 75.7992 34.7676C76.2906 34.619 77.3186 34.5611 77.6487 34.231" stroke="white" stroke-linecap="round" stroke-linejoin="round"/>
</svg>
