<svg width="255" height="252" viewBox="0 0 255 252" fill="none" xmlns="http://www.w3.org/2000/svg">
<path d="M162.5 49.2174L91 196.717M91 2.6978C86.985 3.63302 83.4264 4.87507 80.5 6.21745L1 168.217C4.11544 168.115 7.14964 168.119 10.1024 168.217M91 2.6978C111.909 -2.17276 145.195 1.27835 166 42.2174C185.132 40.6097 227.93 45.3605 251.04 76.2174M91 2.6978L10.1024 168.217M10.1024 168.217C53.4021 169.667 79.1987 191.671 87 203.217C138.052 201.06 168.962 227.286 181.109 244.717M251.04 76.2174C251.887 77.3487 252.708 78.515 253.5 79.7174L184.5 250.217C183.606 248.531 182.476 246.68 181.109 244.717M251.04 76.2174L181.109 244.717M91 23.7174C98.8333 25.0507 116.7 30.6174 125.5 42.2174L105.5 79.7174L70.5 65.2174L91 23.7174ZM147 133.217L125.5 175.717C138.48 178.384 167.352 186.817 179 199.217L199 157.717C193 150.884 174.2 136.417 147 133.217Z" stroke="black"/>
<path d="M36.5 150.717C49.6667 151.884 78.8 158.917 90 177.717" stroke="black"/>
<path d="M45.5 133.217C58.6667 134.384 87.8 141.417 99 160.217" stroke="black"/>
<path d="M54.5 112.217C67.6667 113.384 96.8 120.417 108 139.217" stroke="black"/>
<path d="M63.5 92.2173C76.6667 93.384 105.8 100.417 117 119.217" stroke="black"/>
<path d="M153.5 112.217C166.667 113.384 195.8 120.417 207 139.217" stroke="black"/>
<path d="M161.5 92.2173C174.667 93.384 203.8 100.417 215 119.217" stroke="black"/>
<path d="M170.5 70.2173C183.667 71.384 212.8 78.4173 224 97.2173" stroke="black"/>
</svg>
