<svg width="359" height="247" viewBox="0 0 359 247" fill="none" xmlns="http://www.w3.org/2000/svg">
<path d="M358 184.366H358.5C358.5 184.347 358.499 184.327 358.497 184.308L358 184.366ZM334.944 199.255L334.858 199.747L334.944 199.255ZM253.267 139.503C259.842 135.36 270.636 131.551 281.638 133.546C292.596 135.534 303.871 143.301 311.422 162.526L312.353 162.16C304.699 142.675 293.177 134.623 281.816 132.562C270.499 130.51 259.452 134.424 252.733 138.657L253.267 139.503ZM312.26 162.676C314.797 159.838 318.691 158.27 323.206 157.914C327.719 157.559 332.812 158.42 337.677 160.392C347.415 164.339 356.129 172.682 357.503 184.424L358.497 184.308C357.067 172.1 348.021 163.505 338.052 159.465C333.064 157.444 327.816 156.549 323.128 156.918C318.443 157.286 314.274 158.923 311.514 162.01L312.26 162.676ZM357.5 184.366C357.5 188.272 354.474 192.311 350.055 195.18C345.654 198.038 340.017 199.633 335.03 198.762L334.858 199.747C340.152 200.672 346.043 198.977 350.6 196.019C355.138 193.072 358.5 188.769 358.5 184.366H357.5ZM335.03 198.762C312.492 194.827 305.05 175.196 312.32 162.593L311.454 162.093C303.769 175.414 311.773 195.717 334.858 199.747L335.03 198.762ZM311.834 162.84C314.699 163.146 319.292 164.112 323.717 166.013C328.151 167.918 332.34 170.73 334.505 174.681L335.382 174.2C333.06 169.962 328.629 167.035 324.111 165.094C319.583 163.149 314.891 162.161 311.94 161.846L311.834 162.84Z" fill="black"/>
<path d="M3.5 59.5L172.5 1V126.5M3.5 59.5V188.5M3.5 59.5L1 187.5C1.5 187.833 2.6 188.5 3 188.5L3.5 191.5C3.9 191.9 89 228.333 131.5 246.5C132.5 246.5 294.5 175.5 295 175C295.4 174.6 295.5 172.833 295.5 172M172.5 126.5L295.5 172M172.5 126.5L3.5 188.5M295.5 172L132 244L3.5 188.5" stroke="black"/>
<path d="M17 66L164.5 14V115.5L17 172V77.5" stroke="black"/>
<path d="M103.5 146.5C103.5 147.811 102.232 149 100.5 149C98.7681 149 97.5 147.811 97.5 146.5C97.5 145.189 98.7681 144 100.5 144C102.232 144 103.5 145.189 103.5 146.5Z" fill="#C4C4C4" stroke="black"/>
<path d="M176 139L49.5 188.5L118 217.5L243.5 165.5L176 139Z" stroke="black"/>
<path d="M160.208 204.869L209.011 186.032L228.097 192.549L178.511 213.453L160.208 204.869Z" stroke="black"/>
<line x1="67.199" y1="186.041" x2="120.199" y2="209.041" stroke="black"/>
<line x1="79.199" y1="181.041" x2="132.199" y2="204.041" stroke="black"/>
<line x1="91.199" y1="176.041" x2="144.199" y2="199.041" stroke="black"/>
<line x1="103.199" y1="171.041" x2="156.199" y2="194.041" stroke="black"/>
<line x1="115.199" y1="166.041" x2="168.199" y2="189.041" stroke="black"/>
<line x1="127.199" y1="161.041" x2="180.199" y2="184.041" stroke="black"/>
<line x1="139.199" y1="156.041" x2="192.199" y2="179.041" stroke="black"/>
<line x1="151.199" y1="151.041" x2="204.199" y2="174.041" stroke="black"/>
<line x1="163.199" y1="146.041" x2="216.199" y2="169.041" stroke="black"/>
<line x1="74.809" y1="190.038" x2="178.809" y2="147.038" stroke="black"/>
<line x1="83.8128" y1="193.036" x2="187.813" y2="151.036" stroke="black"/>
<line x1="92.809" y1="197.038" x2="196.809" y2="154.038" stroke="black"/>
<line x1="101.811" y1="201.037" x2="206.811" y2="158.037" stroke="black"/>
<line x1="110.811" y1="205.037" x2="215.811" y2="162.037" stroke="black"/>
<line x1="119.808" y1="209.038" x2="225.808" y2="165.038" stroke="black"/>
</svg>
