<svg width="256" height="252" viewBox="0 0 256 252" fill="none" xmlns="http://www.w3.org/2000/svg">
<path d="M163.5 49.2174L92 196.717M92 2.6978C87.985 3.63302 84.4264 4.87507 81.5 6.21745L2 168.217C5.11544 168.115 8.14964 168.119 11.1024 168.217M92 2.6978C112.909 -2.17276 146.195 1.27835 167 42.2174C186.132 40.6097 228.93 45.3605 252.04 76.2174M92 2.6978L11.1024 168.217M11.1024 168.217C54.4021 169.667 80.1987 191.671 88 203.217C139.052 201.06 169.962 227.286 182.109 244.717M252.04 76.2174C252.887 77.3487 253.708 78.515 254.5 79.7174L185.5 250.217C184.606 248.531 183.476 246.68 182.109 244.717M252.04 76.2174L182.109 244.717M92 23.7174C99.8333 25.0507 117.7 30.6174 126.5 42.2174L106.5 79.7174L71.5 65.2174L92 23.7174ZM148 133.217L126.5 175.717C139.48 178.384 168.352 186.817 180 199.217L200 157.717C194 150.884 175.2 136.417 148 133.217Z" stroke="black" stroke-width="1.5"/>
<path d="M37.5 150.718C50.6667 151.884 79.8 158.918 91 177.718" stroke="black" stroke-width="1.5"/>
<path d="M46.5 133.218C59.6667 134.384 88.8 141.418 100 160.218" stroke="black" stroke-width="1.5"/>
<path d="M55.5 112.218C68.6667 113.384 97.8 120.418 109 139.218" stroke="black" stroke-width="1.5"/>
<path d="M64.5 92.2178C77.6667 93.3844 106.8 100.418 118 119.218" stroke="black" stroke-width="1.5"/>
<path d="M154.5 112.218C167.667 113.384 196.8 120.418 208 139.218" stroke="black" stroke-width="1.5"/>
<path d="M162.5 92.2178C175.667 93.3844 204.8 100.418 216 119.218" stroke="black" stroke-width="1.5"/>
<path d="M171.5 70.2178C184.667 71.3844 213.8 78.4178 225 97.2178" stroke="black" stroke-width="1.5"/>
</svg>
