<svg width="108" height="113" viewBox="0 0 108 113" fill="none" xmlns="http://www.w3.org/2000/svg">
<path d="M36.9151 27.2157C25.1303 33.4885 17.1396 39.9173 12.3517 52.5773C9.31739 60.6004 13.5648 70.4428 18.9798 76.2832C27.9021 85.9064 43.2268 88.1645 55.4475 84.998C69.6833 81.3094 87.9233 71.1598 85.6317 53.5307C84.4032 44.0802 73.2099 38.2428 66.9233 32.1228C61.809 27.144 54.3991 20.5915 46.7428 20.1814C43.6176 20.014 37.2151 22.384 36.0361 25.8082C35.5094 27.3379 34.7421 29.0177 34.5109 30.6247C34.3236 31.9267 33.658 27.722 33.168 26.595" stroke="white" stroke-linecap="round" stroke-linejoin="round"/>
<path d="M51.71 56.4246C48.8659 59.2056 43.7359 62.0511 47.8712 64.9431C48.8135 65.602 49.7615 65.2575 50.3282 64.1844C50.8127 63.2672 53.2102 58.4952 50.3295 58.4311C44.4575 58.3003 49.6843 68.3228 52.0385 62.4465C53.3028 59.2905 49.6746 57.6888 47.5854 60.0191C45.0962 62.7955 48.5015 65.2501 50.0396 61.7304C51.1988 59.0778 49.2611 57.918 47.9033 60.4888C46.687 62.7916 49.3408 65.0462 50.3366 62.1325C51.358 59.144 48.696 57.702 47.2164 60.5034C45.5037 63.7461 48.1053 62.6578 49.3585 60.4839C50.6219 58.2923 47.5556 59.505 46.9343 61.109C45.491 64.8348 49.0686 63.2638 48.8729 60.5104C48.5853 56.4658 47.3692 66.3379 47.2168 59.1453" stroke="white" stroke-linecap="round" stroke-linejoin="round"/>
<path d="M34.0303 48.1058C39.1027 51.7488 44.1891 55.118 48.6835 58.939C49.9291 59.9979 49.668 61.5272 50.122 61.3589C51.8001 60.7369 53.4527 59.8861 55.2715 59.3245C59.4335 58.0395 62.0849 54.9986 66.0963 53.7601C70.9538 52.2603 77.7009 48.7954 68.435 47.2604" stroke="white" stroke-linecap="round" stroke-linejoin="round"/>
<path d="M24.2119 30.6937C22.2696 27.0914 15.6946 18.9361 22.8949 17.792C25.4785 17.3815 27.9291 19.4288 29.8842 20.5968C34.9707 23.6355 36.1339 28.8396 30.113 31.0938C28.5358 31.6842 27.2577 35.568 24.7457 33.8621C21.9015 31.9305 24.0497 31.456 23.4602 28.2592C23.0744 26.1676 21.8093 26.7417 20.6314 24.9352C19.7279 23.5494 20.1161 21.6067 20.1431 20.3947" stroke="white" stroke-linecap="round" stroke-linejoin="round"/>
<path d="M25.2669 25.4797C25.53 26.46 26.732 35.6543 29.4668 33.2444C30.3825 32.4375 31.0859 31.4582 31.1758 30.223C31.2628 29.0261 30.6227 28.5248 29.8307 27.626C27.7902 25.3104 22.9891 22.2146 25.9284 27.9421C27.783 31.5558 31.7757 29.3447 30.9804 25.5921C30.3732 22.7263 25.7052 20.0771 24.4502 23.9542C23.5625 26.6964 27.9169 30.7949 28.4909 26.8052C28.7824 24.7794 25.3935 20.9048 23.947 23.7639C22.4639 26.6952 27.2114 30.447 28.766 27.856C30.3031 25.2941 27.0636 19.9271 25.4447 22.857C23.9639 25.537 28.3726 28.5988 29.0234 25.0112C29.7492 21.0094 25.0019 19.6288 24.8904 23.6207C24.7909 27.1845 29.2781 29.5992 28.7111 24.9595C28.2795 21.4279 21.5835 21.5469 22.8179 25.5446C23.955 29.2273 27.1297 27.8344 26.095 24.4833C25.0166 20.9905 21.742 22.8628 24.1133 25.3421C26.4847 27.8216 26.8432 22.0109 24.6831 20.87C22.1615 19.5382 20.5306 23.3045 23.3718 24.4599C25.3085 25.2476 25.8017 19.3459 22.9001 19.1737C20.3942 19.0249 23.052 23.2262 23.5099 21.9483C24.2196 19.9673 22.0379 19.4614 23.4102 19.3865C24.6196 19.3205 27.5328 19.0781 28.609 19.8307C29.4561 20.4231 33.2548 24.0019 33.6026 25.1281C34.6667 28.5747 29.969 32.0604 26.6783 32.1301C24.3166 32.1802 24.1479 33.9117 24.7523 33.1693C26.2186 31.3683 25.6127 28.039 25.9887 29.2567" stroke="white" stroke-linecap="round" stroke-linejoin="round"/>
<path d="M44.1569 88.0902C43.4363 93.1677 42.9571 98.1934 41.7919 103.141C41.5295 104.255 41.0865 106.5 41.3037 107.637C41.8888 110.699 41.7683 99.7611 41.9188 98.1143" stroke="white" stroke-linecap="round" stroke-linejoin="round"/>
<path d="M82.5049 66.9152C89.647 71.8173 96.7417 74.695 102.945 80.5787C103.556 81.1581 104.412 81.5042 105.125 81.8809C107.511 83.1409 100.541 79.0354 98.2507 77.6086" stroke="white" stroke-linecap="round" stroke-linejoin="round"/>
</svg>
