<svg width="327" height="222" viewBox="0 0 327 222" fill="none" xmlns="http://www.w3.org/2000/svg">
<path d="M36.8672 123.264C65.9721 109.397 89.5003 86.4703 113.159 64.8502C131.753 47.8577 151.253 31.0669 171.774 16.4031C175.823 13.5096 181.543 7.68666 187.017 10.1684C192.441 12.6277 195.568 19.3234 199.855 23.2884C210.412 33.0528 219.905 44.985 228.585 56.4596C238.14 69.0912 223.811 76.0823 214.953 84.3525C204.892 93.7467 195.283 103.434 184.292 111.724C173.846 119.603 165.452 130.463 155.888 139.383C141.313 152.978 127.681 167.45 113.148 181.059C104.497 189.159 94.5711 195.773 86.24 204.161C83.3209 207.1 80.6209 210.985 77.2543 213.433C74.5505 215.399 70.8083 207.839 69.8457 206.416C62.2057 195.115 50.3705 187.385 42.8893 175.566C38.1855 168.135 35.0205 158.963 29.3901 152.177C26.7024 148.937 19.9828 141.645 22.9269 136.912C25.9328 132.08 34.468 129.765 39.1236 126.304C42.7527 123.606 47.1643 120.276 51.2947 118.4C54.2965 117.037 57.2434 114.62 59.928 112.759C66.9932 107.862 59.5062 109.955 54.7278 111.775" stroke="white" stroke-linecap="round" stroke-linejoin="round"/>
<path d="M41.3125 145.449C59.0307 156.418 74.9243 172.291 88.7564 187.946C89.1068 188.342 92.4731 190.688 91.9599 191.557C90.969 193.233 79.4689 185.665 78.3703 184.907" stroke="white" stroke-linecap="round" stroke-linejoin="round"/>
<path d="M58.8779 129.591C73.2429 133.705 81.8039 141.531 93.4019 149.905C98.5682 153.635 103.83 157.002 108.467 161.388C110.645 163.448 112.196 166.161 114.208 168.382C116.965 171.426 105.705 164.848 104.378 164.09" stroke="white" stroke-linecap="round" stroke-linejoin="round"/>
<path d="M79.752 117.297C89.8044 126.369 99.9096 135.316 110.277 144.024C114.216 147.332 118.687 150.368 122.089 154.264C128.128 161.18 120.219 152.206 117.533 149.672" stroke="white" stroke-linecap="round" stroke-linejoin="round"/>
<path d="M93.8359 108.649C101.292 113.182 109.081 117.575 115.394 123.688C117.984 126.195 120.133 129.151 122.902 131.474C126.313 134.335 129.301 137.673 132.734 140.455C137.624 144.415 138.359 145.572 132.55 140.601" stroke="white" stroke-linecap="round" stroke-linejoin="round"/>
<path d="M111.996 95.3362C120.222 101.774 127.836 108.312 134.714 116.165C137.761 119.643 140.216 123.658 144.082 126.326C147.625 128.771 150.107 129.477 145.961 125.505" stroke="white" stroke-linecap="round" stroke-linejoin="round"/>
<path d="M129.474 81.771C136.717 87.2134 143.858 92.1817 149.643 99.1915C152.292 102.4 154.383 106.089 157.341 109.049C163.347 115.059 159.217 112.029 154.872 107.95" stroke="white" stroke-linecap="round" stroke-linejoin="round"/>
<path d="M145.597 67.6921C155.765 77.4199 164.282 88.8138 174.469 98.4221C181.328 104.892 171.5 94.5246 169.892 92.6828" stroke="white" stroke-linecap="round" stroke-linejoin="round"/>
<path d="M165.281 56.502C173.841 53.0073 182.719 48.8418 187.319 40.302C188.588 37.9471 190.222 35.8972 190.743 33.2433C191.459 29.5988 191.319 31.1622 188.618 33.5207" stroke="white" stroke-linecap="round" stroke-linejoin="round"/>
<path d="M179.061 68.2556C185.847 61.9587 193.433 55.0805 198.405 47.0874C200.885 43.1006 205.609 38.2342 199.005 44.0007" stroke="white" stroke-linecap="round" stroke-linejoin="round"/>
<path d="M200.817 81.4537C206.999 74.735 212.501 68.4862 218.192 61.4607C220.031 59.1908 225.633 56.2453 218.893 58.0465" stroke="white" stroke-linecap="round" stroke-linejoin="round"/>
<path d="M195.896 78.0594C202.367 72.5137 209.686 66.0569 214.815 59.0543C216.183 57.1863 217.235 55.1054 218.488 53.1645C220.586 49.9133 220.719 51.0111 217.536 51.345" stroke="white" stroke-linecap="round" stroke-linejoin="round"/>
<path d="M58.7848 156.651C91.0264 143.554 98.9817 108.009 125.256 87.9064C128.452 85.461 131.048 82.7428 134.776 81.0501C137.268 79.9182 140.345 79.3764 142.614 77.9281C143.998 77.0446 155.489 68.2658 147.503 71.8926" stroke="white" stroke-linecap="round" stroke-linejoin="round"/>
<path d="M43.7727 147.146C47.3908 142.746 50.603 138.981 55.1933 135.799C55.9461 135.277 57.1076 135.189 57.7268 134.492C58.9533 133.111 60.8116 131.092 61.2843 129.311C63.146 122.297 72.2426 123.594 77.073 120.077C81.6681 116.731 86.0919 113.344 90.7764 110.039C95.9375 106.397 98.3253 103.203 102.47 98.5363C106.278 94.2497 109.974 89.9137 114.004 85.8556C117.302 82.5356 122.482 79.5162 124.581 75.2671C126.95 70.4717 133.003 64.9832 138.452 65.872C140.323 66.1773 154.074 74.1456 145.086 69.0506" stroke="white" stroke-linecap="round" stroke-linejoin="round"/>
<path d="M72.9499 164.292C97.178 151.512 110.624 123.648 126.989 102.6C133.016 94.8477 141.63 89.696 147.939 82.0783C150.638 78.82 156.597 75.359 149.666 75.415" stroke="white" stroke-linecap="round" stroke-linejoin="round"/>
<path d="M81.5995 172.182C103.553 158.685 117.61 133.575 133.582 113.676C140.849 104.623 147.862 95.3798 155.218 86.4005C158.572 82.3067 164.42 79.7492 156.916 83.941" stroke="white" stroke-linecap="round" stroke-linejoin="round"/>
<path d="M90.2465 186.269C103.946 172.909 115.006 158.493 126.215 143.04C133.03 133.644 138.922 123.083 146.925 114.622C151.517 109.768 155.053 104.084 159.221 98.9372C160.901 96.8641 162.06 94.4485 163.786 92.3927C167.674 87.7618 164.963 91.9513 162.256 94.4634" stroke="white" stroke-linecap="round" stroke-linejoin="round"/>
<path d="M93.4705 192.122C100.288 185.444 110.276 179.016 114.824 170.354C116.476 167.209 120.562 159.615 123.427 157.691C127.215 155.147 129.02 149.735 131.777 146.331C134.649 142.786 137.459 139.328 140.575 135.956C143.496 132.795 144.432 127.246 148.048 124.525C152.077 121.495 154.038 116.803 157.251 113.185C160.033 110.053 165.329 106.808 168.78 104.416C170.692 103.09 172.027 101.283 174.196 100.299C178.592 98.3023 175.739 99.3241 171.715 99.1737" stroke="white" stroke-linecap="round" stroke-linejoin="round"/>
<path d="M164.728 59.0046C170.367 60.4914 177.321 61.5124 182.46 64.5858C185.777 66.5692 188.665 68.5605 182.625 64.9487" stroke="white" stroke-linecap="round" stroke-linejoin="round"/>
<path d="M170.583 49.5913C178.628 51.693 184.313 54.049 190.873 58.3262C195.163 61.1227 194.475 60.3484 190.007 57.6566" stroke="white" stroke-linecap="round" stroke-linejoin="round"/>
<path d="M180.343 40.092C187.251 43.9771 193.953 48.3923 201.096 51.7749C205.298 53.7644 203.093 53.6253 199.85 52.0596" stroke="white" stroke-linecap="round" stroke-linejoin="round"/>
<path d="M185.905 32.5012C193.169 35.8086 199.865 39.1022 206.553 43.2627C209.603 45.1599 206.835 45.2827 204.522 43.7474" stroke="white" stroke-linecap="round" stroke-linejoin="round"/>
<path d="M168.292 55.6966C173.78 49.1719 179.285 42.9894 184.282 36.3016C185.701 34.4015 194.348 23.8224 190.611 29.2368" stroke="white" stroke-linecap="round" stroke-linejoin="round"/>
<path d="M174.057 67.1505C181.197 60.8378 191.488 52.421 193.793 42.9897C194.471 40.2141 195.942 37.44 198.098 35.5308C200.284 33.5944 202.57 32.7199 199.304 35.9836" stroke="white" stroke-linecap="round" stroke-linejoin="round"/>
<path d="M168.331 66.9381C175.945 58.7374 182.453 53.2256 186.755 43.1234C187.872 40.4997 189.153 38.3252 190.987 36.2606C192.93 34.0727 195.719 32.0238 191.967 35.9404" stroke="white" stroke-linecap="round" stroke-linejoin="round"/>
<path d="M196.618 70.9771C200.124 73.1999 203.64 75.2598 207.284 77.1096C208.788 77.8736 206.927 76.3951 206.287 76.1549" stroke="white" stroke-linecap="round" stroke-linejoin="round"/>
<path d="M203.453 59.9927C203.69 60.1941 217.474 72.0044 215.029 69.3703" stroke="white" stroke-linecap="round" stroke-linejoin="round"/>
<path d="M211.642 55.7124C214.682 58.6379 223.994 67.1937 220.716 64.5378" stroke="white" stroke-linecap="round" stroke-linejoin="round"/>
<path d="M192.546 75.6412C197.585 70.9488 208.636 61.6524 211.343 54.4398C212.41 51.5975 217.298 47.9452 212.701 51.8529" stroke="white" stroke-linecap="round" stroke-linejoin="round"/>
<path d="M193.183 77.0399C193.661 77.4231 203.299 87.8033 205.354 82.77C206.403 80.2009 207.769 76.8547 210.343 75.4385C214.857 72.9542 215.69 65.1295 220.312 63.0307C225.555 60.6496 225.065 56.6567 220.183 55.2404C218.264 54.6839 219.778 50.9036 217.785 51.2007C215.962 51.4726 214.996 50.7994 212.957 51.1732" stroke="white" stroke-linecap="round" stroke-linejoin="round"/>
<path d="M164.09 57.6055C167.396 63.9219 168.021 66.212 173.354 68.8463C174.794 69.5572 176.673 68.5712 177.765 69.1258C179.927 70.2232 184.199 70.2461 185.813 68.2542C189.057 64.249 190.251 61.6639 195.222 59.2276C198.358 57.6906 200.881 54.0641 202.332 51.058C203.927 47.754 206.799 45.2644 208.483 41.9478C209.2 40.5356 203.412 36.8982 203.36 34.4551C203.345 33.7623 196.473 33.7416 195.33 33.1611C193.945 32.4578 193.309 31.4665 192.645 30.0026C191.674 27.8645 189.952 30.5193 187.343 30.7219" stroke="white" stroke-linecap="round" stroke-linejoin="round"/>
<path d="M49.6309 137.731C57.4381 140.698 64.2465 144.524 71.2755 148.759C77.378 152.435 84.2743 154.394 90.3381 157.958C94.655 160.495 99.135 166.286 102.321 170.09C103.383 171.357 104.175 172.543 104.928 173.972C106.656 177.249 104.859 169.326 104.676 168.458" stroke="white" stroke-linecap="round" stroke-linejoin="round"/>
<path d="M125.023 78.1628C127.188 80.436 135.955 92.9854 134.226 83.5526" stroke="white" stroke-linecap="round" stroke-linejoin="round"/>
<path d="M326 95.8663H326.5C326.5 95.8469 326.499 95.8275 326.497 95.8082L326 95.8663ZM302.944 110.755L302.858 111.248L302.944 110.755ZM221.267 51.0029C227.842 46.8606 238.636 43.0513 249.638 45.0466C260.596 47.0341 271.871 54.8012 279.422 74.0263L280.353 73.6607C272.699 54.1752 261.177 46.123 249.816 44.0626C238.499 42.0101 227.452 45.9243 220.733 50.1568L221.267 51.0029ZM280.26 74.1767C282.797 71.3378 286.691 69.7701 291.206 69.4147C295.719 69.0596 300.812 69.9205 305.677 71.8924C315.415 75.8394 324.129 84.1826 325.503 95.9245L326.497 95.8082C325.067 83.6003 316.021 75.0057 306.052 70.9656C301.064 68.9438 295.816 68.0488 291.128 68.4178C286.443 68.7865 282.274 70.4228 279.514 73.5103L280.26 74.1767ZM325.5 95.8663C325.5 99.7726 322.474 103.811 318.055 106.68C313.654 109.538 308.017 111.133 303.03 110.262L302.858 111.248C308.152 112.172 314.043 110.478 318.6 107.519C323.138 104.572 326.5 100.269 326.5 95.8663H325.5ZM303.03 110.262C280.492 106.327 273.05 86.6964 280.32 74.0933L279.454 73.5936C271.769 86.9141 279.773 107.217 302.858 111.248L303.03 110.262ZM279.834 74.3407C282.699 74.6463 287.292 75.6124 291.717 77.5132C296.151 79.4184 300.34 82.2298 302.505 86.1808L303.382 85.7003C301.06 81.4625 296.629 78.5355 292.111 76.5944C287.583 74.649 282.891 73.6611 279.94 73.3463L279.834 74.3407Z" fill="white"/>
</svg>
