<svg width="50" height="55" viewBox="0 0 50 55" fill="none" xmlns="http://www.w3.org/2000/svg">
<path d="M20.9232 8.62023C13.3637 10.0714 7.86798 12.2538 3.07673 18.414C0.0403653 22.3179 0.706121 28.4627 2.69586 32.6014C5.97436 39.4206 14.0329 43.2714 21.304 43.6058C29.7742 43.9952 41.5493 41.5063 43.2856 31.4043C44.2164 25.989 39.0428 20.869 36.6204 16.428C34.6498 12.8152 31.6821 7.9449 27.534 6.41663C25.8407 5.79279 21.9103 6.00937 20.6783 7.69526C20.1279 8.44841 19.4195 9.24335 19.0188 10.0893C18.6941 10.7747 19.0427 8.34511 18.9644 7.64085" stroke="black" stroke-linecap="round" stroke-linejoin="round"/>
<path d="M24.1052 27.2285C22.0653 28.2768 18.7551 28.9718 20.5414 31.2684C20.9484 31.7918 21.5293 31.7632 22.0241 31.2684C22.447 30.8455 24.5796 28.6244 23.0034 28.0991C19.7907 27.0282 20.9654 33.4388 23.2619 30.6019C24.4953 29.0783 22.7689 27.5787 21.2215 28.5071C19.3779 29.6133 20.8364 31.5449 22.2825 29.8674C23.3723 28.6032 22.5021 27.6346 21.3167 28.82C20.255 29.8818 21.3335 31.5753 22.3777 30.1394C23.4488 28.6668 22.2275 27.4195 20.9359 28.7112C19.4407 30.2063 21.0591 30.0493 22.1193 29.0648C23.1881 28.0723 21.2926 28.2189 20.6774 28.9968C19.2485 30.804 21.4867 30.547 21.8472 28.9968C22.3768 26.7197 20.0276 31.9515 21.1671 27.963" stroke="black" stroke-linecap="round" stroke-linejoin="round"/>
<path d="M15.7803 19.6382C17.9551 22.508 20.1841 25.2293 22.0102 28.0989C22.5163 28.8942 22.1123 29.6923 22.3911 29.6768C23.4214 29.6196 24.4765 29.432 25.574 29.432C28.0855 29.432 30.0635 28.2077 32.4841 28.2077C35.4153 28.2077 39.7217 27.4466 34.8781 25.0248" stroke="black" stroke-linecap="round" stroke-linejoin="round"/>
<path d="M13.3333 8.37554C12.876 6.06062 10.641 0.449337 14.8024 1.04382C16.2955 1.25713 17.2973 2.80189 18.1758 3.77791C20.4611 6.31719 20.2167 9.38209 16.5163 9.59976C15.5469 9.65678 14.1821 11.579 13.0884 10.2119C11.8501 8.66393 13.1143 8.76795 13.3333 6.90648C13.4766 5.68857 12.6819 5.78965 12.3403 4.59406C12.0783 3.67691 12.6226 2.67267 12.8436 2.00959" stroke="black" stroke-linecap="round" stroke-linejoin="round"/>
<path d="M14.8013 5.68257C14.7795 6.2674 13.8777 11.5371 15.7942 10.6747C16.436 10.3859 16.9901 9.96606 17.2497 9.30083C17.5013 8.65623 17.2339 8.27118 16.9505 7.64133C16.2202 6.01854 14.1018 3.49632 14.7469 7.15164C15.1539 9.45799 17.7296 8.91901 17.9298 6.71636C18.0828 5.03429 15.9617 2.78077 14.6108 4.70319C13.6553 6.06296 15.3571 9.06154 16.3519 6.9612C16.8571 5.89476 15.6492 3.18373 14.366 4.51276C13.0503 5.87541 15.0276 8.74988 16.3247 7.58692C17.6073 6.437 16.7356 2.92919 15.3454 4.26792C14.0737 5.49247 15.9817 7.92919 16.9505 6.06344C18.0311 3.98229 15.6505 2.41415 14.9101 4.59437C14.249 6.54079 16.3104 8.63435 16.7872 5.98183C17.1502 3.96283 13.441 2.88935 13.441 5.3017C13.441 7.52403 15.427 7.29666 15.427 5.2745C15.427 3.1668 13.3045 3.64126 14.1892 5.41052C15.0738 7.17988 16.2597 4.03967 15.2638 3.04369C14.1011 1.88107 12.562 3.67855 13.9307 4.79841C14.8637 5.56176 16.1393 2.39433 14.57 1.80587C13.2148 1.29766 13.9644 4.06433 14.434 3.43817C15.162 2.46755 14.0461 1.81771 14.8149 2.00991C15.4924 2.17928 17.1385 2.54123 17.6034 3.13891C17.9693 3.60937 19.4533 6.22718 19.4533 6.90679C19.4533 8.98659 16.2724 10.1078 14.4476 9.58648C13.138 9.2123 12.7505 10.1375 13.2098 9.83132C14.3239 9.08858 14.5564 7.15133 14.5564 7.88617" stroke="black" stroke-linecap="round" stroke-linejoin="round"/>
<path d="M14.5577 43.3887C13.297 46.0634 12.1781 48.7506 10.6946 51.2781C10.3605 51.8473 9.73448 53.0089 9.66079 53.6721C9.46231 55.4584 11.2565 49.412 11.6195 48.5304" stroke="black" stroke-linecap="round" stroke-linejoin="round"/>
<path d="M39.2861 38.2461C42.387 42.1616 45.8061 44.9538 48.2229 49.2505C48.461 49.6736 48.8735 50.0099 49.2023 50.3387C50.3023 51.4387 47.1606 47.9912 46.1418 46.8156" stroke="black" stroke-linecap="round" stroke-linejoin="round"/>
</svg>
