<svg width="60" height="91" viewBox="0 0 60 91" fill="none" xmlns="http://www.w3.org/2000/svg">
<path d="M13.5723 67.5258C17.7198 60.0086 17.4751 57.861 16.5292 50.2943C16.0084 46.1275 15.8092 42.0563 14.7551 37.957C12.8701 30.6263 12.2583 20.7549 18.1606 14.8525C29.7746 3.23855 51.4028 19.7556 44.8541 34.4903C42.3617 40.0982 38.055 44.2502 34.9435 49.5398C33.6956 51.6612 32.9967 53.9607 31.3748 55.943C29.8194 57.844 27.8877 60.21 27.8877 62.5705C27.8877 64.5644 28.4822 67.1498 27.072 68.9125C25.124 71.3476 25.8165 70.0952 22.9324 70.0952C20.9498 70.0952 18.0261 68.5194 16.4273 67.2403C15.2857 66.3271 14.6735 68.9684 14.6735 66.4246C14.6735 64.241 15.3764 66.0576 13.9394 66.0576" stroke="black" stroke-linecap="round" stroke-linejoin="round"/>
<path d="M22.7483 74.4996C18.8229 73.3292 7.95739 70.7156 10.4722 73.949C13.5064 77.8501 14.804 75.895 18.5271 76.7223C20.4311 77.1454 22.2874 83.0218 20.1789 83.1459C17.1675 83.323 15.1706 79.2713 12.1036 79.2713C9.31208 79.2713 9.51202 82.9451 11.1859 84.2471C13.3964 85.9663 15.9383 84.1183 17.426 86.7961C19.7769 91.0278 13.3552 90.3393 11.5326 89.3451C9.69635 88.3435 7.94937 86.7796 6.59766 85.8784" stroke="black" stroke-linecap="round" stroke-linejoin="round"/>
<path d="M13.5723 66.332C13.6222 66.6516 13.6742 68.8097 14.5358 68.8097C14.9997 68.8097 15.2131 68.5283 15.637 68.7638C16.1355 69.0407 16.603 69.6926 17.0797 70.074C17.4999 70.4102 18.7469 70.3686 18.9864 70.7877C19.3777 71.4725 20.1721 71.8473 20.9135 71.9297C21.8748 72.0365 22.2303 72.5191 23.2535 72.2917C23.5663 72.2222 23.5978 72.0215 23.8908 72.0215C24.3431 72.0215 24.5383 72.2378 24.8798 71.8583C25.2578 71.4384 25.8753 71.2417 26.0574 70.6042C26.3051 69.7375 27.2129 69.2815 25.8688 69.8191" stroke="black" stroke-linecap="round" stroke-linejoin="round"/>
<path d="M31.2834 29.9932C29.6415 30.002 28.2845 30.1078 27.7249 31.8489C27.3442 33.0335 27.3375 34.1976 27.3375 35.4277C27.3375 36.6236 28.0716 37.5851 28.0716 38.7109C28.0716 40.1989 26.8815 39.9553 25.8743 40.4085C24.9229 40.8367 24.2335 41.1943 23.7178 42.1521C23.2071 43.1005 23.593 44.9344 23.6618 45.9654C23.7209 46.8526 24.1428 48.7382 23.5292 49.4882C23.1958 49.8957 21.3737 50.5249 22.5657 49.6309" stroke="black" stroke-linecap="round" stroke-linejoin="round"/>
<path d="M45.1396 46.6025C46.4544 47.476 47.7942 48.2079 49.264 48.759C49.8802 48.9901 50.6916 49.4024 50.5538 48.4378" stroke="black" stroke-linecap="round" stroke-linejoin="round"/>
<path d="M49.9102 33.9392C52.2401 34.5001 54.5542 35.1323 56.8639 35.7541C57.2481 35.8576 56.3664 34.8863 56.3337 34.8569" stroke="black" stroke-linecap="round" stroke-linejoin="round"/>
<path d="M50.5527 21.9177C52.9656 21.567 55.3712 21.1318 57.7716 20.7044C58.8767 20.5076 59.3446 20.6525 58.7198 19.7153" stroke="black" stroke-linecap="round" stroke-linejoin="round"/>
<path d="M37.5225 9.1628C39.4288 8.8278 41.0812 8.505 42.8041 7.64357C43.6105 7.24035 44.3869 6.75571 45.2307 6.43023C46.2335 6.04347 46.254 6.16122 45.139 5.49219" stroke="black" stroke-linecap="round" stroke-linejoin="round"/>
<path d="M20.9133 0.903809C20.6351 2.85143 20.7271 4.01792 21.5149 5.78266C21.9396 6.73402 22.2989 7.93648 22.509 8.96386C22.5814 9.31766 22.6217 9.51905 22.8608 9.78465C22.9503 9.88407 22.6219 8.70218 22.5651 8.52033" stroke="black" stroke-linecap="round" stroke-linejoin="round"/>
<path d="M6.87402 8.70361C7.48321 10.7318 8.35151 12.6774 8.87247 14.7091C9.13603 15.737 8.97125 15.7995 8.5258 14.7601" stroke="black" stroke-linecap="round" stroke-linejoin="round"/>
<path d="M1 23.2947C3.0849 25.0992 4.79474 27.3391 6.41415 29.5551C6.6171 29.8328 6.85174 29.9315 7.0769 30.1567C7.58842 30.6682 6.7054 29.5128 6.59768 29.3512" stroke="black" stroke-linecap="round" stroke-linejoin="round"/>
</svg>
