<svg width="72" height="59" viewBox="0 0 72 59" fill="none" xmlns="http://www.w3.org/2000/svg">
<path d="M8.27246 39.9547C12.1373 30.8415 10.5544 22.9007 10.5544 13.4564C10.5544 11.6192 10.221 6.02278 12.1517 5.02116C15.1966 3.44153 18.0419 2.38748 21.6344 2.38748C24.0228 2.38748 26.4225 2.45629 28.8098 2.38748C31.1975 2.31866 33.5104 1.34739 35.8711 1.05822C40.2636 0.520175 44.8322 1.26941 49.1697 1.26941C52.6136 1.26941 56.1764 1.71664 59.4891 1.71664C60.0772 1.71664 62.4749 1.99706 62.8613 2.33779C64.0437 3.38059 63.705 5.05293 64.6361 5.96531" stroke="black" stroke-linecap="round" stroke-linejoin="round"/>
<path d="M64.409 6.77295C64.5593 9.46225 64.6157 13.2361 65.7221 15.8639C66.4391 17.5667 65.8674 19.833 66.0125 21.6467C66.2911 25.1282 65.7726 28.5216 65.7726 31.8992C65.7726 36.4302 65.9999 40.9031 65.9999 45.4093C65.9999 49.2771 62.2208 48.6295 59.2322 48.0861C56.6504 47.6167 53.1858 48.5579 50.4949 48.5911C45.3036 48.6552 40.0881 49.0457 34.8888 49.0457C30.5464 49.0457 27.3219 47.7847 23.3231 46.2679C21.1878 45.4579 19.8971 45.6366 17.6034 45.6366C15.4311 45.6366 13.6447 45.297 11.4671 45.9775C10.193 46.3756 7.91144 46.0319 7.18677 44.7275C6.31782 43.1634 8.04536 42.4851 8.04536 41.2048C8.04536 40.1298 7.91023 37.0556 8.27263 39.9548" stroke="black" stroke-linecap="round" stroke-linejoin="round"/>
<path d="M34.1815 12.6818C34.1815 12.6818 35.0906 13.1363 35.9997 14.0454C36.9088 14.7273 38.8224 14.3864 40.4315 14.3864C41.2782 14.3864 42.1723 13.7263 42.9315 13.3889C44.4695 12.7054 43.5522 13.991 43.184 14.7273C42.7765 15.5423 43.2419 17.0576 43.9795 17.5682C45.1964 18.4107 46.4004 17.6835 47.5906 17.0884C48.0847 16.8414 47.949 16.7267 48.102 17.0632C48.3093 17.5194 48.2724 18.1814 48.2724 18.6793C48.2724 19.8123 48.198 21.6947 47.5906 22.6818C46.7915 23.9803 45.9841 24.8207 44.6992 25.7753C43.4298 26.7183 41.7527 28.3637 40.0653 28.3637C36.7681 28.3637 33.2683 27.6451 31.6184 24.4369C30.919 23.077 29.636 21.9635 29.636 20.4091C29.636 19.1121 29.2069 17.5579 29.636 16.3181C30.1562 14.8153 31.4542 13.3889 30.9997 13.3889C31.2314 13.4551 33.2724 12.2272 34.1815 12.6818Z" stroke="black" stroke-linecap="round" stroke-linejoin="round"/>
<path d="M37.9309 11.8869C39.2095 11.4136 42.1299 10.4221 42.8173 8.87553C43.3485 7.68026 41.5926 7.45508 40.6582 7.45508C39.5249 7.45508 38.1819 9.02136 37.8804 10.0119C37.7128 10.5627 37.5534 11.1265 37.388 11.6849C37.3082 11.9541 37.4147 12.1492 37.4701 12.3983C37.5122 12.588 39.2461 11.6776 39.1809 11.4169" stroke="black" stroke-linecap="round" stroke-linejoin="round"/>
<path d="M64.8682 37.3617L6.86825 38.6356C3.60667 38.7072 1 41.3718 1 44.6342V52.1361C1 55.4499 3.68629 58.1361 7 58.1361H65C68.3137 58.1361 71 55.4499 71 52.1361V43.3603C71 39.995 68.2327 37.2878 64.8682 37.3617Z" fill="white" stroke="black"/>
<path d="M21.5996 38.2801C22.3544 39.4505 23.0061 40.855 23.8722 41.9377C24.3078 42.4822 24.2379 42.3715 25.0824 42.0587C26.4922 41.5366 28.0895 41.9108 29.5603 41.9108C30.8515 41.9108 32.3528 41.2367 33.6079 41.5746C35.0617 41.966 36.7757 41.2187 38.2068 41.1846C39.9311 41.1436 41.5748 41.3057 43.2898 41.3057C44.3237 41.3057 45.3315 40.7005 46.2885 40.7005C46.8436 40.7005 48.4262 41.1406 48.4669 40.1223C48.4867 39.6263 48.7089 39.1445 48.7089 38.6431C48.7089 37.965 48.3031 38.2587 47.6197 37.917" stroke="black" stroke-linecap="round" stroke-linejoin="round"/>
</svg>
