<svg width="410" height="126" viewBox="0 0 410 126" fill="none" xmlns="http://www.w3.org/2000/svg">
<path d="M0.999023 27.6031C24.1502 53.3165 29.999 51.1031 19.999 17.1031C37.6307 21.3072 48.5703 22.0343 69.249 21.6031M68.499 21.6031C68.7481 21.6031 68.9981 21.6031 69.249 21.6031M387.499 8.60309C374.808 13.2488 368.103 17.9316 356.499 30.1031C355.488 30.6757 336.569 66.1897 330.499 90.1031C330.499 90.1031 326.941 103.032 328.499 113.103C328.974 120.047 330.598 121.737 334.499 123.103C343.094 126.316 347.902 125.937 356.499 123.103L364.499 118.103L375.499 110.603L396.499 93.1031C396.499 93.1031 406.335 83.3631 408.999 74.1031C408.999 74.1031 409.453 61.0095 405.499 56.6031C399.109 49.8247 395.1 49.0466 387.499 50.6031C378.784 54.4384 375.645 57.2916 370.999 65.6031C370.695 67.3309 370.62 68.519 370.999 71.6031C371.941 74.2998 375.068 77.5104 375.499 71.6031C375.705 61.0111 374.17 52.0718 366.499 55.6031L360.499 61.1031L345.999 72.6031L336.499 78.6031L330.499 82.6031L323.499 83.1031L314.499 82.6031L306.499 81.6031C306.499 81.6031 291.58 78.9597 283.499 71.6031L271.999 54.1031C271.999 54.1031 261.233 35.8686 250.499 21.6031L241.999 11.6031C224.164 -3.99066 222.495 -2.55127 233.499 17.1031C236.266 22.8438 238.741 25.522 243.499 30.1031C249.851 34.4813 253.98 36.2535 261.999 38.1031C266.352 39.812 322.499 35.1031 322.499 35.1031C322.499 35.1031 336.499 33.1031 322.499 30.1031C308.499 27.1031 221.188 27.1198 159.499 21.6031C159.499 21.6031 105 21.6031 69.249 21.6031" stroke="black"/>
</svg>
