<svg width="47" height="37" viewBox="0 0 47 37" fill="none" xmlns="http://www.w3.org/2000/svg">
<path d="M8.51782 3.55433C15.4357 3.84605 22.9472 3.42157 29.837 2.57214C33.5236 2.11763 37.2421 2.02064 40.8865 1.45997C41.4001 1.38095 43.0389 0.596929 43.2987 1.2722C43.7086 2.33804 43.7953 3.86054 43.7464 4.98427C43.6045 8.24859 44.0067 11.8105 44.7142 14.9939C45.2753 17.519 45.6963 19.6239 45.6963 22.2158C45.6963 23.6335 46.4511 25.9645 45.5808 27.0834C43.1545 30.203 37.8326 31.4773 34.1412 32.4132C28.717 33.7883 23.352 35.2157 17.7475 35.5186C14.271 35.7065 10.926 35.0131 7.49231 35.0131C4.32948 35.0131 4.63032 34.9482 3.52024 31.951C2.42688 28.9989 2.27807 26.3407 2.27807 23.1691C2.27807 21.5181 1.55175 19.7108 1.10811 18.1137C0.772103 16.9041 1.31089 15.4232 1.48366 14.2139C1.66485 12.9455 3.56704 10.0343 2.92804 8.88412C2.30173 7.75676 1.96954 5.82723 3.00026 4.7965C3.84187 3.95489 16.2361 2.94038 4.87797 5.37426" stroke="white" stroke-linecap="round" stroke-linejoin="round"/>
<path d="M2.79688 6.67433C4.23977 8.61321 5.3836 10.9101 6.84116 12.7841C7.3256 13.4069 8.4844 13.9465 8.77664 14.604C9.56783 16.3842 14.1231 17.9482 15.7964 19.0238C17.6851 20.2381 21.5716 25.5981 24.246 22.9237C29.2734 17.8963 34.4484 12.9813 39.4554 7.97427C40.4014 7.02825 40.7293 5.77599 41.5931 4.91217C44.2227 2.28257 39.8457 2.51449 38.4155 2.51449" stroke="white" stroke-linecap="round" stroke-linejoin="round"/>
</svg>
