<svg width="175" height="164" viewBox="0 0 175 164" fill="none" xmlns="http://www.w3.org/2000/svg">
<path d="M25.3125 113.859C21.8012 107.611 15.4652 100.814 15.7672 93.1943C15.9077 89.6493 16.6087 85.9794 17.9214 82.6726C18.9258 80.1425 21.5477 77.9635 23.5968 76.2761C26.0184 74.2819 27.6045 71.7871 30.8405 71.0802C34.3163 70.321 38.0293 74.6272 40.1896 76.7811C45.7179 82.2927 50.7011 88.2203 55.0895 94.6634C55.7129 95.5787 56.3418 96.5431 56.8516 97.5274C57.1292 98.0636 58.3436 99.3532 57.8152 99.0611C57.1741 98.7068 56.1671 99.5377 55.6976 99.8787C54.0011 101.111 52.186 101.941 50.4237 103.048C50.0238 103.299 48.7661 104.479 48.2742 103.842C47.2245 102.483 46.2157 101.101 45.2354 99.6865C43.1872 96.7319 41.2171 93.8748 38.4989 91.5267C36.2336 89.5699 33.575 84.3901 29.9847 84.9751C28.804 85.1675 27.0354 87.0731 26.3871 88.0337C25.3495 89.5714 24.359 91.25 24.3863 93.1751C24.4496 97.6422 27.7591 100.03 30.7437 102.797C32.1013 104.055 33.1954 105.618 34.4164 107.003C35.3476 108.059 36.5666 109.058 37.1316 110.38C38.2599 113.02 34.0713 115.987 32.151 117.213C32.0046 117.307 28.061 119.888 27.9061 119.83C27.6238 119.725 26.33 117.061 26.0037 116.561C25.4559 115.72 24.9444 114.596 24.7392 113.618C24.4951 112.455 23.4583 111.643 23.3502 111.109" stroke="black" stroke-width="1.5" stroke-linecap="round" stroke-linejoin="round"/>
<path d="M63.341 56.6957C59.2189 57.5262 48.5893 61.9902 50.5425 68.4248C50.9822 69.8735 51.9668 71.0013 52.7812 72.2477C54.1566 74.3528 55.5218 76.4152 56.7614 78.6063C58.2038 81.156 60.3665 84.7299 63.0528 86.0799C65.6326 87.3763 69.2692 88.9951 72.1905 88.871C76.9278 88.6698 80.0474 85.0447 80.8276 80.343C81.4919 76.3391 82.6086 70.7264 79.3327 67.5658C77.8734 66.1579 76.0697 65.1958 74.3224 64.2017C72.4997 63.1649 71.1057 61.609 69.1031 60.896C67.8562 60.4521 64.6247 59.2964 63.7576 58.1738C62.4134 56.4334 64.291 55.6002 61.6488 57.9306" stroke="black" stroke-width="1.5" stroke-linecap="round" stroke-linejoin="round"/>
<path d="M95.2111 47.2223C91.3166 48.5041 84.8162 49.5592 84.1641 54.6367C84.0192 55.7648 83.9229 56.7735 84.1548 57.8899C84.3866 59.006 85.9588 60.4216 86.6263 61.3928C87.6371 62.8635 88.9548 64.0549 90.173 65.3554C92.9831 68.3555 98.6806 69.705 102.515 68.9085C106.004 68.1839 108.19 65.3896 109.395 62.2971C110.716 58.9032 110.47 55.8237 109.2 52.4933C108.33 50.211 107.147 46.8076 105.46 44.9242C103.548 42.7895 102.276 39.9289 100.365 37.778C97.9705 35.0841 95.9402 31.996 93.9007 29.0286C93.1196 27.8922 91.2931 21.7302 89.5181 22.2008C87.9416 22.6187 86.771 24.6073 85.5296 25.6013C84.0896 26.7545 82.8382 27.0709 84.2618 28.8486C85.259 30.0939 85.633 31.8113 86.6792 32.9974C87.988 34.4812 89.2591 36.7292 90.298 38.4272C91.0486 39.6537 92.1516 41.9215 93.2654 42.8491C93.9682 43.4344 94.393 45.296 94.8399 46.159C95.0336 46.533 95.1975 46.8495 95.3892 47.2197C95.6551 47.7332 95.1388 46.5766 94.7717 46.3737" stroke="black" stroke-width="1.5" stroke-linecap="round" stroke-linejoin="round"/>
<path d="M99.3763 54.5716C95.8741 54.9936 92.1864 55.3699 92.9011 59.5389C93.1651 61.0795 94.3014 62.4639 95.8566 62.8411C97.0814 63.1381 98.9475 63.3366 100.21 63.1079C101.51 62.8721 102.063 61.2701 102.663 60.3029C103.727 58.5861 103.186 53.9066 100.674 53.4411C99.7145 53.2633 99.5574 53.641 99.1605 54.4242C98.5085 55.7112 99.2659 54.867 98.4444 54.1574" stroke="black" stroke-width="1.5" stroke-linecap="round" stroke-linejoin="round"/>
<path d="M119.638 39.246C124.673 36.084 130.177 33.2741 134.84 29.5407C135.427 29.0704 136.018 29.3261 135.376 28.5754C133.276 26.1172 130.395 22.309 127.285 21.1274C123.019 19.5068 118.303 21.3622 114.959 24.092C112.951 25.7318 111.793 26.8403 111.312 29.4981C110.73 32.7182 110.408 36.5807 111.675 39.7229C115.157 48.3592 129.081 54.1582 135.176 45.1995C136.579 43.1377 137.788 40.4445 138.522 38.0366C138.737 37.3302 138.679 36.6623 138.643 35.9414C138.583 34.7817 137.971 35.5482 136.9 35.8672" stroke="black" stroke-width="1.5" stroke-linecap="round" stroke-linejoin="round"/>
<path d="M118.118 32.5003C119.289 29.4159 119.467 28.1272 121.955 26.7472C122.471 26.4612 123.202 25.4656 123.73 26.3659C124.288 27.317 124.982 28.1987 125.527 29.1423C125.613 29.2912 126.372 30.1919 126.278 30.2477C125.681 30.603 124.863 30.8595 124.196 31.0568C122.795 31.4718 121.469 32.7384 120.126 33.4335C119.139 33.9445 119.296 32.507 118.687 32.3854C118.196 32.2876 118.477 32.5813 118.129 33.2125" stroke="black" stroke-width="1.5" stroke-linecap="round" stroke-linejoin="round"/>
<path d="M119.717 39.7432C121.527 42.1331 124.763 46.4247 127.665 42.6225C129.154 40.6704 130.705 39.3239 131.689 37.0409C131.987 36.35 133.715 34.696 134.503 35.046C134.839 35.1954 135.483 35.5468 135.935 35.56C137.323 35.6007 135.881 35.2416 135.115 35.536" stroke="black" stroke-width="1.5" stroke-linecap="round" stroke-linejoin="round"/>
<path d="M63.2002 66.8129C61.7212 66.8848 59.0503 66.1555 58.2681 67.8523C57.8661 68.7244 57.9755 69.5024 58.5633 70.2503C59.1319 70.9739 59.8594 71.4448 60.2857 72.2679C60.8176 73.2952 61.6133 74.784 62.6254 75.4008C64.6998 76.665 66.2869 77.9713 67.9174 79.6552C70.484 82.306 74.4515 81.312 75.1446 77.4871C75.6763 74.5533 76.0921 72.0875 73.6662 69.7831C72.6278 68.7966 69.9481 69.3774 68.5933 69.2613C67.2098 69.1427 66.0659 68.5723 64.8014 68.0961C62.9826 67.4112 62.4746 66.1192 63.5184 69.1591" stroke="black" stroke-width="1.5" stroke-linecap="round" stroke-linejoin="round"/>
<path d="M112.158 122.15C114.618 121.684 117.049 120.908 119.494 120.745C119.777 120.726 119.579 119.297 119.832 118.743C120.717 116.808 121.459 114.757 122.887 113.195C123.866 112.125 123.959 110.668 124.826 109.527C125.439 108.72 125.951 107.759 126.347 106.823C126.634 106.145 126.524 105.424 126.873 104.787C127.683 103.307 128.264 102.026 129.407 100.772C129.754 100.391 129.832 99.961 129.917 99.4572C130.014 98.88 129.996 99.0636 129.477 98.4904C127.903 96.7505 126.543 94.8264 124.985 93.0837C123.37 91.2777 121.954 89.1876 120.608 87.1848C119.771 85.9388 118.612 84.9283 117.901 83.5949C117.476 82.7971 117.041 82.0504 116.536 81.2984C115.521 79.7865 115.111 80.8504 113.319 81.5668C111.997 82.0954 110.551 82.0173 109.156 82.1094C108.382 82.1604 107.584 81.8412 106.828 81.9904C105.639 82.225 104.638 82.2368 103.421 82.084C101.268 81.8135 98.7033 81.9307 96.8233 80.7726C96.1755 80.3735 94.9821 79.7488 94.2193 80.2612C93.4127 80.803 93.9809 81.2542 93.8572 82.305C93.5587 84.8418 92.3862 87.1872 90.5944 88.9915C90.3563 89.2313 90.2958 89.486 90.1932 89.7933C89.8628 90.7829 89.231 91.6677 88.6853 92.5476C87.8586 93.8808 87.5355 95.7897 86.516 96.9685C86.1103 97.4376 85.438 97.8065 85.2078 98.4058C85.0688 98.7677 84.9388 99.1597 84.6652 99.4471C83.9647 100.183 83.697 101.166 83.1793 101.99C83.0221 102.24 84.9588 109.768 85.5594 110.287C86.333 110.956 87.2359 111.578 87.9373 112.331C88.5427 112.98 89.0034 113.918 89.5008 114.658C89.9969 115.397 90.5346 116.15 91.0925 116.842C91.6407 117.522 92.4225 118.648 93.1459 119.116C93.8698 119.585 94.4431 120.162 94.7455 120.96C95.4126 122.72 97.3391 124.39 98.2542 125.753C98.7498 126.49 98.3404 128.001 99.3218 127.342C99.8528 126.985 101.502 124.818 101.921 124.354C102.402 123.821 103.033 123.369 103.454 122.792C103.752 122.384 104.163 121.992 104.646 121.846C104.943 121.757 105.533 121.633 105.716 121.365C106.331 120.464 106.989 113.798 106.364 112.82C104.921 110.564 102.776 108.816 100.925 106.925C99.5019 105.47 99.1018 103.262 97.5415 101.877C96.7551 101.18 96.4368 99.5932 95.4293 99.2613C95.0697 99.1428 94.1873 99.085 94.1595 98.7014C94.1353 98.3671 94.0763 98.2253 93.8815 97.9353C93.4917 97.355 94.1689 99.3272 94.5148 99.9347" stroke="black" stroke-width="1.5" stroke-linecap="round" stroke-linejoin="round"/>
<path d="M114.634 90.4416C113.196 88.838 112.066 88.0971 109.888 88.3067C109.367 88.3568 108.867 88.2849 108.345 88.3968C107.296 88.6216 106.637 89.3656 105.806 89.9776C104.323 91.0704 100.796 94.7395 102.141 96.8487C102.42 97.2861 102.621 98.1029 103.094 98.3644C104.779 99.2958 107.068 97.1828 108.536 96.6145C110.49 95.858 112.48 95.3661 114.356 94.4201C116.331 93.4239 118.992 93.8546 119.891 96.0182C120.458 97.3802 120.414 99.1373 119.698 100.446C119.302 101.17 118.388 101.597 117.901 102.271C117.112 103.361 115.303 103.758 114.074 104.125C112.905 104.475 111.843 104.822 110.602 104.65C110.224 104.598 109.383 104.106 109.125 104.183C108.327 104.424 108.55 103.608 108.579 103.262" stroke="black" stroke-width="1.5" stroke-linecap="round" stroke-linejoin="round"/>
<path d="M123.876 69.6855C122.19 70.7443 121.303 71.7054 120.864 73.6539C120.719 74.2997 120.441 74.9332 120.831 75.5422C122.153 77.6056 125.235 77.4713 127.095 76.2768C128.919 75.105 129.354 72.1633 127.345 70.8777C126.856 70.5647 125.389 70.0932 124.866 70.493C124.454 70.8078 124.386 71.4961 124.063 71.8998C123.869 72.142 124.41 72.1253 124.593 72.1612" stroke="black" stroke-width="1.5" stroke-linecap="round" stroke-linejoin="round"/>
</svg>
