<svg width="97" height="148" viewBox="0 0 97 148" fill="none" xmlns="http://www.w3.org/2000/svg">
<path d="M21.5927 110.123C28.3859 97.8103 27.9851 94.2928 26.4359 81.8989C25.5827 75.0739 25.2565 68.4055 23.5299 61.6911C20.4424 49.6838 19.4403 33.515 29.108 23.8473C48.1311 4.82418 83.5569 31.8783 72.8305 56.0128C68.748 65.1983 61.6939 71.999 56.5974 80.6631C54.5534 84.1378 53.4086 87.9043 50.7521 91.1511C48.2045 94.2649 45.0405 98.1402 45.0405 102.007C45.0405 105.273 46.0142 109.507 43.7044 112.394C40.5136 116.383 41.6479 114.332 36.9239 114.332C33.6765 114.332 28.8877 111.751 26.2689 109.656C24.3991 108.16 23.3963 112.486 23.3963 108.319C23.3963 104.743 24.5476 107.718 22.1939 107.718" stroke="white" stroke-linecap="round" stroke-linejoin="round"/>
<path d="M36.6229 121.546C30.1933 119.629 12.3961 115.348 16.5152 120.644C21.4851 127.034 23.6105 123.831 29.7088 125.186C32.8273 125.879 35.8679 135.505 32.4143 135.708C27.4818 135.998 24.211 129.362 19.1873 129.362C14.615 129.362 14.9425 135.379 17.6843 137.512C21.3049 140.328 25.4684 137.301 27.9051 141.687C31.7558 148.618 21.2374 147.49 18.2521 145.862C15.2444 144.221 12.383 141.66 10.1689 140.184" stroke="white" stroke-linecap="round" stroke-linejoin="round"/>
<path d="M21.5928 108.168C21.6746 108.691 21.7597 112.226 23.171 112.226C23.9309 112.226 24.2804 111.765 24.9747 112.151C25.7912 112.605 26.5569 113.672 27.3378 114.297C28.026 114.848 30.0686 114.78 30.4609 115.466C31.1018 116.588 32.4029 117.202 33.6173 117.337C35.1918 117.512 35.7741 118.302 37.4501 117.93C37.9624 117.816 38.0141 117.487 38.4939 117.487C39.2348 117.487 39.5545 117.841 40.1139 117.22C40.733 116.532 41.7445 116.21 42.0428 115.166C42.4484 113.746 43.9354 112.999 41.7338 113.88" stroke="white" stroke-linecap="round" stroke-linejoin="round"/>
<path d="M50.6027 48.6468C47.9134 48.6613 45.6907 48.8346 44.7741 51.6863C44.1505 53.6266 44.1395 55.5334 44.1395 57.5482C44.1395 59.5071 45.342 61.082 45.342 62.9259C45.342 65.3632 43.3927 64.9641 41.7429 65.7065C40.1845 66.4078 39.0554 66.9936 38.2107 68.5624C37.3742 70.1159 38.0063 73.1197 38.1189 74.8084C38.2158 76.2616 38.9069 79.3501 37.9018 80.5785C37.3556 81.2461 34.3711 82.2766 36.3236 80.8123" stroke="white" stroke-linecap="round" stroke-linejoin="round"/>
<path d="M73.2979 75.852C75.4513 77.2827 77.6459 78.4814 80.0533 79.3842C81.0627 79.7627 82.3916 80.4381 82.1659 78.8581" stroke="white" stroke-linecap="round" stroke-linejoin="round"/>
<path d="M81.1123 55.1102C84.9286 56.029 88.719 57.0644 92.5022 58.083C93.1314 58.2524 91.6873 56.6615 91.6338 56.6133" stroke="white" stroke-linecap="round" stroke-linejoin="round"/>
<path d="M82.165 35.4196C86.1172 34.8452 90.0574 34.1324 93.9891 33.4322C95.7992 33.1099 96.5656 33.3472 95.5423 31.8123" stroke="white" stroke-linecap="round" stroke-linejoin="round"/>
<path d="M60.8213 14.5278C63.9437 13.9791 66.6503 13.4503 69.4723 12.0394C70.7932 11.3789 72.0649 10.5851 73.447 10.052C75.0894 9.41847 75.1231 9.61135 73.2967 8.51551" stroke="white" stroke-linecap="round" stroke-linejoin="round"/>
<path d="M33.6167 1C33.161 4.19009 33.3116 6.10074 34.6021 8.99129C35.2977 10.5496 35.8862 12.5191 36.2304 14.2019C36.3489 14.7814 36.415 15.1113 36.8066 15.5463C36.9531 15.7092 36.4153 13.7733 36.3222 13.4754" stroke="white" stroke-linecap="round" stroke-linejoin="round"/>
<path d="M10.6211 13.7757C11.6189 17.0978 13.0411 20.2845 13.8944 23.6124C14.3261 25.296 14.0562 25.3983 13.3266 23.6959" stroke="white" stroke-linecap="round" stroke-linejoin="round"/>
<path d="M1 37.6751C4.41496 40.6308 7.21557 44.2996 9.86808 47.9294C10.2005 48.3843 10.5848 48.5459 10.9536 48.9147C11.7915 49.7525 10.3451 47.86 10.1687 47.5953" stroke="white" stroke-linecap="round" stroke-linejoin="round"/>
</svg>
