<svg width="410" height="126" viewBox="0 0 410 126" fill="none" xmlns="http://www.w3.org/2000/svg">
<path d="M1 27.5963C24.1512 53.3097 30 51.0963 20 17.0963C37.6317 21.3004 48.5713 22.0275 69.25 21.5963M68.5 21.5963C68.7491 21.5963 68.9991 21.5963 69.25 21.5963M387.5 8.59625C374.809 13.242 368.104 17.9247 356.5 30.0963C355.489 30.6688 336.57 66.1828 330.5 90.0963C330.5 90.0963 326.942 103.025 328.5 113.096C328.975 120.041 330.599 121.73 334.5 123.096C343.095 126.309 347.903 125.93 356.5 123.096L364.5 118.096L375.5 110.596L396.5 93.0963C396.5 93.0963 406.336 83.3563 409 74.0963C409 74.0963 409.454 61.0026 405.5 56.5963C399.11 49.8179 395.101 49.0398 387.5 50.5963C378.785 54.4316 375.646 57.2847 371 65.5963C370.696 67.3241 370.621 68.5122 371 71.5963C371.942 74.2929 375.069 77.5036 375.5 71.5963C375.706 61.0042 374.17 52.065 366.5 55.5963L360.5 61.0963L346 72.5963L336.5 78.5963L330.5 82.5963L323.5 83.0963L314.5 82.5963L306.5 81.5963C306.5 81.5963 291.581 78.9528 283.5 71.5963L272 54.0962C272 54.0962 261.234 35.8617 250.5 21.5963L242 11.5963C224.165 -3.99749 222.496 -2.5581 233.5 17.0963C236.267 22.837 238.742 25.5152 243.5 30.0963C249.852 34.4745 253.981 36.2467 262 38.0963C266.353 39.8052 322.5 35.0963 322.5 35.0963C322.5 35.0963 336.5 33.0963 322.5 30.0963C308.5 27.0963 221.189 27.1129 159.5 21.5963C159.5 21.5963 105.001 21.5963 69.25 21.5963" stroke="white"/>
</svg>
