<svg width="118" height="104" viewBox="0 0 118 104" fill="none" xmlns="http://www.w3.org/2000/svg">
<path d="M7.48954 60.9108C11.9106 71.7148 19.3356 80.4362 26.9858 89.0689C28.8954 91.2237 29.6311 93.9938 31.7092 95.9425C31.967 96.1843 34.7469 99.0331 34.177 99.3119C33.1428 99.8178 31.0892 95.8832 30.7818 95.4375" stroke="black" stroke-width="1.5" stroke-linecap="round" stroke-linejoin="round"/>
<path d="M8.46315 64.6093C9.81142 61.1014 10.838 57.1529 14.7143 55.7375C16.5305 55.0743 19.2875 54.9371 20.8908 56.1948C24.2441 58.8251 25.5452 63.2583 25.7575 67.3121C25.9844 71.6452 24.5323 74.5494 23.7654 78.5688C23.2673 81.18 22.052 82.3867 23.9057 79.5825C25.621 76.9877 27.1447 74.746 30.1621 73.6922C34.3033 72.246 38.8312 71.892 43.0483 73.2945C47.0682 74.6315 49.9289 76.8025 51.9048 80.5891C52.7097 82.1316 54.4055 82.2154 51.9244 81.198" stroke="black" stroke-width="1.5" stroke-linecap="round" stroke-linejoin="round"/>
<path d="M53.3976 66.0045C53.766 65.1182 59.5 54.4349 56.4143 53.3343C55.7913 53.1121 54.7132 53.8881 54.2818 54.2848C53.0108 55.4537 52.4651 57.5145 52.1278 59.1422C51.7302 61.0608 51.118 63.801 51.7105 65.7166C52.4688 68.1681 56.7406 70.2414 58.8356 71.3998C61.3965 72.8158 64.6242 74.3706 67.6266 74.0724C70.9069 73.7465 72.1178 70.0505 70.8903 67.3114C70.5415 66.5329 68.7255 65.2392 69.3984 64.5778" stroke="black" stroke-width="1.5" stroke-linecap="round" stroke-linejoin="round"/>
<path d="M74.7998 47.7419C75.365 49.5071 76.9693 55.2112 78.2827 57.2633C79.9651 59.8919 79.9321 54.5781 79.9218 54.4823C79.7013 52.426 78.5094 50.3807 77.4131 48.659C76.9861 47.9883 76.5584 46.9381 76.0167 46.3735C74.0481 44.3216 79.8657 50.5633 81.8889 52.5614C83.1656 53.8222 86.8324 59.6692 88.4228 56.9412C89.3373 55.3724 87.3116 54.6524 86.3756 53.768" stroke="black" stroke-width="1.5" stroke-linecap="round" stroke-linejoin="round"/>
<path d="M91.9004 35.4799C91.9465 36.2632 92.3123 57.1766 97.754 50.9849C98.6313 49.9867 99.0222 48.133 100.065 47.365C101.271 46.4764 99.6944 46.9179 98.8508 46.2737" stroke="black" stroke-width="1.5" stroke-linecap="round" stroke-linejoin="round"/>
<path d="M95.3467 24.8877C99.1862 30.5194 102.864 36.4269 107.295 41.6319C107.689 42.0943 108.844 43.6387 109.857 43.4865C110.546 43.3831 111.097 42.4687 111.596 42.0481C112.283 41.4694 112.809 40.6493 112.685 39.722C112.332 37.0913 110.795 36.3899 108.326 36.6281" stroke="black" stroke-width="1.5" stroke-linecap="round" stroke-linejoin="round"/>
<path d="M97.0464 35.1889C100.375 32.4911 110.922 25.3782 106.956 27.001C106.462 27.2032 106.026 27.3233 105.499 27.4356" stroke="black" stroke-width="1.5" stroke-linecap="round" stroke-linejoin="round"/>
</svg>
