<svg width="174" height="142" viewBox="0 0 174 142" fill="none" xmlns="http://www.w3.org/2000/svg">
<path d="M34.748 1C25.014 20.4578 -4.74066 78.5076 6.13772 59.6657C8.62608 55.3557 10.564 50.6109 13.2121 46.3013C24.6778 27.6417 52.8477 40.9231 35.4477 52.7881C25.3344 59.6844 18.5277 59.0334 13.4834 48.8314C11.5657 44.9529 12.2993 51.8823 14.9442 47.3013" stroke="black" stroke-width="1.5" stroke-linecap="round" stroke-linejoin="round"/>
<path d="M58.3777 49.5719C35.8217 45.7835 47.6968 68.5878 56.4672 65.4365C60.7323 63.9041 61.6852 58.5557 61.1597 54.6422C60.9898 53.3767 60.5897 52.6543 59.5763 51.9959C58.0686 51.0163 58.6673 51.3117 58.4268 52.487" stroke="black" stroke-width="1.5" stroke-linecap="round" stroke-linejoin="round"/>
<path d="M74.7737 58.1728C71.1515 60.6548 67.5921 62.4109 65.9297 66.6024C65.164 68.5327 65.5994 70.9447 67.572 71.8967C71.5647 73.8237 79.0397 72.1489 79.6131 67.013C79.9405 64.0812 79.2767 61.5276 77.3562 59.311C76.7685 58.6327 75.613 58.9335 75.0893 59.6541C74.2855 60.76 74.6979 60.7444 73.0572 60.6459" stroke="black" stroke-width="1.5" stroke-linecap="round" stroke-linejoin="round"/>
<path d="M95.3223 53.582C92.1222 59.8253 88.9801 66.057 85.7161 72.2205C84.6825 74.1722 83.1093 78.7137 83.0574 80.8532C82.8655 88.7631 93.4291 81.9558 91.7325 79.7997" stroke="black" stroke-width="1.5" stroke-linecap="round" stroke-linejoin="round"/>
<path d="M80.8302 56.1842C86.3039 59.2291 91.7408 62.4173 97.3714 65.1729C97.679 65.3235 98.7614 65.9288 99.3478 65.8329C99.6871 65.7774 100 65.547 100.345 65.4945C101.388 65.3357 100.669 65.3565 99.6752 65.0436" stroke="black" stroke-width="1.5" stroke-linecap="round" stroke-linejoin="round"/>
<path d="M114.614 73.6682C111.083 75.1208 102.146 77.649 104.14 83.3377C104.488 84.3318 105.399 84.6509 106.358 84.7465C108.775 84.9876 111.279 84.133 113.704 84.4657C118.013 85.0566 115.57 87.8961 113.286 89.3563C110.841 90.9195 105.669 93.8436 102.694 92.7029C98.3031 91.0191 101.941 89.2191 104.781 88.1987" stroke="black" stroke-width="1.5" stroke-linecap="round" stroke-linejoin="round"/>
<path d="M128.49 70.1338C125.873 76.5495 122.972 82.6924 119.511 88.6854C118.97 89.6234 117.664 91.4299 118.749 92.4789C120.628 94.2961 123.198 89.8384 123.354 88.5303" stroke="black" stroke-width="1.5" stroke-linecap="round" stroke-linejoin="round"/>
<path d="M117.669 76.8755C118.756 77.1636 129.466 80.5549 128.637 78.8779" stroke="black" stroke-width="1.5" stroke-linecap="round" stroke-linejoin="round"/>
<path d="M130.242 87.5992C128.189 90.9805 126.066 94.3316 124.088 97.7582C123.201 99.2949 125.9 94.7036 126.916 93.2487C128.595 90.8429 131.033 87.0036 134.227 86.7246C136.327 86.5411 139.849 89.4025 136.347 88.5256" stroke="black" stroke-width="1.5" stroke-linecap="round" stroke-linejoin="round"/>
<path d="M146.148 95.0499C145.171 95.225 129.667 98.2577 133.147 103.068C134.27 104.62 137.116 103.456 138.512 103.054C142.237 101.982 142.572 98.4634 144.537 95.8679C145.217 94.97 145.1 95.1074 144.692 96.2941C143.859 98.7137 142.487 100.728 141.076 102.835C140.801 103.245 138.283 106.058 138.967 106.765C139.579 107.397 142.337 104.805 142.788 104.369" stroke="black" stroke-width="1.5" stroke-linecap="round" stroke-linejoin="round"/>
<path d="M153.851 99.209C149.903 106.838 146.374 115.077 141.338 122.103C140.329 123.511 139.338 124.846 138.47 126.349C135.932 130.745 138.666 124.488 139.201 123.083" stroke="black" stroke-width="1.5" stroke-linecap="round" stroke-linejoin="round"/>
<path d="M151.883 102.115C156.244 104.072 160.25 105.942 156.381 110.325C155.234 111.625 153.934 112.83 152.119 112.708C148.926 112.493 147.956 111.614 151.164 110.361" stroke="black" stroke-width="1.5" stroke-linecap="round" stroke-linejoin="round"/>
</svg>
