<svg width="111" height="117" viewBox="0 0 111 117" fill="none" xmlns="http://www.w3.org/2000/svg">
<g filter="url(#filter0_d_429_2)">
<path d="M36.9151 27.2156C25.1303 33.4884 17.1396 39.9172 12.3517 52.5772C9.31739 60.6003 13.5648 70.4427 18.9798 76.2831C27.9021 85.9063 43.2268 88.1644 55.4475 84.9979C69.6833 81.3093 87.9233 71.1597 85.6317 53.5306C84.4032 44.0801 73.2099 38.2427 66.9233 32.1227C61.809 27.1439 54.3991 20.5914 46.7428 20.1813C43.6176 20.0139 37.2151 22.3839 36.0361 25.8081C35.5094 27.3378 34.7421 29.0176 34.5109 30.6245C34.3236 31.9265 33.658 27.7219 33.168 26.5949" stroke="black" stroke-linecap="round" stroke-linejoin="round"/>
<path d="M51.71 56.4247C48.8659 59.2057 43.7359 62.0511 47.8712 64.9431C48.8135 65.6021 49.7615 65.2575 50.3282 64.1845C50.8127 63.2672 53.2102 58.4953 50.3295 58.4311C44.4575 58.3003 49.6843 68.3228 52.0385 62.4466C53.3028 59.2906 49.6746 57.6889 47.5854 60.0191C45.0962 62.7955 48.5015 65.2502 50.0396 61.7304C51.1988 59.0778 49.2611 57.918 47.9033 60.4889C46.687 62.7917 49.3408 65.0463 50.3366 62.1325C51.358 59.1441 48.696 57.7021 47.2164 60.5034C45.5037 63.7462 48.1053 62.6578 49.3585 60.484C50.6219 58.2923 47.5556 59.505 46.9343 61.1091C45.491 64.8349 49.0686 63.2638 48.8729 60.5105C48.5853 56.4659 47.3692 66.338 47.2168 59.1453" stroke="black" stroke-linecap="round" stroke-linejoin="round"/>
<path d="M34.0303 48.106C39.1027 51.749 44.1891 55.1182 48.6835 58.9392C49.9291 59.9981 49.668 61.5274 50.122 61.3591C51.8001 60.7371 53.4527 59.8863 55.2715 59.3247C59.4335 58.0397 62.0849 54.9988 66.0963 53.7603C70.9538 52.2604 77.7009 48.7956 68.435 47.2606" stroke="black" stroke-linecap="round" stroke-linejoin="round"/>
<path d="M24.2119 30.6939C22.2696 27.0916 15.6946 18.9364 22.8949 17.7923C25.4785 17.3817 27.9291 19.4291 29.8842 20.5971C34.9707 23.6357 36.1339 28.8399 30.113 31.094C28.5358 31.6845 27.2577 35.5683 24.7457 33.8623C21.9015 31.9307 24.0497 31.4563 23.4602 28.2594C23.0744 26.1678 21.8093 26.7419 20.6314 24.9354C19.7279 23.5496 20.1161 21.6069 20.1431 20.395" stroke="black" stroke-linecap="round" stroke-linejoin="round"/>
<path d="M25.2669 25.4795C25.53 26.4598 26.732 35.6541 29.4668 33.2442C30.3825 32.4372 31.0859 31.458 31.1758 30.2227C31.2628 29.0258 30.6227 28.5245 29.8307 27.6258C27.7902 25.3102 22.9891 22.2144 25.9284 27.9418C27.783 31.5556 31.7757 29.3445 30.9804 25.5918C30.3732 22.7261 25.7052 20.0769 24.4502 23.9539C23.5625 26.6962 27.9169 30.7946 28.4909 26.8049C28.7824 24.7792 25.3935 20.9046 23.947 23.7636C22.4639 26.695 27.2114 30.4467 28.766 27.8558C30.3031 25.2939 27.0636 19.9269 25.4447 22.8567C23.9639 25.5367 28.3726 28.5985 29.0234 25.011C29.7492 21.0092 25.0019 19.6286 24.8904 23.6205C24.7909 27.1842 29.2781 29.5989 28.7111 24.9592C28.2795 21.4277 21.5835 21.5466 22.8179 25.5443C23.955 29.2271 27.1297 27.8341 26.095 24.4831C25.0166 20.9902 21.742 22.8625 24.1133 25.3418C26.4847 27.8213 26.8432 22.0106 24.6831 20.8697C22.1615 19.538 20.5306 23.3042 23.3718 24.4597C25.3085 25.2473 25.8017 19.3457 22.9001 19.1734C20.3942 19.0247 23.052 23.226 23.5099 21.948C24.2196 19.967 22.0379 19.4611 23.4102 19.3863C24.6196 19.3203 27.5328 19.0778 28.609 19.8304C29.4561 20.4228 33.2548 24.0016 33.6026 25.1279C34.6667 28.5745 29.969 32.0602 26.6783 32.1299C24.3166 32.1799 24.1479 33.9115 24.7523 33.169C26.2186 31.3681 25.6127 28.0387 25.9887 29.2565" stroke="black" stroke-linecap="round" stroke-linejoin="round"/>
<path d="M44.1569 88.0901C43.4363 93.1676 42.9571 98.1933 41.7919 103.141C41.5295 104.255 41.0865 106.5 41.3037 107.637C41.8888 110.699 41.7683 99.761 41.9188 98.1142" stroke="black" stroke-linecap="round" stroke-linejoin="round"/>
<path d="M82.5049 66.915C89.647 71.8171 96.7417 74.6948 102.945 80.5785C103.556 81.1579 104.412 81.5041 105.125 81.8807C107.511 83.1407 100.541 79.0352 98.2507 77.6084" stroke="black" stroke-linecap="round" stroke-linejoin="round"/>
</g>
<defs>
<filter id="filter0_d_429_2" x="6.83887" y="17.2388" width="103.277" height="99.437" filterUnits="userSpaceOnUse" color-interpolation-filters="sRGB">
<feFlood flood-opacity="0" result="BackgroundImageFix"/>
<feColorMatrix in="SourceAlpha" type="matrix" values="0 0 0 0 0 0 0 0 0 0 0 0 0 0 0 0 0 0 127 0" result="hardAlpha"/>
<feOffset dy="4"/>
<feGaussianBlur stdDeviation="2"/>
<feComposite in2="hardAlpha" operator="out"/>
<feColorMatrix type="matrix" values="0 0 0 0 0 0 0 0 0 0 0 0 0 0 0 0 0 0 0.25 0"/>
<feBlend mode="normal" in2="BackgroundImageFix" result="effect1_dropShadow_429_2"/>
<feBlend mode="normal" in="SourceGraphic" in2="effect1_dropShadow_429_2" result="shape"/>
</filter>
</defs>
</svg>
