<svg width="50" height="55" viewBox="0 0 50 55" fill="none" xmlns="http://www.w3.org/2000/svg">
<path d="M20.9232 8.62035C13.3637 10.0715 7.86798 12.254 3.07673 18.4141C0.0403653 22.318 0.706121 28.4628 2.69586 32.6015C5.97436 39.4208 14.0329 43.2716 21.304 43.6059C29.7742 43.9953 41.5493 41.5064 43.2856 31.4045C44.2164 25.9891 39.0428 20.8691 36.6204 16.4282C34.6498 12.8153 31.6821 7.94502 27.534 6.41675C25.8407 5.79291 21.9103 6.00949 20.6783 7.69538C20.1279 8.44853 19.4195 9.24347 19.0188 10.0894C18.6941 10.7748 19.0427 8.34523 18.9644 7.64097" stroke="white" stroke-linecap="round" stroke-linejoin="round"/>
<path d="M24.1052 27.2285C22.0653 28.2768 18.7551 28.9718 20.5414 31.2684C20.9484 31.7918 21.5293 31.7632 22.0241 31.2684C22.447 30.8455 24.5796 28.6244 23.0034 28.0991C19.7907 27.0282 20.9654 33.4388 23.2619 30.6019C24.4953 29.0783 22.7689 27.5787 21.2215 28.5071C19.3779 29.6133 20.8364 31.5449 22.2825 29.8674C23.3723 28.6032 22.5021 27.6346 21.3167 28.82C20.255 29.8818 21.3335 31.5753 22.3777 30.1394C23.4488 28.6668 22.2275 27.4195 20.9359 28.7112C19.4407 30.2063 21.0591 30.0493 22.1193 29.0648C23.1881 28.0723 21.2926 28.2189 20.6774 28.9968C19.2485 30.804 21.4867 30.547 21.8472 28.9968C22.3768 26.7197 20.0276 31.9515 21.1671 27.963" stroke="white" stroke-linecap="round" stroke-linejoin="round"/>
<path d="M15.7803 19.6382C17.9551 22.508 20.1841 25.2293 22.0102 28.0989C22.5163 28.8942 22.1123 29.6923 22.3911 29.6768C23.4214 29.6196 24.4765 29.432 25.574 29.432C28.0855 29.432 30.0635 28.2077 32.4841 28.2077C35.4153 28.2077 39.7217 27.4466 34.8781 25.0248" stroke="white" stroke-linecap="round" stroke-linejoin="round"/>
<path d="M13.3333 8.37554C12.876 6.06062 10.641 0.449337 14.8024 1.04382C16.2955 1.25713 17.2973 2.80189 18.1758 3.77791C20.4611 6.31719 20.2167 9.38209 16.5163 9.59976C15.5469 9.65678 14.1821 11.579 13.0884 10.2119C11.8501 8.66393 13.1143 8.76795 13.3333 6.90648C13.4766 5.68857 12.6819 5.78965 12.3403 4.59406C12.0783 3.67691 12.6226 2.67267 12.8436 2.00959" stroke="white" stroke-linecap="round" stroke-linejoin="round"/>
<path d="M14.8013 5.68245C14.7795 6.26728 13.8777 11.537 15.7942 10.6746C16.436 10.3858 16.9901 9.96594 17.2497 9.3007C17.5013 8.65611 17.2339 8.27106 16.9505 7.6412C16.2202 6.01842 14.1018 3.4962 14.7469 7.15152C15.1539 9.45787 17.7296 8.91889 17.9298 6.71624C18.0828 5.03417 15.9617 2.78064 14.6108 4.70307C13.6553 6.06284 15.3571 9.06141 16.3519 6.96108C16.8571 5.89464 15.6492 3.18361 14.366 4.51264C13.0503 5.87529 15.0276 8.74975 16.3247 7.58679C17.6073 6.43688 16.7356 2.92906 15.3454 4.26779C14.0737 5.49235 15.9817 7.92907 16.9505 6.06332C18.0311 3.98217 15.6505 2.41402 14.9101 4.59425C14.249 6.54067 16.3104 8.63422 16.7872 5.9817C17.1502 3.96271 13.441 2.88923 13.441 5.30158C13.441 7.52391 15.427 7.29654 15.427 5.27438C15.427 3.16668 13.3045 3.64114 14.1892 5.4104C15.0738 7.17976 16.2597 4.03954 15.2638 3.04357C14.1011 1.88095 12.562 3.67842 13.9307 4.79829C14.8637 5.56164 16.1393 2.39421 14.57 1.80575C13.2148 1.29753 13.9644 4.06421 14.434 3.43804C15.162 2.46742 14.0461 1.81759 14.8149 2.00979C15.4924 2.17916 17.1385 2.54111 17.6034 3.13879C17.9693 3.60924 19.4533 6.22705 19.4533 6.90667C19.4533 8.98647 16.2724 10.1077 14.4476 9.58636C13.138 9.21218 12.7505 10.1374 13.2098 9.8312C14.3239 9.08845 14.5564 7.15121 14.5564 7.88605" stroke="white" stroke-linecap="round" stroke-linejoin="round"/>
<path d="M14.5577 43.3887C13.297 46.0634 12.1781 48.7506 10.6946 51.2781C10.3605 51.8473 9.73448 53.0089 9.66079 53.6721C9.46231 55.4584 11.2565 49.412 11.6195 48.5304" stroke="white" stroke-linecap="round" stroke-linejoin="round"/>
<path d="M39.2861 38.2462C42.387 42.1617 45.8061 44.9539 48.2229 49.2506C48.461 49.6737 48.8735 50.01 49.2023 50.3388C50.3023 51.4388 47.1606 47.9913 46.1418 46.8158" stroke="white" stroke-linecap="round" stroke-linejoin="round"/>
</svg>
