<svg width="348" height="115" viewBox="0 0 348 115" fill="none" xmlns="http://www.w3.org/2000/svg">
<path d="M5.58398 5.16504V8.66602H18.665V12.958H5.58398V21H0.149414V0.873047H19.3828V5.16504H5.58398ZM29.4609 21H24.0264V0.873047H37.6494C39.1143 0.873047 40.3545 1.02441 41.3701 1.32715C42.3955 1.62988 43.2256 2.05957 43.8604 2.61621C44.5049 3.17285 44.9688 3.84668 45.252 4.6377C45.5449 5.41895 45.6914 6.29297 45.6914 7.25977C45.6914 8.10938 45.5693 8.85156 45.3252 9.48633C45.0908 10.1211 44.7686 10.668 44.3584 11.127C43.958 11.5762 43.4893 11.957 42.9521 12.2695C42.415 12.582 41.8486 12.8408 41.2529 13.0459L47.8447 21H41.4873L35.3936 13.5879H29.4609V21ZM40.1982 7.23047C40.1982 6.83984 40.1445 6.50781 40.0371 6.23438C39.9395 5.96094 39.7637 5.74121 39.5098 5.5752C39.2559 5.39941 38.9141 5.27246 38.4844 5.19434C38.0645 5.11621 37.5371 5.07715 36.9023 5.07715H29.4609V9.38379H36.9023C37.5371 9.38379 38.0645 9.34473 38.4844 9.2666C38.9141 9.18848 39.2559 9.06641 39.5098 8.90039C39.7637 8.72461 39.9395 8.5 40.0371 8.22656C40.1445 7.95312 40.1982 7.62109 40.1982 7.23047ZM77.6396 10.9512C77.6396 12.6797 77.3223 14.208 76.6875 15.5361C76.0527 16.8545 75.1445 17.958 73.9629 18.8467C72.7812 19.7354 71.3457 20.4092 69.6562 20.8682C67.9766 21.3174 66.0869 21.542 63.9873 21.542C61.8877 21.542 59.9883 21.3174 58.2891 20.8682C56.5996 20.4092 55.1592 19.7354 53.9678 18.8467C52.7764 17.958 51.8584 16.8545 51.2139 15.5361C50.5693 14.208 50.2471 12.6797 50.2471 10.9512C50.2471 9.22266 50.5693 7.69922 51.2139 6.38086C51.8584 5.05273 52.7764 3.94434 53.9678 3.05566C55.1592 2.16699 56.5996 1.49805 58.2891 1.04883C59.9883 0.589844 61.8877 0.360352 63.9873 0.360352C66.0869 0.360352 67.9766 0.589844 69.6562 1.04883C71.3457 1.49805 72.7812 2.16699 73.9629 3.05566C75.1445 3.94434 76.0527 5.05273 76.6875 6.38086C77.3223 7.69922 77.6396 9.22266 77.6396 10.9512ZM72.1465 10.9512C72.1465 10.1992 72.0244 9.45215 71.7803 8.70996C71.5459 7.95801 71.1211 7.28418 70.5059 6.68848C69.9004 6.09277 69.0703 5.60937 68.0156 5.23828C66.9609 4.86719 65.6182 4.68164 63.9873 4.68164C62.8936 4.68164 61.9316 4.76953 61.1016 4.94531C60.2715 5.11133 59.5537 5.3457 58.9482 5.64844C58.3428 5.95117 57.835 6.30762 57.4248 6.71777C57.0146 7.11816 56.6875 7.55273 56.4434 8.02148C56.1992 8.48047 56.0234 8.96387 55.916 9.47168C55.8184 9.96973 55.7695 10.4629 55.7695 10.9512C55.7695 11.4492 55.8184 11.9521 55.916 12.46C56.0234 12.9678 56.1992 13.4561 56.4434 13.9248C56.6875 14.3838 57.0146 14.8135 57.4248 15.2139C57.835 15.6143 58.3428 15.9658 58.9482 16.2686C59.5537 16.5615 60.2715 16.7959 61.1016 16.9717C61.9316 17.1377 62.8936 17.2207 63.9873 17.2207C65.6182 17.2207 66.9609 17.0352 68.0156 16.6641C69.0703 16.293 69.9004 15.8096 70.5059 15.2139C71.1211 14.6182 71.5459 13.9492 71.7803 13.207C72.0244 12.4551 72.1465 11.7031 72.1465 10.9512ZM101.604 21L88.0254 7.17188V21H82.5908V0.873047H88.4941L102.088 14.7598V0.873047H107.493V21H101.604ZM125.071 5.25293V21H119.637V5.25293H111.097V0.873047H133.626V5.25293H125.071ZM137.229 21V0.873047H157.605V5.16504H142.811V8.49023H156.844V12.7822H142.811V16.708H157.811V21H137.229ZM182.083 21L168.504 7.17188V21H163.069V0.873047H168.973L182.566 14.7598V0.873047H187.972V21H182.083ZM218.924 10.9219C218.924 12.2109 218.782 13.3584 218.499 14.3643C218.216 15.3604 217.815 16.2295 217.298 16.9717C216.79 17.7139 216.175 18.3438 215.452 18.8613C214.739 19.3789 213.943 19.7939 213.064 20.1064C212.186 20.4189 211.238 20.6484 210.223 20.7949C209.207 20.9316 208.147 21 207.044 21H194.271V0.873047H207.015C208.118 0.873047 209.178 0.946289 210.193 1.09277C211.209 1.22949 212.156 1.4541 213.035 1.7666C213.924 2.0791 214.729 2.49414 215.452 3.01172C216.175 3.51953 216.79 4.14941 217.298 4.90137C217.815 5.64355 218.216 6.5127 218.499 7.50879C218.782 8.50488 218.924 9.64258 218.924 10.9219ZM213.445 10.9219C213.445 9.95508 213.318 9.11523 213.064 8.40234C212.82 7.68945 212.42 7.10352 211.863 6.64453C211.316 6.17578 210.599 5.8291 209.71 5.60449C208.821 5.37012 207.737 5.25293 206.458 5.25293H199.705V16.6201H206.458C207.737 16.6201 208.821 16.5078 209.71 16.2832C210.599 16.0488 211.316 15.6973 211.863 15.2285C212.42 14.75 212.82 14.1543 213.064 13.4414C213.318 12.7285 213.445 11.8887 213.445 10.9219ZM137.596 41.9219C137.596 43.2109 137.454 44.3584 137.171 45.3643C136.888 46.3604 136.487 47.2295 135.97 47.9717C135.462 48.7139 134.847 49.3438 134.124 49.8613C133.411 50.3789 132.615 50.7939 131.736 51.1064C130.857 51.4189 129.91 51.6484 128.895 51.7949C127.879 51.9316 126.819 52 125.716 52H112.942V31.873H125.687C126.79 31.873 127.85 31.9463 128.865 32.0928C129.881 32.2295 130.828 32.4541 131.707 32.7666C132.596 33.0791 133.401 33.4941 134.124 34.0117C134.847 34.5195 135.462 35.1494 135.97 35.9014C136.487 36.6436 136.888 37.5127 137.171 38.5088C137.454 39.5049 137.596 40.6426 137.596 41.9219ZM132.117 41.9219C132.117 40.9551 131.99 40.1152 131.736 39.4023C131.492 38.6895 131.092 38.1035 130.535 37.6445C129.988 37.1758 129.271 36.8291 128.382 36.6045C127.493 36.3701 126.409 36.2529 125.13 36.2529H118.377V47.6201H125.13C126.409 47.6201 127.493 47.5078 128.382 47.2832C129.271 47.0488 129.988 46.6973 130.535 46.2285C131.092 45.75 131.492 45.1543 131.736 44.4414C131.99 43.7285 132.117 42.8887 132.117 41.9219ZM142.562 52V31.873H162.938V36.165H148.143V39.4902H162.176V43.7822H148.143V47.708H163.143V52H142.562ZM181.907 52H175.579L165.398 31.873H171.463L178.787 47.0195L186.097 31.873H192.161L181.907 52ZM195.472 52V31.873H200.906V47.5908H215.599V52H195.472ZM246.009 41.9512C246.009 43.6797 245.691 45.208 245.057 46.5361C244.422 47.8545 243.514 48.958 242.332 49.8467C241.15 50.7354 239.715 51.4092 238.025 51.8682C236.346 52.3174 234.456 52.542 232.356 52.542C230.257 52.542 228.357 52.3174 226.658 51.8682C224.969 51.4092 223.528 50.7354 222.337 49.8467C221.146 48.958 220.228 47.8545 219.583 46.5361C218.938 45.208 218.616 43.6797 218.616 41.9512C218.616 40.2227 218.938 38.6992 219.583 37.3809C220.228 36.0527 221.146 34.9443 222.337 34.0557C223.528 33.167 224.969 32.498 226.658 32.0488C228.357 31.5898 230.257 31.3604 232.356 31.3604C234.456 31.3604 236.346 31.5898 238.025 32.0488C239.715 32.498 241.15 33.167 242.332 34.0557C243.514 34.9443 244.422 36.0527 245.057 37.3809C245.691 38.6992 246.009 40.2227 246.009 41.9512ZM240.516 41.9512C240.516 41.1992 240.394 40.4521 240.149 39.71C239.915 38.958 239.49 38.2842 238.875 37.6885C238.27 37.0928 237.439 36.6094 236.385 36.2383C235.33 35.8672 233.987 35.6816 232.356 35.6816C231.263 35.6816 230.301 35.7695 229.471 35.9453C228.641 36.1113 227.923 36.3457 227.317 36.6484C226.712 36.9512 226.204 37.3076 225.794 37.7178C225.384 38.1182 225.057 38.5527 224.812 39.0215C224.568 39.4805 224.393 39.9639 224.285 40.4717C224.188 40.9697 224.139 41.4629 224.139 41.9512C224.139 42.4492 224.188 42.9521 224.285 43.46C224.393 43.9678 224.568 44.4561 224.812 44.9248C225.057 45.3838 225.384 45.8135 225.794 46.2139C226.204 46.6143 226.712 46.9658 227.317 47.2686C227.923 47.5615 228.641 47.7959 229.471 47.9717C230.301 48.1377 231.263 48.2207 232.356 48.2207C233.987 48.2207 235.33 48.0352 236.385 47.6641C237.439 47.293 238.27 46.8096 238.875 46.2139C239.49 45.6182 239.915 44.9492 240.149 44.207C240.394 43.4551 240.516 42.7031 240.516 41.9512ZM273.577 38.7432C273.577 39.749 273.431 40.6768 273.138 41.5264C272.845 42.3662 272.371 43.0938 271.717 43.709C271.072 44.3145 270.232 44.7881 269.197 45.1299C268.162 45.4717 266.902 45.6426 265.418 45.6426H256.395V52H250.96V31.873H265.418C266.902 31.873 268.162 32.0439 269.197 32.3857C270.232 32.7178 271.072 33.1914 271.717 33.8066C272.371 34.4121 272.845 35.1348 273.138 35.9746C273.431 36.8145 273.577 37.7373 273.577 38.7432ZM268.084 38.8311C268.084 38.3623 268.016 37.9619 267.879 37.6299C267.752 37.2881 267.537 37.0098 267.234 36.7949C266.932 36.5801 266.536 36.4238 266.048 36.3262C265.56 36.2188 264.959 36.165 264.246 36.165H256.395V41.3506H264.246C264.959 41.3506 265.56 41.3115 266.048 41.2334C266.536 41.1455 266.932 41.0039 267.234 40.8086C267.537 40.6035 267.752 40.3398 267.879 40.0176C268.016 39.6953 268.084 39.2998 268.084 38.8311ZM278.089 52V31.873H298.465V36.165H283.67V39.4902H297.703V43.7822H283.67V47.708H298.67V52H278.089ZM309.363 52H303.929V31.873H317.552C319.017 31.873 320.257 32.0244 321.272 32.3271C322.298 32.6299 323.128 33.0596 323.763 33.6162C324.407 34.1729 324.871 34.8467 325.154 35.6377C325.447 36.4189 325.594 37.293 325.594 38.2598C325.594 39.1094 325.472 39.8516 325.228 40.4863C324.993 41.1211 324.671 41.668 324.261 42.127C323.86 42.5762 323.392 42.957 322.854 43.2695C322.317 43.582 321.751 43.8408 321.155 44.0459L327.747 52H321.39L315.296 44.5879H309.363V52ZM320.101 38.2305C320.101 37.8398 320.047 37.5078 319.939 37.2344C319.842 36.9609 319.666 36.7412 319.412 36.5752C319.158 36.3994 318.816 36.2725 318.387 36.1943C317.967 36.1162 317.439 36.0771 316.805 36.0771H309.363V40.3838H316.805C317.439 40.3838 317.967 40.3447 318.387 40.2666C318.816 40.1885 319.158 40.0664 319.412 39.9004C319.666 39.7246 319.842 39.5 319.939 39.2266C320.047 38.9531 320.101 38.6211 320.101 38.2305ZM22.7666 69.7432C22.7666 70.749 22.6201 71.6768 22.3271 72.5264C22.0342 73.3662 21.5605 74.0938 20.9062 74.709C20.2617 75.3145 19.4219 75.7881 18.3867 76.1299C17.3516 76.4717 16.0918 76.6426 14.6074 76.6426H5.58398V83H0.149414V62.873H14.6074C16.0918 62.873 17.3516 63.0439 18.3867 63.3857C19.4219 63.7178 20.2617 64.1914 20.9062 64.8066C21.5605 65.4121 22.0342 66.1348 22.3271 66.9746C22.6201 67.8145 22.7666 68.7373 22.7666 69.7432ZM17.2734 69.8311C17.2734 69.3623 17.2051 68.9619 17.0684 68.6299C16.9414 68.2881 16.7266 68.0098 16.4238 67.7949C16.1211 67.5801 15.7256 67.4238 15.2373 67.3262C14.749 67.2188 14.1484 67.165 13.4355 67.165H5.58398V72.3506H13.4355C14.1484 72.3506 14.749 72.3115 15.2373 72.2334C15.7256 72.1455 16.1211 72.0039 16.4238 71.8086C16.7266 71.6035 16.9414 71.3398 17.0684 71.0176C17.2051 70.6953 17.2734 70.2998 17.2734 69.8311ZM53.3232 72.9512C53.3232 74.6797 53.0059 76.208 52.3711 77.5361C51.7363 78.8545 50.8281 79.958 49.6465 80.8467C48.4648 81.7354 47.0293 82.4092 45.3398 82.8682C43.6602 83.3174 41.7705 83.542 39.6709 83.542C37.5713 83.542 35.6719 83.3174 33.9727 82.8682C32.2832 82.4092 30.8428 81.7354 29.6514 80.8467C28.46 79.958 27.542 78.8545 26.8975 77.5361C26.2529 76.208 25.9307 74.6797 25.9307 72.9512C25.9307 71.2227 26.2529 69.6992 26.8975 68.3809C27.542 67.0527 28.46 65.9443 29.6514 65.0557C30.8428 64.167 32.2832 63.498 33.9727 63.0488C35.6719 62.5898 37.5713 62.3604 39.6709 62.3604C41.7705 62.3604 43.6602 62.5898 45.3398 63.0488C47.0293 63.498 48.4648 64.167 49.6465 65.0557C50.8281 65.9443 51.7363 67.0527 52.3711 68.3809C53.0059 69.6992 53.3232 71.2227 53.3232 72.9512ZM47.8301 72.9512C47.8301 72.1992 47.708 71.4521 47.4639 70.71C47.2295 69.958 46.8047 69.2842 46.1895 68.6885C45.584 68.0928 44.7539 67.6094 43.6992 67.2383C42.6445 66.8672 41.3018 66.6816 39.6709 66.6816C38.5771 66.6816 37.6152 66.7695 36.7852 66.9453C35.9551 67.1113 35.2373 67.3457 34.6318 67.6484C34.0264 67.9512 33.5186 68.3076 33.1084 68.7178C32.6982 69.1182 32.3711 69.5527 32.127 70.0215C31.8828 70.4805 31.707 70.9639 31.5996 71.4717C31.502 71.9697 31.4531 72.4629 31.4531 72.9512C31.4531 73.4492 31.502 73.9521 31.5996 74.46C31.707 74.9678 31.8828 75.4561 32.127 75.9248C32.3711 76.3838 32.6982 76.8135 33.1084 77.2139C33.5186 77.6143 34.0264 77.9658 34.6318 78.2686C35.2373 78.5615 35.9551 78.7959 36.7852 78.9717C37.6152 79.1377 38.5771 79.2207 39.6709 79.2207C41.3018 79.2207 42.6445 79.0352 43.6992 78.6641C44.7539 78.293 45.584 77.8096 46.1895 77.2139C46.8047 76.6182 47.2295 75.9492 47.4639 75.207C47.708 74.4551 47.8301 73.7031 47.8301 72.9512ZM63.709 83H58.2744V62.873H71.8975C73.3623 62.873 74.6025 63.0244 75.6182 63.3271C76.6436 63.6299 77.4736 64.0596 78.1084 64.6162C78.7529 65.1729 79.2168 65.8467 79.5 66.6377C79.793 67.4189 79.9395 68.293 79.9395 69.2598C79.9395 70.1094 79.8174 70.8516 79.5732 71.4863C79.3389 72.1211 79.0166 72.668 78.6064 73.127C78.2061 73.5762 77.7373 73.957 77.2002 74.2695C76.6631 74.582 76.0967 74.8408 75.501 75.0459L82.0928 83H75.7354L69.6416 75.5879H63.709V83ZM74.4463 69.2305C74.4463 68.8398 74.3926 68.5078 74.2852 68.2344C74.1875 67.9609 74.0117 67.7412 73.7578 67.5752C73.5039 67.3994 73.1621 67.2725 72.7324 67.1943C72.3125 67.1162 71.7852 67.0771 71.1504 67.0771H63.709V71.3838H71.1504C71.7852 71.3838 72.3125 71.3447 72.7324 71.2666C73.1621 71.1885 73.5039 71.0664 73.7578 70.9004C74.0117 70.7246 74.1875 70.5 74.2852 70.2266C74.3926 69.9531 74.4463 69.6211 74.4463 69.2305ZM97.2686 67.2529V83H91.834V67.2529H83.2939V62.873H105.823V67.2529H97.2686ZM114.861 67.165V70.666H127.942V74.958H114.861V83H109.427V62.873H128.66V67.165H114.861ZM159.349 72.9512C159.349 74.6797 159.031 76.208 158.396 77.5361C157.762 78.8545 156.854 79.958 155.672 80.8467C154.49 81.7354 153.055 82.4092 151.365 82.8682C149.686 83.3174 147.796 83.542 145.696 83.542C143.597 83.542 141.697 83.3174 139.998 82.8682C138.309 82.4092 136.868 81.7354 135.677 80.8467C134.485 79.958 133.567 78.8545 132.923 77.5361C132.278 76.208 131.956 74.6797 131.956 72.9512C131.956 71.2227 132.278 69.6992 132.923 68.3809C133.567 67.0527 134.485 65.9443 135.677 65.0557C136.868 64.167 138.309 63.498 139.998 63.0488C141.697 62.5898 143.597 62.3604 145.696 62.3604C147.796 62.3604 149.686 62.5898 151.365 63.0488C153.055 63.498 154.49 64.167 155.672 65.0557C156.854 65.9443 157.762 67.0527 158.396 68.3809C159.031 69.6992 159.349 71.2227 159.349 72.9512ZM153.855 72.9512C153.855 72.1992 153.733 71.4521 153.489 70.71C153.255 69.958 152.83 69.2842 152.215 68.6885C151.609 68.0928 150.779 67.6094 149.725 67.2383C148.67 66.8672 147.327 66.6816 145.696 66.6816C144.603 66.6816 143.641 66.7695 142.811 66.9453C141.98 67.1113 141.263 67.3457 140.657 67.6484C140.052 67.9512 139.544 68.3076 139.134 68.7178C138.724 69.1182 138.396 69.5527 138.152 70.0215C137.908 70.4805 137.732 70.9639 137.625 71.4717C137.527 71.9697 137.479 72.4629 137.479 72.9512C137.479 73.4492 137.527 73.9521 137.625 74.46C137.732 74.9678 137.908 75.4561 138.152 75.9248C138.396 76.3838 138.724 76.8135 139.134 77.2139C139.544 77.6143 140.052 77.9658 140.657 78.2686C141.263 78.5615 141.98 78.7959 142.811 78.9717C143.641 79.1377 144.603 79.2207 145.696 79.2207C147.327 79.2207 148.67 79.0352 149.725 78.6641C150.779 78.293 151.609 77.8096 152.215 77.2139C152.83 76.6182 153.255 75.9492 153.489 75.207C153.733 74.4551 153.855 73.7031 153.855 72.9512ZM164.3 83V62.873H169.734V78.5908H184.427V83H164.3ZM188.792 83V62.873H194.227V83H188.792ZM226.585 72.9512C226.585 74.6797 226.268 76.208 225.633 77.5361C224.998 78.8545 224.09 79.958 222.908 80.8467C221.727 81.7354 220.291 82.4092 218.602 82.8682C216.922 83.3174 215.032 83.542 212.933 83.542C210.833 83.542 208.934 83.3174 207.234 82.8682C205.545 82.4092 204.104 81.7354 202.913 80.8467C201.722 79.958 200.804 78.8545 200.159 77.5361C199.515 76.208 199.192 74.6797 199.192 72.9512C199.192 71.2227 199.515 69.6992 200.159 68.3809C200.804 67.0527 201.722 65.9443 202.913 65.0557C204.104 64.167 205.545 63.498 207.234 63.0488C208.934 62.5898 210.833 62.3604 212.933 62.3604C215.032 62.3604 216.922 62.5898 218.602 63.0488C220.291 63.498 221.727 64.167 222.908 65.0557C224.09 65.9443 224.998 67.0527 225.633 68.3809C226.268 69.6992 226.585 71.2227 226.585 72.9512ZM221.092 72.9512C221.092 72.1992 220.97 71.4521 220.726 70.71C220.491 69.958 220.066 69.2842 219.451 68.6885C218.846 68.0928 218.016 67.6094 216.961 67.2383C215.906 66.8672 214.563 66.6816 212.933 66.6816C211.839 66.6816 210.877 66.7695 210.047 66.9453C209.217 67.1113 208.499 67.3457 207.894 67.6484C207.288 67.9512 206.78 68.3076 206.37 68.7178C205.96 69.1182 205.633 69.5527 205.389 70.0215C205.145 70.4805 204.969 70.9639 204.861 71.4717C204.764 71.9697 204.715 72.4629 204.715 72.9512C204.715 73.4492 204.764 73.9521 204.861 74.46C204.969 74.9678 205.145 75.4561 205.389 75.9248C205.633 76.3838 205.96 76.8135 206.37 77.2139C206.78 77.6143 207.288 77.9658 207.894 78.2686C208.499 78.5615 209.217 78.7959 210.047 78.9717C210.877 79.1377 211.839 79.2207 212.933 79.2207C214.563 79.2207 215.906 79.0352 216.961 78.6641C218.016 78.293 218.846 77.8096 219.451 77.2139C220.066 76.6182 220.491 75.9492 220.726 75.207C220.97 74.4551 221.092 73.7031 221.092 72.9512ZM180.237 112.623C179.534 112.916 178.826 113.18 178.113 113.414C177.4 113.648 176.663 113.849 175.901 114.015C175.14 114.19 174.334 114.322 173.484 114.41C172.645 114.498 171.741 114.542 170.774 114.542C168.724 114.542 166.834 114.322 165.105 113.883C163.387 113.443 161.902 112.784 160.652 111.905C159.412 111.017 158.445 109.913 157.752 108.595C157.059 107.267 156.712 105.719 156.712 103.951C156.712 102.184 157.059 100.641 157.752 99.3223C158.445 97.9941 159.412 96.8906 160.652 96.0117C161.902 95.123 163.387 94.459 165.105 94.0195C166.834 93.5801 168.724 93.3604 170.774 93.3604C171.741 93.3604 172.645 93.4043 173.484 93.4922C174.334 93.5801 175.14 93.7119 175.901 93.8877C176.663 94.0537 177.4 94.2539 178.113 94.4883C178.826 94.7227 179.534 94.9863 180.237 95.2793V100.172C179.681 99.8691 179.095 99.5713 178.479 99.2783C177.864 98.9756 177.186 98.707 176.443 98.4727C175.701 98.2285 174.886 98.0332 173.997 97.8867C173.108 97.7305 172.107 97.6523 170.994 97.6523C169.285 97.6523 167.864 97.8281 166.731 98.1797C165.608 98.5312 164.71 99 164.036 99.5859C163.362 100.172 162.889 100.846 162.615 101.607C162.342 102.359 162.205 103.141 162.205 103.951C162.205 104.488 162.264 105.021 162.381 105.548C162.498 106.065 162.693 106.559 162.967 107.027C163.24 107.486 163.597 107.911 164.036 108.302C164.476 108.692 165.022 109.029 165.677 109.312C166.331 109.596 167.093 109.82 167.962 109.986C168.841 110.143 169.852 110.221 170.994 110.221C172.107 110.221 173.108 110.152 173.997 110.016C174.886 109.869 175.701 109.679 176.443 109.444C177.186 109.21 177.864 108.946 178.479 108.653C179.095 108.351 179.681 108.043 180.237 107.73V112.623ZM190.74 114H185.306V93.873H198.929C200.394 93.873 201.634 94.0244 202.649 94.3271C203.675 94.6299 204.505 95.0596 205.14 95.6162C205.784 96.1729 206.248 96.8467 206.531 97.6377C206.824 98.4189 206.971 99.293 206.971 100.26C206.971 101.109 206.849 101.852 206.604 102.486C206.37 103.121 206.048 103.668 205.638 104.127C205.237 104.576 204.769 104.957 204.231 105.27C203.694 105.582 203.128 105.841 202.532 106.046L209.124 114H202.767L196.673 106.588H190.74V114ZM201.478 100.23C201.478 99.8398 201.424 99.5078 201.316 99.2344C201.219 98.9609 201.043 98.7412 200.789 98.5752C200.535 98.3994 200.193 98.2725 199.764 98.1943C199.344 98.1162 198.816 98.0771 198.182 98.0771H190.74V102.384H198.182C198.816 102.384 199.344 102.345 199.764 102.267C200.193 102.188 200.535 102.066 200.789 101.9C201.043 101.725 201.219 101.5 201.316 101.227C201.424 100.953 201.478 100.621 201.478 100.23ZM213.021 114V93.873H233.396V98.165H218.602V101.49H232.635V105.782H218.602V109.708H233.602V114H213.021ZM255.032 110.191H243.812L241.922 114H235.857L246.39 93.873H252.454L262.986 114H256.922L255.032 110.191ZM245.76 106.266H253.113L249.451 98.8535L245.76 106.266ZM276.39 98.2529V114H270.955V98.2529H262.415V93.873H284.944V98.2529H276.39ZM288.548 114V93.873H293.982V114H288.548ZM313.802 114H307.474L297.293 93.873H303.357L310.682 109.02L317.991 93.873H324.056L313.802 114ZM327.366 114V93.873H347.742V98.165H332.947V101.49H346.98V105.782H332.947V109.708H347.947V114H327.366Z" fill="black"/>
</svg>
