<svg width="146" height="227" viewBox="0 0 146 227" fill="none" xmlns="http://www.w3.org/2000/svg">
<path d="M80.6647 137.45L88.4663 121.485L102.274 131.645M80.6647 137.45L102.274 131.645M80.6647 137.45L78.8682 149.061M102.274 131.645L106.145 140.998M106.145 140.998L118.723 204.859L133.56 200.666L114.33 114.551L62.603 128.419L54.8623 226.146L73.2465 218.083L78.8682 149.061M106.145 140.998L78.8682 149.061" stroke="black"/>
<path d="M136.463 1.02015C132.915 0.0525604 3.58024 34.2407 1 37.1435C3.47273 70.6866 9.06324 138.095 11.6435 139.385C14.8688 140.998 142.268 107.778 144.203 104.23C146.138 100.682 140.01 1.98774 136.463 1.02015Z" stroke="black"/>
<path d="M132.395 4.90959C129.064 3.99889 7.61625 36.1768 5.19336 38.9089C7.5153 70.4797 12.7649 133.925 15.1878 135.139C18.2164 136.657 137.847 105.39 139.664 102.051C141.481 98.7113 135.727 5.82029 132.395 4.90959Z" stroke="black"/>
<path d="M39.7031 71.0089L46.4763 48.7544L60.6676 66.171L39.7031 71.0089Z" stroke="black" stroke-linejoin="round"/>
<circle cx="58.0874" cy="67.4614" r="7.24071" stroke="black"/>
<path d="M100.206 42.1751C100.013 42.2269 99.8145 42.2428 99.6104 42.223C99.412 42.1933 99.2452 42.1428 99.1101 42.0713C98.975 41.9998 98.8989 41.9167 98.8818 41.8219C98.8564 41.6962 98.873 41.5882 98.9316 41.4979C98.9903 41.4077 99.1077 41.3514 99.2839 41.329C99.5611 41.3127 99.8329 41.2606 100.099 41.1727C100.363 41.077 100.6 40.9556 100.809 40.8085C101.026 40.6593 101.188 40.4917 101.296 40.3055C101.45 40.0487 101.513 39.8497 101.483 39.7085C101.452 39.5596 101.304 39.4418 101.041 39.355C100.922 39.3124 100.781 39.2798 100.617 39.2574C100.454 39.2349 100.295 39.2279 100.139 39.2363C99.99 39.2349 99.8622 39.2526 99.7561 39.2893C99.6886 39.3157 99.6005 39.3269 99.4918 39.3229C99.3809 39.3111 99.2681 39.2917 99.1531 39.2645C99.0923 39.2229 99.0259 39.1454 98.9542 39.0321C98.8824 38.9188 98.8347 38.8488 98.8109 38.822C98.7928 38.7854 98.8075 38.7318 98.8548 38.6612C98.9021 38.5905 99.004 38.4762 99.1605 38.3184C99.3149 38.1528 99.5439 37.9258 99.8476 37.6373C100.125 37.3726 100.336 37.1711 100.481 37.0329C100.632 36.8848 100.746 36.7713 100.824 36.6923C100.908 36.6036 100.977 36.519 101.03 36.4385C101.093 36.3055 101.114 36.213 101.092 36.161C101.07 36.1089 100.953 36.0905 100.742 36.1057C100.544 36.142 100.39 36.1835 100.278 36.23C100.164 36.2688 100.111 36.3036 100.12 36.3345C100.12 36.3345 100.116 36.3355 100.108 36.3376C100.108 36.3376 100.097 36.3407 100.073 36.3469C100.031 36.3418 99.9466 36.3685 99.8214 36.4269C99.6963 36.4852 99.576 36.5464 99.4607 36.6105C99.353 36.6724 99.2985 36.7161 99.297 36.7413C99.2934 36.7588 99.2465 36.8004 99.1564 36.8659C99.072 36.9217 98.9826 36.9746 98.8884 37.0247C98.8019 37.0727 98.747 37.0999 98.7238 37.1061C98.6811 37.101 98.6202 37.0593 98.5413 36.9811C98.4701 36.9008 98.4055 36.8145 98.3477 36.7224C98.2878 36.6224 98.2604 36.5511 98.2655 36.5083C98.2727 36.4733 98.3144 36.4124 98.3905 36.3258C98.4723 36.2293 98.5658 36.1297 98.6708 36.027C98.7737 35.9166 98.8625 35.8307 98.9371 35.7693C99.037 35.7094 99.1882 35.6399 99.3906 35.5608C99.5987 35.472 99.805 35.3918 100.01 35.3205C100.22 35.2393 100.372 35.1902 100.467 35.1731C100.833 35.1165 101.144 35.1326 101.399 35.2214C101.653 35.3025 101.852 35.4894 101.997 35.7819C102.049 35.8839 102.079 35.9959 102.087 36.118C102.095 36.2402 102.075 36.3695 102.029 36.5061C101.983 36.6428 101.901 36.8013 101.784 36.9818C101.624 37.1572 101.501 37.3019 101.416 37.4159C101.336 37.5201 101.219 37.6385 101.064 37.7711C101.02 37.8243 100.946 37.8895 100.843 37.967C100.739 38.0444 100.643 38.1159 100.552 38.1814C100.462 38.247 100.419 38.2875 100.424 38.3029C100.424 38.3029 100.46 38.3014 100.534 38.2982C100.613 38.2852 100.699 38.2789 100.79 38.2793C100.887 38.2699 100.96 38.2794 101.009 38.3077C101.253 38.3249 101.494 38.4052 101.732 38.5487C101.975 38.6824 102.149 38.793 102.255 38.8805C102.428 39.0911 102.51 39.3507 102.501 39.6594C102.499 39.9583 102.427 40.2632 102.287 40.5741C102.152 40.8752 101.971 41.1431 101.744 41.3779C101.561 41.5595 101.318 41.7198 101.016 41.8588C100.719 41.9879 100.449 42.0934 100.206 42.1751Z" fill="black"/>
<path d="M99.3916 44.688C99.3452 44.7005 99.2862 44.7121 99.2146 44.723C99.145 44.7417 99.0636 44.7469 98.9703 44.7388C98.8544 44.7698 98.7545 44.7676 98.6704 44.7322C98.5962 44.7024 98.5364 44.6646 98.491 44.6188C98.3749 44.5256 98.356 44.4396 98.4342 44.3607C98.5202 44.2797 98.702 44.1854 98.9796 44.0779C99.1027 44.0118 99.2897 43.9368 99.5405 43.853C99.797 43.7594 100.079 43.6674 100.386 43.5768C100.691 43.4786 100.977 43.3893 101.246 43.3091C101.522 43.2269 101.737 43.165 101.892 43.1236C102.093 43.0698 102.248 43.0448 102.356 43.0488C102.463 43.0451 102.57 43.0744 102.678 43.1366C102.825 43.2214 102.885 43.3378 102.859 43.4858C102.83 43.626 102.722 43.7044 102.536 43.7211C102.498 43.7315 102.425 43.755 102.319 43.7917C102.213 43.8284 102.096 43.8683 101.966 43.9112C101.845 43.952 101.739 43.9888 101.648 44.0213C101.602 44.0338 101.483 44.0697 101.292 44.1292C101.101 44.1887 100.879 44.2565 100.626 44.3325C100.373 44.4086 100.13 44.4777 99.8985 44.5398C99.6687 44.6096 99.4997 44.659 99.3916 44.688Z" fill="black"/>
<path d="M100.524 49.4443C100.489 49.4372 100.424 49.4092 100.328 49.3603C100.24 49.3094 100.149 49.2508 100.057 49.1844C99.9626 49.1103 99.8976 49.0532 99.8619 49.013C99.8284 48.9806 99.8098 48.9111 99.806 48.8044C99.81 48.6957 99.8275 48.6372 99.8584 48.6289C99.8857 48.6381 99.9094 48.6028 99.9294 48.5229C99.9494 48.443 99.9684 48.3592 99.9863 48.2716C100.002 48.1762 100.008 48.1208 100.004 48.1054C100.003 48.0724 100.016 48.044 100.043 48.0203C100.076 47.9868 100.104 47.9543 100.129 47.9228C100.151 47.8506 100.185 47.7754 100.23 47.697C100.281 47.6088 100.319 47.5363 100.346 47.4796C100.387 47.3858 100.468 47.2399 100.589 47.0418C100.709 46.8438 100.825 46.6429 100.936 46.4392C101.051 46.218 101.153 46.0252 101.241 45.8607C101.327 45.6885 101.367 45.5743 101.36 45.5181C101.36 45.5181 101.369 45.5034 101.386 45.474C101.409 45.4348 101.436 45.3985 101.468 45.3649C101.501 45.3314 101.541 45.2793 101.588 45.2086C101.643 45.1359 101.688 45.0702 101.722 45.0114C101.72 44.9454 101.737 44.8665 101.77 44.7748C101.809 44.6732 101.857 44.5734 101.913 44.4755C101.95 44.3662 101.981 44.2502 102.007 44.1275C102.03 43.9971 102.042 43.9028 102.043 43.8445C102.043 43.7533 102.022 43.7052 101.979 43.7001C101.934 43.6872 101.819 43.6766 101.635 43.668C101.433 43.6559 101.256 43.6909 101.104 43.773C100.952 43.8551 100.767 44.029 100.548 44.2947C100.446 44.3468 100.354 44.4047 100.272 44.4682C100.197 44.5296 100.128 44.5647 100.064 44.5735C100.029 44.5664 99.9847 44.5409 99.9315 44.4972C99.8784 44.4534 99.8224 44.4146 99.7636 44.3806L99.5142 43.9133L99.8207 43.62C100.084 43.3341 100.345 43.1027 100.604 42.9256C100.868 42.7388 101.118 42.6511 101.353 42.6627C101.438 42.6399 101.519 42.6308 101.594 42.6354C101.668 42.6322 101.705 42.6306 101.705 42.6306C101.765 42.6063 101.862 42.6134 101.996 42.6519C102.139 42.6883 102.282 42.7451 102.427 42.8222C102.58 42.8973 102.694 42.9827 102.769 43.0784C102.942 43.2308 103.049 43.4424 103.088 43.7134C103.128 43.9844 103.089 44.2888 102.973 44.6265C102.946 44.6832 102.887 44.8026 102.795 44.9846C102.703 45.1666 102.597 45.3731 102.477 45.6041C102.362 45.8253 102.254 46.0241 102.152 46.2005C102.058 46.3748 101.997 46.4864 101.968 46.5354C101.921 46.5731 101.848 46.6713 101.749 46.8302C101.659 46.9869 101.561 47.1623 101.455 47.3562C101.356 47.5403 101.271 47.7037 101.202 47.8465C101.138 47.9796 101.114 48.044 101.129 48.0399C101.13 48.0729 101.168 48.0625 101.245 48.0088C101.328 47.9453 101.4 47.8927 101.464 47.8509C101.569 47.7812 101.695 47.7102 101.841 47.6378C101.993 47.5557 102.147 47.4813 102.303 47.4147C102.46 47.348 102.594 47.2953 102.708 47.2565C102.83 47.2156 102.905 47.2037 102.935 47.2207C102.961 47.2552 102.976 47.2675 102.982 47.2577C102.993 47.2381 102.999 47.2283 102.999 47.2283C103 47.1701 103.092 47.1288 103.276 47.1043C103.468 47.0778 103.643 47.0681 103.803 47.0751C103.894 47.0755 103.968 47.0888 104.025 47.115C104.089 47.1392 104.125 47.1667 104.134 47.1976C104.134 47.1976 104.147 47.2148 104.172 47.2493C104.204 47.274 104.25 47.3072 104.311 47.3489C104.461 47.4162 104.49 47.5244 104.398 47.6734C104.313 47.8204 104.109 47.9083 103.785 47.937C103.584 47.9908 103.421 48.0469 103.296 48.1053C103.269 48.129 103.206 48.1544 103.105 48.1813C103.005 48.2082 102.909 48.238 102.819 48.2705C102.675 48.2923 102.538 48.3373 102.407 48.4055C102.275 48.466 102.12 48.553 101.943 48.6666C101.88 48.7084 101.781 48.7721 101.647 48.8579C101.512 48.9436 101.366 49.0324 101.209 49.1243C101.051 49.2162 100.906 49.2924 100.773 49.3528C100.648 49.4112 100.565 49.4417 100.524 49.4443Z" fill="black"/>
<path d="M108.095 74.9239C108.076 74.9456 108.019 74.965 107.924 74.9821C107.837 74.9972 107.738 74.9988 107.627 74.9871C107.526 74.981 107.443 74.9621 107.376 74.9302C107.337 74.9076 107.297 74.8811 107.255 74.8507C107.212 74.8127 107.176 74.7395 107.147 74.6313C107.126 74.5211 107.106 74.34 107.088 74.088C107.078 73.9252 107.073 73.7525 107.074 73.5701C107.074 73.3877 107.078 73.2295 107.083 73.0955C107.089 72.9615 107.091 72.8945 107.091 72.8945C107.126 72.8687 107.149 72.7383 107.161 72.5033C107.18 72.2662 107.194 71.9807 107.204 71.6468C107.206 71.5303 107.212 71.3342 107.221 71.0585C107.23 70.7828 107.241 70.5148 107.254 70.2545C107.263 70.0118 107.282 69.8204 107.311 69.6801C107.34 69.5399 107.354 69.4698 107.354 69.4698C107.354 69.4698 107.315 69.5093 107.237 69.5883C107.158 69.6672 107.058 69.7727 106.936 69.9048C106.814 70.0368 106.689 70.1864 106.56 70.3535C106.449 70.466 106.327 70.6146 106.195 70.7992C106.067 70.9741 105.946 71.1226 105.829 71.2449C105.664 71.4631 105.549 71.6057 105.484 71.6728C105.427 71.7378 105.359 71.7603 105.279 71.7403C105.156 71.6822 105.026 71.5844 104.89 71.447C104.759 71.2998 104.707 71.1813 104.732 71.0916C104.746 71.0798 104.787 71.0315 104.855 70.9469C104.931 70.8603 105.016 70.7589 105.109 70.6428C105.202 70.5268 105.286 70.4215 105.36 70.3272C105.442 70.2307 105.499 70.1657 105.531 70.1322C105.554 70.1259 105.59 70.0875 105.637 70.0169C105.684 69.9462 105.737 69.8784 105.794 69.8134C105.82 69.7567 105.927 69.6161 106.116 69.3917C106.304 69.1673 106.506 68.9184 106.723 68.645C106.961 68.3907 107.178 68.1794 107.373 68.0112C107.568 67.843 107.682 67.7586 107.715 67.758C107.738 67.7518 107.8 67.7644 107.899 67.7957C108.006 67.8249 108.112 67.8629 108.216 67.9097C108.319 67.9565 108.381 68.002 108.401 68.0463C108.462 68.088 108.472 68.2178 108.431 68.4358C108.419 68.5137 108.403 68.6546 108.383 68.8587C108.361 69.0551 108.34 69.2844 108.319 69.5468C108.304 69.7993 108.288 70.0518 108.273 70.3043C108.264 70.5471 108.258 70.7558 108.255 70.9305C108.257 71.1866 108.249 71.3876 108.23 71.5334C108.219 71.6772 108.207 71.8172 108.193 71.9532C108.186 72.0795 108.183 72.2542 108.185 72.4773C108.164 72.6155 108.148 72.7894 108.138 72.9991C108.134 73.1991 108.133 73.398 108.137 73.5959C108.138 73.786 108.142 73.9422 108.15 74.0643C108.134 74.2509 108.128 74.4305 108.133 74.6031C108.138 74.7757 108.125 74.8827 108.095 74.9239Z" fill="black"/>
<path d="M105.841 77.5862C105.794 77.5987 105.735 77.6103 105.664 77.6212C105.594 77.6399 105.513 77.6451 105.42 77.637C105.304 77.668 105.204 77.6658 105.12 77.6304C105.045 77.6006 104.986 77.5628 104.94 77.517C104.824 77.4238 104.805 77.3378 104.883 77.2589C104.969 77.1778 105.151 77.0836 105.429 76.9761C105.552 76.91 105.739 76.835 105.99 76.7512C106.246 76.6576 106.528 76.5656 106.835 76.475C107.14 76.3767 107.427 76.2875 107.695 76.2073C107.971 76.125 108.187 76.0632 108.341 76.0218C108.542 75.968 108.697 75.943 108.806 75.947C108.912 75.9433 109.019 75.9725 109.127 76.0348C109.274 76.1196 109.334 76.236 109.308 76.3839C109.279 76.5241 109.172 76.6026 108.986 76.6193C108.947 76.6297 108.875 76.6532 108.769 76.6899C108.662 76.7266 108.545 76.7665 108.415 76.8094C108.294 76.8502 108.188 76.887 108.097 76.9195C108.051 76.932 107.932 76.9679 107.741 77.0274C107.55 77.0869 107.328 77.1547 107.075 77.2307C106.822 77.3068 106.58 77.3759 106.348 77.438C106.118 77.5078 105.949 77.5572 105.841 77.5862Z" fill="black"/>
<path d="M106.974 82.3425C106.939 82.3354 106.874 82.3074 106.778 82.2585C106.69 82.2076 106.599 82.149 106.507 82.0826C106.413 82.0085 106.348 81.9514 106.312 81.9112C106.279 81.8788 106.26 81.8093 106.256 81.7026C106.26 81.5939 106.278 81.5353 106.309 81.5271C106.336 81.5363 106.36 81.501 106.38 81.4211C106.4 81.3412 106.419 81.2574 106.436 81.1698C106.452 81.0744 106.458 81.019 106.454 81.0036C106.454 80.9706 106.467 80.9422 106.493 80.9185C106.526 80.885 106.554 80.8525 106.579 80.821C106.601 80.7488 106.635 80.6736 106.68 80.5952C106.731 80.507 106.77 80.4345 106.796 80.3778C106.837 80.284 106.918 80.138 107.039 79.94C107.16 79.742 107.276 79.5411 107.387 79.3374C107.501 79.1162 107.603 78.9234 107.691 78.7589C107.778 78.5867 107.817 78.4725 107.811 78.4163C107.811 78.4163 107.819 78.4016 107.836 78.3722C107.859 78.333 107.886 78.2967 107.919 78.2631C107.951 78.2296 107.991 78.1775 108.038 78.1068C108.093 78.0341 108.138 77.9684 108.172 77.9096C108.171 77.8436 108.187 77.7647 108.22 77.673C108.259 77.5714 108.307 77.4716 108.364 77.3737C108.401 77.2644 108.432 77.1484 108.457 77.0257C108.48 76.8953 108.492 76.801 108.493 76.7427C108.493 76.6515 108.472 76.6034 108.429 76.5983C108.384 76.5854 108.27 76.5748 108.085 76.5662C107.883 76.5541 107.706 76.5891 107.554 76.6712C107.402 76.7533 107.217 76.9272 106.998 77.1929C106.896 77.245 106.804 77.3029 106.722 77.3663C106.647 77.4278 106.578 77.4629 106.514 77.4717C106.479 77.4645 106.435 77.4391 106.382 77.3954C106.329 77.3516 106.273 77.3128 106.214 77.2788L105.964 76.8115L106.271 76.5181C106.534 76.2323 106.795 76.0009 107.054 75.8238C107.319 75.637 107.568 75.5493 107.803 75.5609C107.888 75.5381 107.969 75.529 108.045 75.5336C108.118 75.5304 108.155 75.5288 108.155 75.5288C108.215 75.5045 108.312 75.5116 108.446 75.5501C108.589 75.5865 108.732 75.6433 108.877 75.7204C109.03 75.7954 109.144 75.8809 109.219 75.9766C109.393 76.1289 109.499 76.3406 109.538 76.6116C109.578 76.8826 109.539 77.187 109.423 77.5247C109.397 77.5814 109.337 77.7008 109.245 77.8828C109.153 78.0648 109.047 78.2713 108.927 78.5023C108.812 78.7235 108.704 78.9223 108.602 79.0987C108.508 79.273 108.447 79.3846 108.419 79.4336C108.371 79.4713 108.298 79.5695 108.199 79.7284C108.109 79.8851 108.011 80.0605 107.906 80.2544C107.806 80.4385 107.721 80.6019 107.652 80.7447C107.588 80.8778 107.564 80.9422 107.579 80.9381C107.58 80.9711 107.619 80.9607 107.695 80.907C107.778 80.8435 107.851 80.7909 107.914 80.7491C108.019 80.6794 108.145 80.6084 108.292 80.536C108.444 80.4539 108.598 80.3795 108.754 80.3129C108.91 80.2462 109.045 80.1935 109.159 80.1547C109.28 80.1138 109.356 80.1019 109.385 80.1189C109.411 80.1534 109.426 80.1657 109.432 80.1559C109.443 80.1363 109.449 80.1265 109.449 80.1265C109.45 80.0683 109.543 80.0269 109.726 80.0025C109.918 79.976 110.094 79.9663 110.253 79.9733C110.344 79.9737 110.418 79.987 110.475 80.0132C110.539 80.0373 110.576 80.0649 110.584 80.0958C110.584 80.0958 110.597 80.113 110.623 80.1475C110.654 80.1722 110.7 80.2054 110.761 80.2471C110.912 80.3144 110.941 80.4226 110.848 80.5716C110.763 80.7186 110.559 80.8064 110.235 80.8352C110.034 80.889 109.871 80.9451 109.746 81.0035C109.719 81.0272 109.656 81.0526 109.555 81.0795C109.455 81.1064 109.359 81.1361 109.269 81.1687C109.125 81.1905 108.988 81.2355 108.858 81.3037C108.725 81.3642 108.57 81.4512 108.393 81.5648C108.33 81.6066 108.231 81.6703 108.097 81.756C107.962 81.8418 107.816 81.9306 107.659 82.0225C107.501 82.1144 107.356 82.1906 107.223 82.251C107.098 82.3094 107.015 82.3399 106.974 82.3425Z" fill="black"/>
<path d="M112.215 38.3581C112.049 38.2949 111.957 38.2285 111.938 38.159C111.895 38.1209 111.854 38.107 111.815 38.1174C111.794 38.1313 111.76 38.0989 111.714 38.0201C111.676 37.9393 111.636 37.8507 111.594 37.7544C111.559 37.656 111.541 37.5903 111.541 37.5573C111.555 37.4872 111.601 37.4253 111.677 37.3716C111.762 37.3159 111.848 37.2805 111.935 37.2654C112.027 37.2406 112.086 37.258 112.11 37.3178C112.142 37.3755 112.214 37.4102 112.324 37.4219C112.443 37.4315 112.586 37.4097 112.754 37.3564C112.968 37.2907 113.156 37.2032 113.317 37.0937C113.486 36.9822 113.628 36.8488 113.744 36.6936C113.868 36.5362 113.97 36.3599 114.05 36.1645C114.075 36.0418 114.087 35.8854 114.085 35.6952C114.084 35.5051 114.073 35.3384 114.051 35.1951C114.029 35.0519 113.999 34.9855 113.96 34.9958C113.96 34.9958 113.945 34.9708 113.915 34.9209C113.893 34.8689 113.862 34.8151 113.822 34.7595C113.753 34.6539 113.633 34.5618 113.463 34.4832C113.29 34.3968 113.131 34.3442 112.985 34.3253C112.927 34.3243 112.815 34.3543 112.649 34.4153C112.483 34.4763 112.345 34.5301 112.233 34.5766C112.111 34.6175 112.038 34.6371 112.013 34.6356C111.993 34.6243 111.983 34.6187 111.983 34.6187C111.943 34.6213 111.866 34.6002 111.755 34.5555C111.651 34.5088 111.551 34.4571 111.453 34.4005C111.362 34.3419 111.312 34.2933 111.302 34.2546C111.303 34.1964 111.32 34.0923 111.355 33.9423C111.389 33.7923 111.436 33.6265 111.495 33.4451C111.562 33.2615 111.629 33.0819 111.698 32.906C111.767 32.7302 111.835 32.5835 111.903 32.466C112.067 32.1489 112.294 31.885 112.586 31.6744C112.875 31.4561 113.18 31.3122 113.501 31.2427C113.727 31.1904 113.902 31.1768 114.024 31.2019C114.153 31.2172 114.28 31.2743 114.406 31.3731C114.497 31.4647 114.55 31.5705 114.565 31.6906C114.581 31.8106 114.566 31.9098 114.521 31.9882C114.476 32.0666 114.4 32.095 114.295 32.0735C114.168 32.033 114.014 32.0453 113.833 32.1104C113.652 32.1756 113.465 32.267 113.273 32.3847C113.127 32.49 113.01 32.5793 112.922 32.6526C112.832 32.7181 112.779 32.7986 112.763 32.894C112.739 32.9254 112.722 32.9548 112.712 32.9821C112.711 33.0074 112.694 33.0203 112.661 33.0208C112.661 33.0208 112.653 33.0394 112.638 33.0765C112.621 33.1059 112.617 33.1361 112.625 33.167C112.599 33.2237 112.581 33.2657 112.572 33.293C112.569 33.3106 112.547 33.308 112.508 33.2854C112.508 33.2854 112.511 33.297 112.517 33.3202C112.524 33.3433 112.527 33.3714 112.527 33.4044C112.534 33.4606 112.56 33.4951 112.605 33.5079C112.655 33.5109 112.756 33.5005 112.907 33.4766C113.109 33.4558 113.26 33.4484 113.361 33.4544C113.467 33.4507 113.633 33.4809 113.857 33.545C114.107 33.6107 114.315 33.7537 114.482 33.9741C114.654 34.1846 114.787 34.4347 114.881 34.7242C114.981 35.0039 115.047 35.2803 115.079 35.5534C115.101 35.7296 115.113 35.8671 115.115 35.9661C115.116 36.065 115.085 36.2101 115.02 36.4014C114.909 36.6963 114.74 36.9776 114.513 37.2453C114.285 37.5053 114.03 37.7308 113.75 37.9218C113.47 38.1128 113.193 38.2533 112.919 38.3433C112.651 38.4235 112.416 38.4285 112.215 38.3581Z" fill="black"/>
<path d="M112.293 40.8182C112.247 40.8306 112.188 40.8422 112.116 40.8532C112.046 40.8718 111.965 40.877 111.872 40.8689C111.756 40.9 111.656 40.8978 111.572 40.8623C111.498 40.8325 111.438 40.7947 111.392 40.7489C111.276 40.6558 111.257 40.5697 111.336 40.4908C111.422 40.4098 111.603 40.3155 111.881 40.208C112.004 40.1419 112.191 40.0669 112.442 39.9832C112.698 39.8896 112.98 39.7975 113.287 39.707C113.592 39.6087 113.879 39.5194 114.147 39.4392C114.423 39.357 114.639 39.2951 114.793 39.2537C114.994 39.1999 115.149 39.175 115.258 39.179C115.364 39.1752 115.472 39.2045 115.579 39.2667C115.726 39.3516 115.787 39.4679 115.76 39.6159C115.731 39.7561 115.624 39.8345 115.438 39.8513C115.399 39.8616 115.327 39.8851 115.221 39.9219C115.115 39.9586 114.997 39.9984 114.868 40.0413C114.746 40.0822 114.64 40.1189 114.549 40.1515C114.503 40.1639 114.384 40.1998 114.193 40.2593C114.002 40.3188 113.78 40.3866 113.527 40.4627C113.274 40.5387 113.032 40.6078 112.8 40.6699C112.57 40.7398 112.401 40.7892 112.293 40.8182Z" fill="black"/>
<path d="M113.426 45.5745C113.39 45.5673 113.325 45.5393 113.229 45.4905C113.141 45.4395 113.051 45.3809 112.958 45.3145C112.864 45.2404 112.799 45.1833 112.763 45.1432C112.73 45.1107 112.711 45.0412 112.707 44.9345C112.711 44.8258 112.729 44.7673 112.76 44.759C112.787 44.7682 112.811 44.7329 112.831 44.653C112.851 44.5731 112.87 44.4894 112.888 44.4017C112.904 44.3064 112.909 44.251 112.905 44.2355C112.905 44.2025 112.918 44.1742 112.945 44.1504C112.977 44.1169 113.006 44.0844 113.03 44.0529C113.052 43.9808 113.086 43.9055 113.131 43.8271C113.182 43.7389 113.221 43.6665 113.247 43.6098C113.288 43.5159 113.369 43.37 113.49 43.172C113.611 42.9739 113.727 42.7731 113.838 42.5694C113.952 42.3482 114.054 42.1553 114.142 41.9908C114.229 41.8186 114.269 41.7044 114.262 41.6482C114.262 41.6482 114.27 41.6335 114.287 41.6041C114.31 41.565 114.337 41.5286 114.37 41.4951C114.402 41.4615 114.442 41.4094 114.489 41.3388C114.545 41.266 114.589 41.2003 114.623 41.1415C114.622 41.0755 114.638 40.9967 114.671 40.9049C114.71 40.8033 114.758 40.7036 114.815 40.6056C114.852 40.4963 114.883 40.3803 114.908 40.2576C114.931 40.1272 114.943 40.0329 114.944 39.9747C114.944 39.8835 114.923 39.8353 114.88 39.8302C114.836 39.8174 114.721 39.8067 114.536 39.7981C114.334 39.786 114.157 39.821 114.005 39.9031C113.853 39.9853 113.668 40.1591 113.449 40.4248C113.348 40.477 113.255 40.5348 113.173 40.5983C113.098 40.6597 113.029 40.6948 112.965 40.7037C112.93 40.6965 112.886 40.671 112.833 40.6273C112.78 40.5835 112.724 40.5447 112.665 40.5108L112.416 40.0434L112.722 39.7501C112.985 39.4643 113.246 39.2328 113.505 39.0558C113.77 38.8689 114.02 38.7813 114.255 38.7928C114.34 38.7701 114.42 38.7609 114.496 38.7655C114.569 38.7623 114.606 38.7607 114.606 38.7607C114.666 38.7364 114.763 38.7435 114.898 38.782C115.04 38.8184 115.184 38.8752 115.328 38.9523C115.481 39.0274 115.595 39.1128 115.67 39.2085C115.844 39.3609 115.95 39.5725 115.99 39.8436C116.029 40.1146 115.991 40.4189 115.874 40.7566C115.848 40.8133 115.789 40.9327 115.697 41.1147C115.605 41.2967 115.498 41.5032 115.378 41.7343C115.263 41.9555 115.155 42.1543 115.053 42.3306C114.959 42.5049 114.898 42.6165 114.87 42.6655C114.822 42.7032 114.749 42.8015 114.651 42.9603C114.56 43.1171 114.462 43.2924 114.357 43.4863C114.257 43.6704 114.172 43.8338 114.103 43.9767C114.039 44.1097 114.015 44.1741 114.031 44.17C114.031 44.203 114.07 44.1926 114.147 44.1389C114.229 44.0755 114.302 44.0228 114.365 43.981C114.471 43.9113 114.597 43.8403 114.743 43.768C114.895 43.6859 115.049 43.6115 115.205 43.5448C115.361 43.4781 115.496 43.4254 115.61 43.3866C115.731 43.3458 115.807 43.3338 115.836 43.3508C115.862 43.3853 115.878 43.3976 115.883 43.3878C115.895 43.3682 115.9 43.3584 115.9 43.3584C115.901 43.3002 115.994 43.2589 116.178 43.2344C116.369 43.2079 116.545 43.1982 116.704 43.2052C116.795 43.2056 116.869 43.2189 116.926 43.2451C116.99 43.2693 117.027 43.2968 117.035 43.3277C117.035 43.3277 117.048 43.345 117.074 43.3795C117.105 43.4042 117.151 43.4373 117.212 43.479C117.363 43.5463 117.392 43.6545 117.299 43.8036C117.214 43.9505 117.01 44.0384 116.686 44.0671C116.486 44.1209 116.323 44.1771 116.197 44.2354C116.171 44.2592 116.107 44.2845 116.007 44.3114C115.906 44.3383 115.811 44.3681 115.72 44.4007C115.577 44.4225 115.44 44.4675 115.309 44.5356C115.176 44.5961 115.021 44.6831 114.845 44.7967C114.781 44.8385 114.682 44.9023 114.548 44.988C114.414 45.0737 114.268 45.1625 114.11 45.2544C113.952 45.3463 113.807 45.4225 113.674 45.483C113.549 45.5413 113.466 45.5719 113.426 45.5745Z" fill="black"/>
<path d="M120.606 71.0832C120.575 71.0915 120.483 71.0581 120.33 70.983C120.185 70.9059 120.084 70.7591 120.026 70.5428C119.97 70.3012 119.941 70.0397 119.94 69.7583C119.945 69.4671 119.954 69.2079 119.968 68.9806C119.977 68.8291 119.984 68.7029 119.991 68.6018C120.004 68.4988 120.008 68.4356 120.002 68.4124C119.994 68.4145 119.954 68.4336 119.881 68.4698C119.815 68.5039 119.732 68.547 119.63 68.5992C119.272 68.7779 118.992 68.8942 118.791 68.948C118.598 68.9998 118.401 68.9284 118.2 68.7338C118.141 68.6999 118.056 68.6315 117.946 68.5285C117.835 68.4256 117.745 68.3049 117.675 68.1663C117.612 68.0257 117.618 67.8917 117.691 67.7644C117.717 67.5505 117.741 67.3948 117.765 67.2974C117.789 67.2 117.803 67.1299 117.808 67.0871C117.821 67.0422 117.822 67.0005 117.812 66.9618C117.815 66.9443 117.821 66.918 117.828 66.883C117.835 66.8479 117.846 66.8118 117.861 66.7747C117.9 66.6402 117.956 66.4636 118.03 66.245C118.111 66.0244 118.197 65.8027 118.286 65.58C118.381 65.3474 118.467 65.1422 118.544 64.9643C118.618 64.7787 118.676 64.6555 118.718 64.5946C118.758 64.559 118.83 64.5025 118.933 64.4251C119.045 64.3456 119.127 64.2986 119.181 64.2841C119.243 64.2676 119.313 64.2945 119.389 64.365C119.472 64.4257 119.544 64.4934 119.605 64.5681C119.667 64.6427 119.702 64.6955 119.71 64.7264C119.71 64.7264 119.708 64.7352 119.705 64.7527C119.701 64.7702 119.693 64.8014 119.68 64.8463C119.661 64.9009 119.632 64.9752 119.591 65.069C119.557 65.1608 119.503 65.283 119.428 65.4356C119.364 65.5686 119.291 65.7581 119.207 66.004C119.122 66.2422 119.041 66.4958 118.964 66.7649C118.893 67.0242 118.835 67.2551 118.789 67.4577C118.744 67.6603 118.73 67.7925 118.747 67.8543C118.757 67.8929 118.777 67.9207 118.806 67.9377C118.841 67.9449 118.897 67.9381 118.975 67.9174C119.071 67.875 119.156 67.8358 119.229 67.7996C119.31 67.7614 119.383 67.7252 119.448 67.6911C119.529 67.6529 119.598 67.6178 119.656 67.5858C119.712 67.546 119.765 67.5112 119.814 67.4812C119.87 67.4415 119.919 67.4077 119.961 67.3798C120.009 67.3421 120.048 67.3026 120.079 67.2614C120.151 67.1593 120.192 67.0363 120.203 66.8925C120.215 66.7487 120.24 66.5513 120.281 66.3003C120.301 66.1292 120.326 65.9735 120.354 65.8333C120.389 65.6833 120.418 65.547 120.444 65.4243C120.541 65.0171 120.634 64.7147 120.722 64.5173C120.808 64.3121 120.859 64.2074 120.874 64.2033C120.897 64.197 120.96 64.2135 121.061 64.2525C121.163 64.2915 121.262 64.3355 121.358 64.3843C121.434 64.4219 121.498 64.4586 121.549 64.4946C121.598 64.5229 121.624 64.5448 121.628 64.5602C121.653 64.653 121.656 64.7558 121.636 64.8687C121.623 64.9717 121.594 65.0955 121.549 65.2398C121.505 65.3841 121.459 65.5664 121.41 65.7865C121.354 66.0416 121.306 66.2947 121.266 66.5457C121.223 66.789 121.185 67.0312 121.15 67.2725C121.113 67.5059 121.083 67.7335 121.06 67.9551C121.036 68.1767 121.013 68.3857 120.992 68.5821C120.944 69.0836 120.918 69.4508 120.914 69.6837C120.91 69.9166 120.92 70.0756 120.942 70.1606C120.971 70.2358 121.004 70.2973 121.042 70.3452C121.068 70.4457 121.063 70.5506 121.026 70.6598C120.987 70.7614 120.929 70.8517 120.851 70.9306C120.772 71.0095 120.691 71.0604 120.606 71.0832Z" fill="black"/>
<path d="M118.742 73.7156C118.696 73.728 118.637 73.7397 118.565 73.7506C118.496 73.7693 118.414 73.7745 118.321 73.7664C118.205 73.7974 118.105 73.7952 118.021 73.7598C117.947 73.73 117.887 73.6922 117.842 73.6464C117.725 73.5532 117.707 73.4672 117.785 73.3882C117.871 73.3072 118.053 73.213 118.33 73.1055C118.453 73.0393 118.64 72.9644 118.891 72.8806C119.148 72.787 119.429 72.695 119.736 72.6044C120.041 72.5061 120.328 72.4169 120.596 72.3367C120.873 72.2544 121.088 72.1926 121.242 72.1512C121.443 72.0974 121.598 72.0724 121.707 72.0764C121.814 72.0727 121.921 72.1019 122.029 72.1642C122.176 72.249 122.236 72.3654 122.209 72.5133C122.18 72.6535 122.073 72.732 121.887 72.7487C121.848 72.7591 121.776 72.7826 121.67 72.8193C121.564 72.856 121.446 72.8959 121.317 72.9388C121.195 72.9796 121.089 73.0163 120.998 73.0489C120.952 73.0613 120.833 73.0973 120.642 73.1568C120.451 73.2163 120.229 73.2841 119.976 73.3601C119.723 73.4362 119.481 73.5053 119.249 73.5674C119.019 73.6372 118.85 73.6866 118.742 73.7156Z" fill="black"/>
<path d="M120.847 78.2984C120.654 78.3502 120.455 78.3661 120.251 78.3463C120.053 78.3166 119.886 78.2661 119.751 78.1946C119.616 78.1231 119.54 78.04 119.522 77.9452C119.497 77.8195 119.514 77.7115 119.572 77.6212C119.631 77.531 119.748 77.4747 119.925 77.4523C120.202 77.436 120.474 77.3839 120.74 77.296C121.004 77.2003 121.241 77.0789 121.45 76.9318C121.667 76.7826 121.829 76.6149 121.936 76.4288C122.091 76.172 122.154 75.973 122.124 75.8318C122.092 75.6829 121.945 75.5651 121.681 75.4783C121.562 75.4357 121.421 75.4031 121.258 75.3806C121.094 75.3582 120.935 75.3511 120.78 75.3596C120.631 75.3582 120.503 75.3759 120.397 75.4126C120.329 75.439 120.241 75.4501 120.132 75.4462C120.022 75.4344 119.909 75.415 119.794 75.3878C119.733 75.3461 119.667 75.2687 119.595 75.1554C119.523 75.0421 119.475 74.9721 119.452 74.9453C119.433 74.9087 119.448 74.8551 119.495 74.7845C119.543 74.7138 119.645 74.5995 119.801 74.4417C119.956 74.2761 120.185 74.049 120.488 73.7606C120.765 73.4959 120.976 73.2944 121.121 73.1561C121.272 73.0081 121.387 72.8946 121.465 72.8156C121.549 72.7269 121.617 72.6423 121.67 72.5618C121.734 72.4288 121.755 72.3363 121.733 72.2843C121.71 72.2322 121.594 72.2138 121.382 72.229C121.185 72.2653 121.03 72.3067 120.919 72.3533C120.805 72.392 120.752 72.4269 120.76 72.4578C120.76 72.4578 120.756 72.4588 120.749 72.4609C120.749 72.4609 120.737 72.464 120.714 72.4702C120.671 72.4651 120.587 72.4918 120.462 72.5501C120.337 72.6085 120.217 72.6697 120.101 72.7338C119.994 72.7957 119.939 72.8394 119.938 72.8646C119.934 72.8821 119.887 72.9237 119.797 72.9892C119.713 73.045 119.623 73.0979 119.529 73.148C119.442 73.196 119.388 73.2232 119.364 73.2294C119.322 73.2243 119.261 73.1826 119.182 73.1044C119.111 73.0241 119.046 72.9378 118.988 72.8456C118.928 72.7457 118.901 72.6744 118.906 72.6316C118.913 72.5966 118.955 72.5357 119.031 72.449C119.113 72.3526 119.206 72.253 119.311 72.1503C119.414 72.0399 119.503 71.954 119.578 71.8926C119.678 71.8327 119.829 71.7632 120.031 71.6841C120.239 71.5953 120.446 71.5151 120.65 71.4438C120.86 71.3626 121.013 71.3135 121.108 71.2964C121.473 71.2397 121.784 71.2559 122.04 71.3447C122.293 71.4258 122.493 71.6127 122.637 71.9052C122.689 72.0072 122.719 72.1192 122.727 72.2413C122.735 72.3635 122.716 72.4928 122.67 72.6294C122.624 72.7661 122.542 72.9246 122.425 73.1051C122.265 73.2805 122.142 73.4252 122.056 73.5392C121.977 73.6434 121.859 73.7618 121.704 73.8944C121.661 73.9476 121.587 74.0128 121.483 74.0903C121.38 74.1677 121.283 74.2392 121.193 74.3047C121.103 74.3703 121.06 74.4108 121.064 74.4262C121.064 74.4262 121.101 74.4246 121.175 74.4215C121.254 74.4085 121.339 74.4022 121.431 74.4026C121.527 74.3932 121.6 74.4027 121.649 74.4309C121.894 74.4482 122.135 74.5285 122.372 74.672C122.615 74.8057 122.79 74.9163 122.896 75.0038C123.068 75.2143 123.15 75.474 123.142 75.7827C123.139 76.0816 123.068 76.3865 122.927 76.6974C122.793 76.9985 122.612 77.2664 122.385 77.5012C122.202 77.6828 121.959 77.8431 121.657 77.982C121.36 78.1112 121.09 78.2167 120.847 78.2984Z" fill="black"/>
<path d="M105.645 40.5261C105.598 40.5362 105.539 40.5488 105.469 40.5639C105.397 40.5713 105.314 40.5685 105.222 40.5558C105.104 40.581 105.005 40.5777 104.925 40.546C104.851 40.5047 104.792 40.46 104.749 40.412C104.638 40.3132 104.622 40.2224 104.702 40.1397C104.789 40.0474 104.974 39.9545 105.256 39.8609C105.382 39.801 105.573 39.7355 105.828 39.6643C106.088 39.5836 106.371 39.5066 106.674 39.4331C106.976 39.3518 107.262 39.2778 107.534 39.2111C107.807 39.1444 108.021 39.0942 108.177 39.0605C108.381 39.0167 108.565 38.9976 108.729 39.003C108.902 39.0068 109.041 39.0424 109.145 39.1099C109.288 39.202 109.342 39.3213 109.308 39.4677C109.273 39.6063 109.161 39.6793 108.975 39.6867C108.936 39.6951 108.862 39.715 108.754 39.7464C108.647 39.7778 108.527 39.8117 108.396 39.8481C108.272 39.8829 108.165 39.9143 108.072 39.9423C108.025 39.9524 107.897 39.9841 107.688 40.0373C107.478 40.0906 107.234 40.1514 106.954 40.2198C106.682 40.2866 106.421 40.3508 106.173 40.4125C105.93 40.4646 105.754 40.5025 105.645 40.5261ZM107.611 42.0179C107.512 42.1291 107.417 42.1454 107.327 42.0667C107.242 41.9785 107.153 41.7931 107.06 41.5105C107 41.3842 106.93 41.1946 106.851 40.9416C106.778 40.679 106.701 40.3969 106.62 40.0953C106.547 39.7919 106.476 39.5042 106.41 39.2322C106.343 38.9601 106.293 38.7459 106.259 38.5895C106.215 38.3861 106.196 38.202 106.202 38.0372C106.205 37.8646 106.237 37.7268 106.297 37.6239C106.389 37.4814 106.508 37.4271 106.655 37.461C106.801 37.495 106.878 37.6053 106.885 37.7919C106.902 37.8293 106.922 37.9028 106.945 38.0123C106.976 38.1201 107.01 38.2396 107.047 38.3709C107.082 38.4943 107.113 38.6021 107.141 38.6943C107.151 38.7412 107.183 38.8694 107.236 39.0789C107.289 39.2884 107.35 39.5331 107.418 39.813C107.485 40.085 107.546 40.3462 107.599 40.5964C107.659 40.8372 107.701 41.0123 107.725 41.1218C107.735 41.1688 107.744 41.2283 107.751 41.3003C107.766 41.3707 107.767 41.4523 107.754 41.545C107.78 41.6624 107.772 41.7621 107.733 41.8443C107.699 41.9169 107.659 41.9748 107.611 42.0179Z" fill="black"/>
<path d="M115.152 75.0247C115.121 75.0314 115.077 75.0367 115.021 75.0407C114.972 75.043 114.929 75.0318 114.891 75.0073C114.859 75.014 114.802 75.0141 114.719 75.0074C114.636 75.0008 114.559 74.9886 114.49 74.9708C114.405 74.9563 114.286 74.9165 114.133 74.8512C113.978 74.7782 113.822 74.6973 113.663 74.6086C113.505 74.5199 113.368 74.4348 113.252 74.3533C113.145 74.2702 113.086 74.2051 113.075 74.1582C113.067 74.1191 113.043 74.1037 113.004 74.1122C113.004 74.1122 112.99 74.1029 112.961 74.0845C112.931 74.0583 112.913 74.0295 112.906 73.9983C112.889 73.92 112.842 73.8894 112.763 73.9062C112.763 73.9062 112.72 73.9727 112.635 74.1058C112.556 74.2371 112.456 74.3979 112.333 74.5879C112.161 74.8541 112.032 75.0497 111.944 75.175C111.863 75.2907 111.791 75.3553 111.728 75.3688C111.665 75.3822 111.577 75.3725 111.464 75.3397C111.357 75.2973 111.253 75.2337 111.153 75.1488C111.061 75.0623 110.999 74.9487 110.969 74.8079C110.969 74.8079 111.028 74.7011 111.146 74.4876C111.271 74.2723 111.423 74.0473 111.602 73.8125L112.069 73.0737L111.844 72.6557C111.762 72.5423 111.676 72.4259 111.584 72.3064C111.499 72.1774 111.431 72.0694 111.38 71.9822C111.257 71.8695 111.189 71.7983 111.174 71.7687C111.166 71.7296 111.183 71.6564 111.225 71.5491C111.274 71.473 111.362 71.3886 111.49 71.2957C111.623 71.1934 111.744 71.1634 111.851 71.2057C111.898 71.1956 111.975 71.2486 112.081 71.3648C112.187 71.4731 112.287 71.5987 112.384 71.7417C112.486 71.8751 112.544 71.9731 112.557 72.0357C112.584 72.1608 112.622 72.2223 112.671 72.22C112.727 72.216 112.836 72.1313 112.996 71.9657C113.072 71.8595 113.131 71.7731 113.174 71.7066C113.215 71.6323 113.236 71.5951 113.236 71.5951C113.254 71.5666 113.312 71.4928 113.409 71.3737C113.506 71.2546 113.606 71.1307 113.71 71.0021C113.813 70.8735 113.882 70.7972 113.918 70.7731C113.971 70.7127 114.049 70.6959 114.153 70.7226C114.255 70.7416 114.351 70.7864 114.44 70.8573C114.535 70.9187 114.591 70.9924 114.61 71.0784C114.63 71.1723 114.625 71.2838 114.596 71.4129C114.565 71.5341 114.48 71.6546 114.342 71.7743C114.223 71.9063 114.132 72.012 114.067 72.0914C114.01 72.1691 113.951 72.2555 113.889 72.3505C113.826 72.4377 113.725 72.5741 113.585 72.7598L113.333 73.0718L113.588 73.3481C113.632 73.3961 113.688 73.4494 113.758 73.5081C113.836 73.565 113.905 73.6032 113.967 73.6227C114.027 73.6752 114.127 73.7396 114.266 73.816C114.404 73.8846 114.536 73.9463 114.662 74.0009C114.788 74.0556 114.859 74.0812 114.875 74.0778C114.906 74.0711 114.944 74.0753 114.988 74.0903C115.032 74.1054 115.085 74.1226 115.146 74.1421C115.222 74.1912 115.272 74.287 115.294 74.4295C115.315 74.5641 115.311 74.696 115.281 74.8251C115.258 74.9447 115.215 75.0112 115.152 75.0247Z" fill="black"/>
</svg>
