<svg width="327" height="223" viewBox="0 0 327 223" fill="none" xmlns="http://www.w3.org/2000/svg">
<g filter="url(#filter0_d_429_11)">
<path d="M36.8672 123.263C65.9721 109.397 89.5003 86.47 113.159 64.8499C131.753 47.8575 151.253 31.0667 171.774 16.4029C175.823 13.5094 181.543 7.68642 187.017 10.1682C192.441 12.6274 195.568 19.3232 199.855 23.2882C210.412 33.0525 219.905 44.9847 228.585 56.4594C238.14 69.0909 223.811 76.082 214.953 84.3523C204.892 93.7464 195.283 103.434 184.292 111.724C173.846 119.603 165.452 130.463 155.888 139.383C141.313 152.977 127.681 167.45 113.148 181.058C104.497 189.159 94.5711 195.772 86.24 204.161C83.3209 207.1 80.6209 210.985 77.2543 213.433C74.5505 215.398 70.8083 207.839 69.8457 206.415C62.2057 195.115 50.3705 187.385 42.8893 175.566C38.1855 168.134 35.0205 158.963 29.3901 152.176C26.7024 148.937 19.9828 141.644 22.9269 136.912C25.9328 132.08 34.468 129.765 39.1236 126.304C42.7527 123.606 47.1643 120.276 51.2947 118.4C54.2965 117.037 57.2434 114.62 59.928 112.759C66.9932 107.862 59.5062 109.955 54.7278 111.775" stroke="black" stroke-linecap="round" stroke-linejoin="round"/>
<path d="M41.3125 145.449C59.0307 156.418 74.9243 172.291 88.7564 187.946C89.1068 188.342 92.4731 190.688 91.9599 191.557C90.969 193.233 79.4689 185.665 78.3703 184.907" stroke="black" stroke-linecap="round" stroke-linejoin="round"/>
<path d="M58.8779 129.591C73.2429 133.704 81.8039 141.531 93.4019 149.905C98.5682 153.635 103.83 157.002 108.467 161.388C110.645 163.448 112.196 166.16 114.208 168.381C116.965 171.426 105.705 164.847 104.378 164.09" stroke="black" stroke-linecap="round" stroke-linejoin="round"/>
<path d="M79.752 117.297C89.8044 126.369 99.9096 135.316 110.277 144.024C114.216 147.332 118.687 150.368 122.089 154.264C128.128 161.18 120.219 152.206 117.533 149.672" stroke="black" stroke-linecap="round" stroke-linejoin="round"/>
<path d="M93.8359 108.649C101.292 113.182 109.081 117.575 115.394 123.688C117.984 126.195 120.133 129.15 122.902 131.473C126.313 134.335 129.301 137.673 132.734 140.454C137.624 144.415 138.359 145.571 132.55 140.6" stroke="black" stroke-linecap="round" stroke-linejoin="round"/>
<path d="M111.996 95.3359C120.222 101.774 127.836 108.311 134.714 116.165C137.761 119.643 140.216 123.658 144.082 126.326C147.625 128.771 150.107 129.477 145.961 125.504" stroke="black" stroke-linecap="round" stroke-linejoin="round"/>
<path d="M129.474 81.7705C136.717 87.2129 143.858 92.1812 149.643 99.191C152.292 102.4 154.383 106.088 157.341 109.048C163.347 115.058 159.217 112.029 154.872 107.949" stroke="black" stroke-linecap="round" stroke-linejoin="round"/>
<path d="M145.597 67.6919C155.765 77.4196 164.282 88.8135 174.469 98.4219C181.328 104.892 171.5 94.5243 169.892 92.6825" stroke="black" stroke-linecap="round" stroke-linejoin="round"/>
<path d="M165.281 56.5018C173.841 53.007 182.719 48.8415 187.319 40.3017C188.588 37.9469 190.222 35.8969 190.743 33.2431C191.459 29.5985 191.319 31.1619 188.618 33.5204" stroke="black" stroke-linecap="round" stroke-linejoin="round"/>
<path d="M179.061 68.2551C185.847 61.9582 193.433 55.08 198.405 47.0869C200.885 43.1001 205.609 38.2337 199.005 44.0002" stroke="black" stroke-linecap="round" stroke-linejoin="round"/>
<path d="M200.817 81.4532C206.999 74.7345 212.501 68.4857 218.192 61.4602C220.031 59.1903 225.633 56.2448 218.893 58.046" stroke="black" stroke-linecap="round" stroke-linejoin="round"/>
<path d="M195.896 78.0592C202.367 72.5135 209.686 66.0567 214.815 59.054C216.183 57.1861 217.235 55.1052 218.488 53.1642C220.586 49.913 220.719 51.0108 217.536 51.3448" stroke="black" stroke-linecap="round" stroke-linejoin="round"/>
<path d="M58.7848 156.651C91.0264 143.554 98.9817 108.008 125.256 87.9062C128.452 85.4608 131.048 82.7426 134.776 81.0498C137.268 79.918 140.345 79.3762 142.614 77.9278C143.998 77.0443 155.489 68.2656 147.503 71.8924" stroke="black" stroke-linecap="round" stroke-linejoin="round"/>
<path d="M43.7727 147.146C47.3908 142.746 50.603 138.981 55.1933 135.799C55.9461 135.277 57.1076 135.189 57.7268 134.492C58.9533 133.111 60.8116 131.092 61.2843 129.311C63.146 122.297 72.2426 123.594 77.073 120.077C81.6681 116.731 86.0919 113.344 90.7764 110.039C95.9375 106.397 98.3253 103.203 102.47 98.5363C106.278 94.2497 109.974 89.9137 114.004 85.8556C117.302 82.5356 122.482 79.5162 124.581 75.2671C126.95 70.4717 133.003 64.9832 138.452 65.872C140.323 66.1773 154.074 74.1456 145.086 69.0506" stroke="black" stroke-linecap="round" stroke-linejoin="round"/>
<path d="M72.9499 164.291C97.178 151.511 110.624 123.648 126.989 102.6C133.016 94.8472 141.63 89.6955 147.939 82.0778C150.638 78.8195 156.597 75.3585 149.666 75.4145" stroke="black" stroke-linecap="round" stroke-linejoin="round"/>
<path d="M81.5995 172.182C103.553 158.685 117.61 133.575 133.582 113.675C140.849 104.622 147.862 95.3795 155.218 86.4002C158.572 82.3064 164.42 79.749 156.916 83.9407" stroke="black" stroke-linecap="round" stroke-linejoin="round"/>
<path d="M90.2465 186.269C103.946 172.909 115.006 158.493 126.215 143.04C133.03 133.644 138.922 123.083 146.925 114.622C151.517 109.768 155.053 104.084 159.221 98.9372C160.901 96.8641 162.06 94.4485 163.786 92.3927C167.674 87.7618 164.963 91.9513 162.256 94.4634" stroke="black" stroke-linecap="round" stroke-linejoin="round"/>
<path d="M93.4705 192.121C100.288 185.444 110.276 179.016 114.824 170.353C116.476 167.208 120.562 159.615 123.427 157.69C127.215 155.146 129.02 149.734 131.777 146.33C134.649 142.786 137.459 139.327 140.575 135.956C143.496 132.794 144.432 127.246 148.048 124.525C152.077 121.494 154.038 116.803 157.251 113.184C160.033 110.053 165.329 106.807 168.78 104.415C170.692 103.09 172.027 101.283 174.196 100.298C178.592 98.3018 175.739 99.3236 171.715 99.1732" stroke="black" stroke-linecap="round" stroke-linejoin="round"/>
<path d="M164.728 59.0044C170.367 60.4911 177.321 61.5121 182.46 64.5855C185.777 66.5689 188.665 68.5603 182.625 64.9485" stroke="black" stroke-linecap="round" stroke-linejoin="round"/>
<path d="M170.583 49.5908C178.628 51.6925 184.313 54.0485 190.873 58.3257C195.163 61.1222 194.475 60.3479 190.007 57.6562" stroke="black" stroke-linecap="round" stroke-linejoin="round"/>
<path d="M180.343 40.0918C187.251 43.9769 193.953 48.3921 201.096 51.7747C205.298 53.7642 203.093 53.625 199.85 52.0594" stroke="black" stroke-linecap="round" stroke-linejoin="round"/>
<path d="M185.905 32.501C193.169 35.8083 199.865 39.102 206.553 43.2624C209.603 45.1597 206.835 45.2824 204.522 43.7472" stroke="black" stroke-linecap="round" stroke-linejoin="round"/>
<path d="M168.292 55.6963C173.78 49.1717 179.285 42.9892 184.282 36.3013C185.701 34.4012 194.348 23.8222 190.611 29.2366" stroke="black" stroke-linecap="round" stroke-linejoin="round"/>
<path d="M174.057 67.1502C181.197 60.8375 191.488 52.4208 193.793 42.9895C194.471 40.2139 195.942 37.4398 198.098 35.5306C200.284 33.5942 202.57 32.7197 199.304 35.9834" stroke="black" stroke-linecap="round" stroke-linejoin="round"/>
<path d="M168.331 66.9381C175.945 58.7374 182.453 53.2256 186.755 43.1234C187.872 40.4997 189.153 38.3252 190.987 36.2606C192.93 34.0727 195.719 32.0238 191.967 35.9404" stroke="black" stroke-linecap="round" stroke-linejoin="round"/>
<path d="M196.618 70.9766C200.124 73.1994 203.64 75.2593 207.284 77.1091C208.788 77.8731 206.927 76.3946 206.287 76.1544" stroke="black" stroke-linecap="round" stroke-linejoin="round"/>
<path d="M203.453 59.9927C203.69 60.1941 217.474 72.0044 215.029 69.3703" stroke="black" stroke-linecap="round" stroke-linejoin="round"/>
<path d="M211.642 55.7119C214.682 58.6374 223.994 67.1932 220.716 64.5373" stroke="black" stroke-linecap="round" stroke-linejoin="round"/>
<path d="M192.546 75.6409C197.585 70.9486 208.636 61.6521 211.343 54.4395C212.41 51.5973 217.298 47.9449 212.701 51.8526" stroke="black" stroke-linecap="round" stroke-linejoin="round"/>
<path d="M193.183 77.0397C193.661 77.4228 203.299 87.8031 205.354 82.7698C206.403 80.2007 207.769 76.8544 210.343 75.4383C214.857 72.9539 215.69 65.1293 220.312 63.0304C225.555 60.6494 225.065 56.6564 220.183 55.2401C218.264 54.6836 219.778 50.9034 217.785 51.2004C215.962 51.4723 214.996 50.7991 212.957 51.1729" stroke="black" stroke-linecap="round" stroke-linejoin="round"/>
<path d="M164.09 57.6053C167.396 63.9216 168.021 66.2118 173.354 68.846C174.794 69.557 176.673 68.5709 177.765 69.1255C179.927 70.2229 184.199 70.2459 185.813 68.254C189.057 64.2487 190.251 61.6637 195.222 59.2274C198.358 57.6904 200.881 54.0639 202.332 51.0577C203.927 47.7538 206.799 45.2641 208.483 41.9475C209.2 40.5353 203.412 36.898 203.36 34.4548C203.345 33.7621 196.473 33.7413 195.33 33.1609C193.945 32.4576 193.309 31.4662 192.645 30.0024C191.674 27.8643 189.952 30.519 187.343 30.7217" stroke="black" stroke-linecap="round" stroke-linejoin="round"/>
<path d="M49.6309 137.731C57.4381 140.698 64.2465 144.524 71.2755 148.759C77.378 152.435 84.2743 154.394 90.3381 157.958C94.655 160.495 99.135 166.286 102.321 170.09C103.383 171.357 104.175 172.543 104.928 173.972C106.656 177.249 104.859 169.326 104.676 168.458" stroke="black" stroke-linecap="round" stroke-linejoin="round"/>
<path d="M125.023 78.1626C127.188 80.4357 135.955 92.9851 134.226 83.5524" stroke="black" stroke-linecap="round" stroke-linejoin="round"/>
</g>
<g filter="url(#filter1_d_429_11)">
<path d="M322 85.8661H322.5C322.5 85.8466 322.499 85.8272 322.497 85.8079L322 85.8661ZM298.944 100.755L298.858 101.247L298.944 100.755ZM217.267 41.0027C223.842 36.8603 234.636 33.051 245.638 35.0464C256.596 37.0338 267.871 44.801 275.422 64.026L276.353 63.6604C268.699 44.1749 257.177 36.1228 245.816 34.0624C234.499 32.0099 223.452 35.9241 216.733 40.1566L217.267 41.0027ZM276.26 64.1764C278.797 61.3375 282.691 59.7698 287.206 59.4145C291.719 59.0593 296.812 59.9203 301.677 61.8921C311.415 65.8392 320.129 74.1823 321.503 85.9242L322.497 85.8079C321.067 73.6001 312.021 65.0054 302.052 60.9653C297.064 58.9436 291.816 58.0486 287.128 58.4175C282.443 58.7862 278.274 60.4226 275.514 63.51L276.26 64.1764ZM321.5 85.8661C321.5 89.7724 318.474 93.8111 314.055 96.6802C309.654 99.5375 304.017 101.133 299.03 100.262L298.858 101.247C304.152 102.172 310.043 100.477 314.6 97.5189C319.138 94.5721 322.5 90.2689 322.5 85.8661H321.5ZM299.03 100.262C276.492 96.327 269.05 76.6961 276.32 64.0931L275.454 63.5934C267.769 76.9139 275.773 97.2166 298.858 101.247L299.03 100.262ZM275.834 64.3404C278.699 64.646 283.292 65.6122 287.717 67.513C292.151 69.4182 296.34 72.2295 298.505 76.1805L299.382 75.7C297.06 71.4622 292.629 68.5353 288.111 66.5942C283.583 64.6488 278.891 63.6608 275.94 63.3461L275.834 64.3404Z" fill="black"/>
</g>
<defs>
<filter id="filter0_d_429_11" x="17.6943" y="9.06689" width="218.551" height="213.19" filterUnits="userSpaceOnUse" color-interpolation-filters="sRGB">
<feFlood flood-opacity="0" result="BackgroundImageFix"/>
<feColorMatrix in="SourceAlpha" type="matrix" values="0 0 0 0 0 0 0 0 0 0 0 0 0 0 0 0 0 0 127 0" result="hardAlpha"/>
<feOffset dy="4"/>
<feGaussianBlur stdDeviation="2"/>
<feComposite in2="hardAlpha" operator="out"/>
<feColorMatrix type="matrix" values="0 0 0 0 0 0 0 0 0 0 0 0 0 0 0 0 0 0 0.25 0"/>
<feBlend mode="normal" in2="BackgroundImageFix" result="effect1_dropShadow_429_11"/>
<feBlend mode="normal" in="SourceGraphic" in2="effect1_dropShadow_429_11" result="shape"/>
</filter>
<filter id="filter1_d_429_11" x="212.733" y="33.5" width="113.767" height="76" filterUnits="userSpaceOnUse" color-interpolation-filters="sRGB">
<feFlood flood-opacity="0" result="BackgroundImageFix"/>
<feColorMatrix in="SourceAlpha" type="matrix" values="0 0 0 0 0 0 0 0 0 0 0 0 0 0 0 0 0 0 127 0" result="hardAlpha"/>
<feOffset dy="4"/>
<feGaussianBlur stdDeviation="2"/>
<feComposite in2="hardAlpha" operator="out"/>
<feColorMatrix type="matrix" values="0 0 0 0 0 0 0 0 0 0 0 0 0 0 0 0 0 0 0.25 0"/>
<feBlend mode="normal" in2="BackgroundImageFix" result="effect1_dropShadow_429_11"/>
<feBlend mode="normal" in="SourceGraphic" in2="effect1_dropShadow_429_11" result="shape"/>
</filter>
</defs>
</svg>
