<svg width="361" height="249" viewBox="0 0 361 249" fill="none" xmlns="http://www.w3.org/2000/svg">
<path d="M359 185.366H360.25C360.25 185.317 360.247 185.269 360.242 185.221L359 185.366ZM335.944 200.255L335.729 201.486L335.944 200.255ZM254.666 141.137C261.134 137.062 271.739 133.332 282.504 135.284C293.161 137.217 304.249 144.77 311.724 163.8L314.051 162.886C306.32 143.205 294.612 134.939 282.95 132.824C271.396 130.729 260.159 134.722 253.334 139.022L254.666 141.137ZM313.819 164.176C316.19 161.524 319.876 160.008 324.265 159.662C328.646 159.317 333.622 160.153 338.395 162.087C347.962 165.964 356.425 174.119 357.758 185.511L360.242 185.221C358.771 172.663 349.475 163.88 339.334 159.77C334.253 157.711 328.889 156.791 324.069 157.17C319.257 157.549 314.881 159.236 311.955 162.51L313.819 164.176ZM357.75 185.366C357.75 188.9 354.976 192.74 350.647 195.551C346.363 198.333 340.915 199.854 336.159 199.023L335.729 201.486C341.254 202.451 347.334 200.682 352.008 197.648C356.637 194.643 360.25 190.141 360.25 185.366H357.75ZM336.159 199.023C314.031 195.16 307.01 176.033 313.97 163.968L311.805 162.719C303.809 176.577 312.234 197.384 335.729 201.486L336.159 199.023ZM312.755 164.586C315.555 164.885 320.074 165.835 324.421 167.702C328.792 169.58 332.8 172.305 334.847 176.041L337.04 174.84C334.6 170.387 329.988 167.373 325.407 165.405C320.801 163.426 316.035 162.422 313.02 162.1L312.755 164.586Z" fill="black"/>
<path d="M4.5 60.5L173.5 2V127.5M4.5 60.5V189.5M4.5 60.5L2 188.5C2.5 188.833 3.6 189.5 4 189.5L4.5 192.5C4.9 192.9 90 229.333 132.5 247.5C133.5 247.5 295.5 176.5 296 176C296.4 175.6 296.5 173.833 296.5 173M173.5 127.5L296.5 173M173.5 127.5L4.5 189.5M296.5 173L133 245L4.5 189.5" stroke="black" stroke-width="2.5"/>
</svg>
