<svg width="61" height="47" viewBox="0 0 61 47" fill="none" xmlns="http://www.w3.org/2000/svg">
<path d="M5.35608 41.8447C6.21366 40.746 7.856 38.713 5.55408 38.3535C5.03338 38.2722 4.547 37.9638 4.03606 38.1972C2.46226 38.9161 1 40.4989 1 42.3807C1 45.3864 4.27077 46.0373 6.64677 45.9984C10.6555 45.9328 11.8751 41.9963 13.2909 38.8076C14.7211 35.5866 16.3097 32.4179 17.7936 29.2199C19.4727 25.6014 22.2265 22.7189 23.9684 19.1335C24.7154 17.5961 25.6907 16.2421 26.6525 14.8384C28.1443 12.6608 29.2081 10.464 30.2752 8.04959C31.1507 6.06868 32.1214 4.25975 33.1939 2.38482C33.6276 1.62661 33.4647 0.465092 34.2939 1.27568C34.9236 1.89113 35.9253 2.29542 36.7727 2.45181C40.4774 3.13554 43.8843 3.85924 47.6995 3.5535C51.5582 3.24429 55.4147 2.68707 59.2131 1.94563C60.5044 1.69357 59.954 1.99702 59.3451 2.78679C58.3123 4.12634 57.4305 5.54595 56.441 6.90324C55.1506 8.67326 54.6965 10.805 53.933 12.8286C53.0937 15.053 52.0948 17.1778 51.2929 19.4387C49.7432 23.8083 47.4826 27.7932 44.6855 31.4605C43.0644 33.5859 41.062 37.2979 38.0267 37.1476C33.3294 36.9151 36.5012 27.5957 38.7454 25.7734C39.9534 24.7924 41.2746 25.8485 41.4221 27.1654C41.6246 28.9748 41.0088 31.4544 39.266 32.3389C37.4273 33.2721 36.0177 33.1601 37.4327 30.7534C38.2888 29.2972 38.7979 30.8998 39.1487 30.1876" stroke="black" stroke-linecap="round" stroke-linejoin="round"/>
</svg>
