<svg width="119" height="132" viewBox="0 0 119 132" fill="none" xmlns="http://www.w3.org/2000/svg">
<path d="M51.5802 53.1017C44.7272 56.2369 37.4564 58.4338 30.0848 59.8113C28.6363 60.0819 27.7285 59.9335 27.4163 58.4507C27.1049 56.9718 26.7951 55.5005 26.4906 54.0541C26.1301 52.3422 32.2 49.8921 33.6268 49.5C35.9855 48.8517 38.3449 48.0637 40.6599 47.3286C43.0311 46.5756 45.3528 44.8798 47.9057 44.8418C49.6115 44.8163 51.3647 43.7402 53.0426 43.3869C54.3726 43.1069 55.3845 42.0802 55.8506 43.5982C56.062 44.2869 56.5625 44.9468 56.8023 46.0855C57.3642 48.7541 59.6557 50.9361 59.9896 53.7108C60.5443 58.3203 61.7662 62.7237 63.089 67.1498C63.9152 69.9142 66.7593 76.3669 64.1791 78.7349C60.0828 82.4941 55.518 86.6213 49.6122 86.3561C43.4734 86.0803 34.0219 84.0898 33.573 76.3787C33.4165 73.6887 35.1804 72.3236 37.379 71.2099C39.6717 70.0486 39.6048 71.1694 40.6912 72.9762C41.386 74.1318 40.9428 75.4188 41.636 76.4915C42.0236 77.0913 42.4599 77.9089 43.0807 78.3151C43.6545 78.6905 45.741 78.8304 46.3855 78.7204C47.4945 78.5313 48.6335 78.5831 49.7765 78.3424C50.741 78.1393 51.475 77.1449 52.485 76.9322C53.5599 76.7059 55.0097 76.1022 55.386 74.9776C55.7222 73.9728 57.0094 73.1005 57.4965 72.0975C58.1377 70.7772 57.4005 69.0581 56.7501 67.9339C55.6385 66.0122 53.9055 64.5442 52.894 62.5679C52.061 60.9401 52.033 59.2298 51.6588 57.4526C51.4519 56.4699 51.3678 55.5468 51.378 54.5721C51.3983 52.6415 50.8186 54.0409 49.7075 55.3437" stroke="#001D3D" stroke-width="3" stroke-linecap="round" stroke-linejoin="round"/>
<path d="M85.4328 34.2556C80.7532 36.3226 76.5156 37.7598 73.2984 41.8225C71.9261 43.5555 70.1796 45.5304 70.2673 47.8661C70.3585 50.2929 71.3652 52.2981 73.2708 53.8289C75.5598 55.6678 78.9919 57.5319 81.752 55.397C82.8857 54.5202 83.4894 53.2063 84.5715 52.274C85.3792 51.578 86.5923 50.926 87.5243 50.4157C90.2936 48.8992 92.5558 47.5898 95.7176 49.0372C102.713 52.2392 102.112 63.7598 96.0913 67.7323C93.1716 69.6587 88.8676 71.4872 85.3278 70.7105C84.1638 70.4551 80.1916 70.3981 79.8218 69.331" stroke="#001D3D" stroke-width="3" stroke-linecap="round" stroke-linejoin="round"/>
<path d="M85.6511 34.7823C84.8521 33.5104 84.2055 32.173 83.4841 30.8834C83.084 30.1682 82.2591 30.8841 81.5457 31.1093C78.9294 31.9352 76.9347 33.501 74.7067 34.9838C72.8601 36.2127 70.8264 37.4528 69.1534 38.8867C68.5655 39.3906 68.1349 40.1203 67.6623 40.7193C67.3687 41.0914 66.7022 41.6809 66.568 42.118C66.3823 42.723 66.3854 43.4511 66.1971 44.0932C65.5281 46.3742 64.6088 48.3006 65.1346 50.7982C65.4629 52.3573 66.7885 53.1841 67.4144 54.5799C67.9224 55.7126 68.1719 56.707 69.1887 57.4914C69.7385 57.9155 70.4607 58.0022 70.9772 58.512C71.4417 58.9704 71.7915 58.8955 72.2646 59.1334C73.2172 59.6126 74.256 59.6062 75.0476 60.3979C75.5286 60.879 76.5266 60.6712 77.0666 60.3747C77.4716 60.1524 77.9549 59.8344 78.3935 59.6981C78.7246 59.5953 79.0085 59.973 79.2632 60.1365C79.8816 60.5336 80.7078 60.3001 81.337 60.0363C82.4422 59.5731 83.4914 58.7315 84.5286 58.1307C85.0312 57.8396 85.8178 56.9875 86.3272 56.9483C87.2831 56.8747 88.113 55.8816 88.8174 55.3585C89.3197 54.9856 90.2374 54.4744 90.6033 54.0479C90.8728 53.7338 92.5796 54.0461 92.7021 54.4939C92.8933 55.1924 93.5598 55.7308 93.7281 56.5302C93.9272 57.4758 94.1973 58.5241 94.129 59.4925C94.0772 60.2279 93.5249 60.8935 93.3254 61.5963C93.1214 62.3145 93.0486 62.9205 92.4945 63.4581C91.6305 64.2966 90.5557 64.2484 89.4221 64.6237C86.9448 65.4439 84.4357 65.7803 81.9062 65.351C81.0414 65.2043 80.6721 64.8942 79.7751 65.2016C79.28 65.3713 78.4662 65.6138 77.961 65.5228C77.4 65.4219 78.8128 66.269 79.2582 66.6189C79.846 67.0806 80.2486 67.4484 80.3199 68.1944C80.4127 69.1653 79.7387 71.0105 80.6471 68.5554" stroke="#001D3D" stroke-width="3" stroke-linecap="round" stroke-linejoin="round"/>
<path d="M46.6443 14.6813C62.7127 17.5429 78.3393 19.0407 93.808 23.9084C95.3212 24.3846 98.8462 24.4594 99.8999 25.7861C100.083 26.0173 99.2148 25.6359 99.017 25.855C97.707 27.3056 99.7497 30.517 100.478 31.8681C103.518 37.5062 104.833 44.37 105.836 50.7363C107.324 60.1835 107.228 72.0751 112.069 80.6182C112.232 80.9052 109.839 80.7365 109.308 80.8483C105.833 81.5801 104.756 85.8139 103.211 88.7651C98.9093 96.9814 93.9741 104.715 90.418 113.25C90.1542 113.883 90.0685 117.372 89.549 117.647C88.2048 118.356 86.6967 117.161 85.3626 117.221C75.7043 117.656 65.6995 116.86 56.6161 113.188C47.5885 109.537 37.2923 110.146 28.4731 105.906C25.8231 104.632 19.1209 99.1657 20.7767 101.596C21.0753 102.034 21.9537 103.294 21.8444 102.775C21.1231 99.3493 21.5104 96.3517 20.0666 92.8492C17.8524 87.4777 16.7984 82.0858 15.0048 76.5913C11.7821 66.7191 10.0228 56.5874 5.67466 47.0104C4.82251 45.1334 6.03093 44.6682 7.5495 42.8504C11.9178 37.6216 15.1112 30.9699 20.5508 26.7691C27.1359 21.6838 34.7417 15.1512 42.8875 12.6825C44.1244 12.3077 47.1221 10.9262 48.1613 11.0454C50.1167 11.2697 47.7168 12.7409 47.5567 13.0845C47.0992 14.0665 55.7972 16.8414 48.9863 16.7243C47.1044 16.6919 46.365 17.0939 45.3662 15.6527C44.0676 13.779 44.4998 14.7528 45.3917 13.7355C45.6545 13.4357 46.983 13.6879 46.5853 13.6597C45.5168 13.584 44.3826 16.3702 43.9721 16.9997" stroke="#001D3D" stroke-width="3" stroke-linecap="round" stroke-linejoin="round"/>
</svg>
