<svg width="160" height="135" viewBox="0 0 160 135" fill="none" xmlns="http://www.w3.org/2000/svg">
<path d="M22.4244 74.9752C40.1274 66.5408 54.4384 52.5956 68.8285 39.4452C80.1385 29.1096 91.9994 18.8966 104.481 9.97739C106.944 8.21745 110.423 4.67562 113.753 6.18515C117.052 7.68099 118.954 11.7537 121.562 14.1654C127.983 20.1045 133.757 27.3623 139.037 34.3417C144.848 42.0248 136.133 46.2771 130.745 51.3075C124.625 57.0215 118.78 62.914 112.095 67.956C105.741 72.7486 100.636 79.3543 94.8189 84.7799C85.9537 93.0486 77.6618 101.852 68.8223 110.129C63.5602 115.056 57.5227 119.079 52.4553 124.181C50.6798 125.969 49.0375 128.332 46.9898 129.821C45.3452 131.016 43.069 126.418 42.4835 125.552C37.8365 118.679 30.6377 113.977 26.0873 106.788C23.2263 102.268 21.3011 96.6893 17.8765 92.5614C16.2417 90.5909 12.1545 86.1553 13.9452 83.2768C15.7736 80.3377 20.9651 78.9295 23.7969 76.8245C26.0043 75.1837 28.6876 73.1579 31.1999 72.0169C33.0258 71.1877 34.8182 69.7179 36.4511 68.586C40.7485 65.607 36.1946 66.8803 33.2881 67.9872" stroke="white" stroke-linecap="round" stroke-linejoin="round"/>
<path d="M25.1279 88.4692C35.905 95.141 45.5723 104.796 53.9856 114.318C54.1987 114.559 56.2463 115.986 55.9341 116.514C55.3314 117.534 48.3365 112.931 47.6683 112.47" stroke="white" stroke-linecap="round" stroke-linejoin="round"/>
<path d="M35.8125 78.8236C44.55 81.3256 49.7572 86.0862 56.8117 91.1797C59.954 93.4486 63.1547 95.4962 65.9752 98.1642C67.2996 99.4171 68.2429 101.067 69.4666 102.418C71.1439 104.27 64.2947 100.268 63.4879 99.8074" stroke="white" stroke-linecap="round" stroke-linejoin="round"/>
<path d="M48.5088 71.3461C54.6232 76.8643 60.7697 82.3063 67.0758 87.6027C69.4715 89.6148 72.1911 91.4615 74.2602 93.8313C77.9332 98.0381 73.1229 92.5793 71.4892 91.0383" stroke="white" stroke-linecap="round" stroke-linejoin="round"/>
<path d="M57.0752 66.0859C61.6105 68.8431 66.3479 71.5152 70.1881 75.2332C71.7634 76.7583 73.0702 78.556 74.7544 79.9688C76.8291 81.7093 78.6466 83.7398 80.7351 85.4316C83.7089 87.8406 84.1561 88.544 80.6232 85.5204" stroke="white" stroke-linecap="round" stroke-linejoin="round"/>
<path d="M68.1211 57.9883C73.1247 61.904 77.7555 65.8805 81.9394 70.6573C83.7925 72.7729 85.2858 75.215 87.6375 76.8381C89.792 78.325 91.3021 78.7546 88.78 76.3382" stroke="white" stroke-linecap="round" stroke-linejoin="round"/>
<path d="M78.752 49.7373C83.1576 53.0476 87.5011 56.0696 91.0202 60.3333C92.6311 62.2852 93.903 64.5285 95.7021 66.3288C99.3555 69.9846 96.843 68.1417 94.2003 65.6604" stroke="white" stroke-linecap="round" stroke-linejoin="round"/>
<path d="M88.5586 41.1738C94.7437 47.0907 99.9239 54.021 106.12 59.8653C110.292 63.8005 104.314 57.4946 103.336 56.3743" stroke="white" stroke-linecap="round" stroke-linejoin="round"/>
<path d="M100.532 34.3674C105.738 32.2418 111.139 29.7081 113.936 24.5138C114.708 23.0814 115.702 21.8346 116.019 20.2204C116.454 18.0036 116.369 18.9545 114.726 20.3891" stroke="white" stroke-linecap="round" stroke-linejoin="round"/>
<path d="M108.913 41.5165C113.041 37.6865 117.655 33.5028 120.679 28.641C122.188 26.216 125.061 23.2561 121.044 26.7635" stroke="white" stroke-linecap="round" stroke-linejoin="round"/>
<path d="M122.146 49.5443C125.907 45.4577 129.253 41.6568 132.715 37.3836C133.834 36.0029 137.241 34.2114 133.141 35.3069" stroke="white" stroke-linecap="round" stroke-linejoin="round"/>
<path d="M119.153 47.4799C123.09 44.1067 127.541 40.1794 130.66 35.92C131.493 34.7839 132.133 33.5182 132.895 32.3376C134.171 30.3601 134.252 31.0278 132.316 31.2309" stroke="white" stroke-linecap="round" stroke-linejoin="round"/>
<path d="M35.7554 95.2831C55.3664 87.3167 60.2051 65.6963 76.1863 53.4691C78.1304 51.9817 79.7096 50.3284 81.9767 49.2988C83.4926 48.6103 85.3646 48.2808 86.7444 47.3998C87.5862 46.8624 94.5757 41.5228 89.7183 43.7287" stroke="white" stroke-linecap="round" stroke-linejoin="round"/>
<path d="M26.6245 89.5016C28.8252 86.8256 30.7791 84.5352 33.571 82.5998C34.0289 82.2824 34.7355 82.2288 35.1121 81.8048C35.8581 80.9649 36.9884 79.7371 37.2759 78.6538C38.4083 74.3874 43.9413 75.1763 46.8793 73.0371C49.6743 71.002 52.3651 68.9419 55.2144 66.9312C58.3537 64.716 59.8061 62.7733 62.3273 59.9349C64.6432 57.3275 66.8914 54.6902 69.3429 52.2218C71.3484 50.2025 74.4996 48.3659 75.7761 45.7814C77.2168 42.8646 80.8988 39.5262 84.2128 40.0668C85.3512 40.2526 93.7152 45.0993 88.2483 42.0002" stroke="white" stroke-linecap="round" stroke-linejoin="round"/>
<path d="M44.3716 99.9305C59.1082 92.157 67.2869 75.2091 77.2405 62.4067C80.9067 57.6911 86.146 54.5576 89.9836 49.9242C91.625 47.9423 95.25 45.8372 91.0341 45.8712" stroke="white" stroke-linecap="round" stroke-linejoin="round"/>
<path d="M49.6327 104.73C62.9858 96.5206 71.5359 81.2472 81.2512 69.1435C85.6711 63.637 89.9371 58.015 94.4113 52.5534C96.4512 50.0633 100.008 48.5078 95.4438 51.0574" stroke="white" stroke-linecap="round" stroke-linejoin="round"/>
<path d="M54.8922 113.298C63.2248 105.172 69.9521 96.4036 76.7699 87.0044C80.9155 81.2892 84.4991 74.865 89.367 69.7189C92.16 66.7663 94.3104 63.3089 96.8461 60.1787C97.8676 58.9177 98.5725 57.4484 99.6223 56.1979C101.987 53.3812 100.338 55.9295 98.6917 57.4575" stroke="white" stroke-linecap="round" stroke-linejoin="round"/>
<path d="M56.853 116.858C60.9997 112.796 67.0751 108.887 69.8414 103.617C70.8458 101.704 73.3312 97.0859 75.074 95.9153C77.3779 94.3679 78.4759 91.076 80.153 89.0057C81.8994 86.8498 83.6091 84.746 85.5041 82.6954C87.2811 80.7724 87.85 77.3975 90.0499 75.7426C92.5004 73.8991 93.6928 71.0455 95.6477 68.8447C97.3396 66.9398 100.561 64.9659 102.66 63.5109C103.823 62.7047 104.635 61.6057 105.954 61.0066C108.628 59.7924 106.893 60.4139 104.445 60.3224" stroke="white" stroke-linecap="round" stroke-linejoin="round"/>
<path d="M100.195 35.8896C103.626 36.794 107.855 37.415 110.981 39.2844C112.998 40.4908 114.755 41.702 111.081 39.5051" stroke="white" stroke-linecap="round" stroke-linejoin="round"/>
<path d="M103.757 30.1641C108.65 31.4424 112.108 32.8755 116.098 35.477C118.707 37.178 118.289 36.707 115.571 35.0698" stroke="white" stroke-linecap="round" stroke-linejoin="round"/>
<path d="M109.693 24.3862C113.895 26.7493 117.972 29.4349 122.317 31.4923C124.872 32.7024 123.531 32.6178 121.558 31.6655" stroke="white" stroke-linecap="round" stroke-linejoin="round"/>
<path d="M113.076 19.769C117.494 21.7807 121.567 23.7841 125.635 26.3147C127.49 27.4687 125.807 27.5433 124.4 26.6095" stroke="white" stroke-linecap="round" stroke-linejoin="round"/>
<path d="M102.363 33.8776C105.701 29.909 109.05 26.1485 112.089 22.0806C112.952 20.9249 118.211 14.4902 115.939 17.7835" stroke="white" stroke-linecap="round" stroke-linejoin="round"/>
<path d="M105.87 40.8446C110.213 37.0049 116.472 31.8854 117.874 26.1489C118.287 24.4606 119.182 22.7733 120.493 21.612C121.823 20.4342 123.213 19.9023 121.227 21.8874" stroke="white" stroke-linecap="round" stroke-linejoin="round"/>
<path d="M102.387 40.7153C107.018 35.7272 110.977 32.3746 113.593 26.23C114.273 24.6341 115.052 23.3115 116.167 22.0557C117.349 20.7249 119.046 19.4787 116.763 21.861" stroke="white" stroke-linecap="round" stroke-linejoin="round"/>
<path d="M119.593 43.1719C121.725 44.5239 123.864 45.7768 126.08 46.902C126.995 47.3667 125.863 46.4674 125.474 46.3213" stroke="white" stroke-linecap="round" stroke-linejoin="round"/>
<path d="M123.75 36.4907C123.894 36.6132 132.278 43.7968 130.791 42.1946" stroke="white" stroke-linecap="round" stroke-linejoin="round"/>
<path d="M128.73 33.8872C130.58 35.6666 136.244 40.8707 134.25 39.2552" stroke="white" stroke-linecap="round" stroke-linejoin="round"/>
<path d="M117.115 46.0087C120.18 43.1546 126.902 37.5 128.549 33.113C129.198 31.3842 132.171 29.1627 129.375 31.5395" stroke="white" stroke-linecap="round" stroke-linejoin="round"/>
<path d="M117.503 46.8598C117.794 47.0929 123.656 53.4066 124.906 50.3451C125.544 48.7825 126.375 46.7471 127.94 45.8858C130.686 44.3747 131.193 39.6153 134.004 38.3387C137.193 36.8904 136.895 34.4617 133.925 33.6003C132.759 33.2618 133.679 30.9625 132.467 31.1431C131.358 31.3085 130.77 30.899 129.53 31.1264" stroke="white" stroke-linecap="round" stroke-linejoin="round"/>
<path d="M99.8075 35.0387C101.818 38.8807 102.198 40.2737 105.442 41.8759C106.318 42.3084 107.461 41.7086 108.125 42.0459C109.44 42.7134 112.039 42.7274 113.02 41.5158C114.994 39.0796 115.72 37.5073 118.744 36.0254C120.651 35.0905 122.185 32.8847 123.068 31.0562C124.038 29.0466 125.785 27.5323 126.809 25.515C127.245 24.656 123.725 22.4436 123.693 20.9575C123.684 20.5362 119.505 20.5235 118.809 20.1705C117.966 19.7427 117.58 19.1397 117.176 18.2493C116.585 16.9489 115.538 18.5636 113.951 18.6869" stroke="white" stroke-linecap="round" stroke-linejoin="round"/>
<path d="M30.1875 83.7749C34.9362 85.5798 39.0775 87.9071 43.3528 90.4827C47.0647 92.7189 51.2593 93.9103 54.9476 96.0778C57.5733 97.6208 60.2983 101.144 62.2362 103.457C62.8819 104.228 63.3642 104.95 63.8221 105.818C64.8727 107.812 63.7797 102.993 63.6684 102.464" stroke="white" stroke-linecap="round" stroke-linejoin="round"/>
<path d="M76.0449 47.5428C77.3618 48.9255 82.6941 56.5586 81.6422 50.8212" stroke="white" stroke-linecap="round" stroke-linejoin="round"/>
</svg>
