<svg width="360" height="249" viewBox="0 0 360 249" fill="none" xmlns="http://www.w3.org/2000/svg">
<path d="M359 185.366H359.75C359.75 185.337 359.748 185.308 359.745 185.279L359 185.366ZM335.944 200.255L335.815 200.994L335.944 200.255ZM254.4 140.714C260.939 136.594 271.67 132.811 282.593 134.792C293.451 136.762 304.664 144.457 312.189 163.617L313.585 163.069C305.906 143.518 294.322 135.395 282.861 133.316C271.465 131.25 260.354 135.19 253.6 139.445L254.4 140.714ZM313.446 163.843C315.928 161.066 319.752 159.516 324.226 159.164C328.695 158.812 333.749 159.664 338.583 161.624C348.264 165.548 356.894 173.828 358.255 185.453L359.745 185.279C358.302 172.955 349.172 164.297 339.146 160.234C334.127 158.199 328.841 157.296 324.108 157.668C319.381 158.04 315.143 159.694 312.328 162.843L313.446 163.843ZM358.25 185.366C358.25 189.148 355.308 193.121 350.919 195.971C346.557 198.803 340.983 200.373 336.073 199.516L335.815 200.994C341.186 201.931 347.14 200.212 351.736 197.229C356.305 194.262 359.75 189.893 359.75 185.366H358.25ZM336.073 199.516C313.672 195.605 306.37 176.142 313.537 163.718L312.238 162.968C304.449 176.468 312.593 196.939 335.815 200.994L336.073 199.516ZM312.808 164.089C315.651 164.392 320.219 165.353 324.618 167.243C329.031 169.139 333.16 171.921 335.286 175.801L336.601 175.08C334.24 170.77 329.749 167.815 325.21 165.864C320.656 163.908 315.939 162.915 312.967 162.597L312.808 164.089Z" fill="black"/>
<path d="M4.5 60.5L173.5 2V127.5M4.5 60.5V189.5M4.5 60.5L2 188.5C2.5 188.833 3.6 189.5 4 189.5L4.5 192.5C4.9 192.9 90 229.333 132.5 247.5C133.5 247.5 295.5 176.5 296 176C296.4 175.6 296.5 173.833 296.5 173M173.5 127.5L296.5 173M173.5 127.5L4.5 189.5M296.5 173L133 245L4.5 189.5" stroke="black" stroke-width="2.5"/>
<path d="M133 245C133 245.833 132.9 247.5 132.5 247.5" stroke="black"/>
<path d="M18 67L165.5 15V116.5L18 173V78.5" stroke="black" stroke-width="2"/>
<path d="M104.5 147.5C104.5 148.811 103.232 150 101.5 150C99.7681 150 98.5 148.811 98.5 147.5C98.5 146.189 99.7681 145 101.5 145C103.232 145 104.5 146.189 104.5 147.5Z" fill="#C4C4C4" stroke="black"/>
<path d="M177 140L50.5 189.5L119 218.5L244.5 166.5L177 140Z" stroke="black" stroke-width="1.5"/>
<path d="M161.844 205.891L210.016 187.298L228.395 193.574L179.516 214.179L161.844 205.891Z" stroke="black" stroke-width="1.5"/>
<line x1="68.0995" y1="187.271" x2="121.1" y2="210.271" stroke="black" stroke-width="0.5"/>
<line x1="80.0995" y1="182.271" x2="133.1" y2="205.271" stroke="black" stroke-width="0.5"/>
<line x1="92.0995" y1="177.271" x2="145.1" y2="200.271" stroke="black" stroke-width="0.5"/>
<line x1="104.1" y1="172.271" x2="157.1" y2="195.271" stroke="black" stroke-width="0.5"/>
<line x1="116.1" y1="167.271" x2="169.1" y2="190.271" stroke="black" stroke-width="0.5"/>
<line x1="128.1" y1="162.271" x2="181.1" y2="185.271" stroke="black" stroke-width="0.5"/>
<line x1="140.1" y1="157.271" x2="193.1" y2="180.271" stroke="black" stroke-width="0.5"/>
<line x1="152.1" y1="152.271" x2="205.1" y2="175.271" stroke="black" stroke-width="0.5"/>
<line x1="164.1" y1="147.271" x2="217.1" y2="170.271" stroke="black" stroke-width="0.5"/>
<line x1="75.9045" y1="191.269" x2="179.904" y2="148.269" stroke="black" stroke-width="0.5"/>
<line x1="84.9064" y1="194.268" x2="188.906" y2="152.268" stroke="black" stroke-width="0.5"/>
<line x1="93.9045" y1="198.269" x2="197.904" y2="155.269" stroke="black" stroke-width="0.5"/>
<line x1="102.905" y1="202.269" x2="207.905" y2="159.269" stroke="black" stroke-width="0.5"/>
<line x1="111.905" y1="206.269" x2="216.905" y2="163.269" stroke="black" stroke-width="0.5"/>
<line x1="120.904" y1="210.269" x2="226.904" y2="166.269" stroke="black" stroke-width="0.5"/>
</svg>
