<svg width="72" height="59" viewBox="0 0 72 59" fill="none" xmlns="http://www.w3.org/2000/svg">
<path d="M8.27246 39.9546C12.1373 30.8414 10.5544 22.9005 10.5544 13.4563C10.5544 11.6191 10.221 6.02266 12.1517 5.02104C15.1966 3.44141 18.0419 2.38736 21.6344 2.38736C24.0228 2.38736 26.4225 2.45616 28.8098 2.38736C31.1975 2.31854 33.5104 1.34727 35.8711 1.05809C40.2636 0.520053 44.8322 1.26929 49.1697 1.26929C52.6136 1.26929 56.1764 1.71651 59.4891 1.71651C60.0772 1.71651 62.4749 1.99694 62.8613 2.33766C64.0437 3.38047 63.705 5.05281 64.6361 5.96519" stroke="white" stroke-linecap="round" stroke-linejoin="round"/>
<path d="M64.409 6.77283C64.5593 9.46212 64.6157 13.2359 65.7221 15.8637C66.4391 17.5666 65.8674 19.8329 66.0125 21.6466C66.2911 25.1281 65.7726 28.5215 65.7726 31.8991C65.7726 36.4301 65.9999 40.903 65.9999 45.4092C65.9999 49.2769 62.2208 48.6293 59.2322 48.086C56.6504 47.6165 53.1858 48.5578 50.4949 48.591C45.3036 48.6551 40.0881 49.0456 34.8888 49.0456C30.5464 49.0456 27.3219 47.7845 23.3231 46.2678C21.1878 45.4578 19.8971 45.6365 17.6034 45.6365C15.4311 45.6365 13.6447 45.2969 11.4671 45.9774C10.193 46.3755 7.91144 46.0318 7.18677 44.7274C6.31782 43.1633 8.04536 42.485 8.04536 41.2046C8.04536 40.1297 7.91023 37.0555 8.27263 39.9546" stroke="white" stroke-linecap="round" stroke-linejoin="round"/>
<path d="M34.1815 12.6816C34.1815 12.6816 35.0906 13.1362 35.9997 14.0453C36.9088 14.7272 38.8224 14.3863 40.4315 14.3863C41.2782 14.3863 42.1723 13.7262 42.9315 13.3888C44.4695 12.7053 43.5522 13.9909 43.184 14.7272C42.7765 15.5422 43.2419 17.0574 43.9795 17.5681C45.1964 18.4106 46.4004 17.6834 47.5906 17.0883C48.0847 16.8412 47.949 16.7266 48.102 17.063C48.3093 17.5193 48.2724 18.1813 48.2724 18.6792C48.2724 19.8122 48.198 21.6946 47.5906 22.6817C46.7915 23.9802 45.9841 24.8206 44.6992 25.7752C43.4298 26.7181 41.7527 28.3635 40.0653 28.3635C36.7681 28.3635 33.2683 27.645 31.6184 24.4368C30.919 23.0769 29.636 21.9634 29.636 20.4089C29.636 19.112 29.2069 17.5578 29.636 16.318C30.1562 14.8152 31.4542 13.3888 30.9997 13.3888C31.2314 13.455 33.2724 12.2271 34.1815 12.6816Z" stroke="white" stroke-linecap="round" stroke-linejoin="round"/>
<path d="M37.9309 11.8868C39.2095 11.4135 42.1299 10.422 42.8173 8.87541C43.3485 7.68014 41.5926 7.45496 40.6582 7.45496C39.5249 7.45496 38.1819 9.02124 37.8804 10.0118C37.7128 10.5626 37.5534 11.1264 37.388 11.6848C37.3082 11.9539 37.4147 12.1491 37.4701 12.3981C37.5122 12.5878 39.2461 11.6775 39.1809 11.4167" stroke="white" stroke-linecap="round" stroke-linejoin="round"/>
<path d="M64.8682 37.3616L6.86825 38.6355C3.60667 38.7071 1 41.3717 1 44.634V52.136C1 55.4497 3.68629 58.136 7 58.136H65C68.3137 58.136 71 55.4497 71 52.136V43.3602C71 39.9949 68.2327 37.2877 64.8682 37.3616Z" fill="white" stroke="white"/>
<path d="M21.5996 38.2799C22.3544 39.4503 23.0061 40.8549 23.8722 41.9375C24.3078 42.4821 24.2379 42.3714 25.0824 42.0586C26.4922 41.5364 28.0895 41.9107 29.5603 41.9107C30.8515 41.9107 32.3528 41.2366 33.6079 41.5745C35.0617 41.9659 36.7757 41.2186 38.2068 41.1845C39.9311 41.1435 41.5748 41.3055 43.2898 41.3055C44.3237 41.3055 45.3315 40.7004 46.2885 40.7004C46.8436 40.7004 48.4262 41.1405 48.4669 40.1222C48.4867 39.6261 48.7089 39.1444 48.7089 38.643C48.7089 37.9649 48.3031 38.2585 47.6197 37.9169" stroke="white" stroke-linecap="round" stroke-linejoin="round"/>
</svg>
