<svg width="160" height="135" viewBox="0 0 160 135" fill="none" xmlns="http://www.w3.org/2000/svg">
<path d="M36.9284 4.51704C29.0118 21.4774 20.9149 38.8611 12.1896 55.3549C11.6791 56.3199 11.7257 56.3927 12.0595 55.3139C12.9011 52.5947 14.097 49.8824 15.7073 47.5459C17.8533 44.4321 18.755 40.3042 21.2021 37.496C22.7804 35.6849 23.3113 33.8889 23.904 31.5736C25.0763 26.9936 23.4483 21.444 27.4047 18.0833C29.9092 15.9559 31.5589 10.7131 32.3013 7.61967C32.8489 5.33822 34.7941 4.57446 36.6349 3.66428C37.989 2.99475 41.1544 3.35808 42.4468 4.01312C44.903 5.25803 47.6099 6.34122 49.9427 7.77713C53.6969 10.088 55.9582 14.099 57.9462 17.8816C60.7906 23.2939 60.2012 30.6917 54.1229 33.3211C50.5138 34.8824 44.8707 33.5486 40.9651 33.446C36.5016 33.3288 32.3516 31.5703 28.0083 30.8853C27.223 30.7615 26.5162 30.3759 25.7448 30.2789C25.1733 30.207 29.7331 29.3268 30.808 28.9655" stroke="#001D3D" stroke-width="3" stroke-linecap="round" stroke-linejoin="round"/>
<path d="M47.1989 42.1187C47.9415 48.895 47.1788 57.1014 54.8043 59.1854C56.9731 59.7781 59.5478 60.4499 61.7207 59.574C65.0899 58.216 67.6312 56.7991 68.7251 52.9752C69.4887 50.3056 69.8981 41.9773 69.1713 44.6572C68.0703 48.717 67.6722 53.2929 67.0114 57.4524C66.4162 61.1991 65.7314 64.7287 64.3208 68.2672C62.4997 72.8351 60.7343 78.6943 57.7132 82.6116C55.5636 85.3988 49.9242 89.2604 46.3263 88.9009C40.4159 88.3104 36.633 83.1009 38.7112 77.2953C39.6368 74.7093 47.6467 67.1289 48.9623 73.0323C49.4862 75.3832 48.1538 77.7376 47.6195 79.9444C47.3482 81.0647 48.2541 77.6939 48.2347 76.5413" stroke="#001D3D" stroke-width="3" stroke-linecap="round" stroke-linejoin="round"/>
<path d="M84.8691 38.6531C81.1923 48.0287 77.2403 58.2658 77.2713 68.501C77.2793 71.1356 77.7113 72.9724 79.7405 74.8465C80.5675 75.6103 82.4667 75.3768 83.5128 75.3845C86.1963 75.4042 85.2231 72.655 84.4594 71.3186" stroke="#001D3D" stroke-width="3" stroke-linecap="round" stroke-linejoin="round"/>
<path d="M72.6151 46.0302C79.5244 49.2565 86.6664 52.235 93.3807 55.8667C93.407 55.881 94.1721 56.2055 93.939 56.172C93.5878 56.1214 92.672 55.0095 92.4938 54.7397" stroke="#001D3D" stroke-width="3" stroke-linecap="round" stroke-linejoin="round"/>
<path d="M102.318 44.1147C99.7045 54.2288 97.1037 63.6218 93.1791 73.141C92.3816 75.0754 91.6389 77.313 90.287 78.9195C89.779 79.5232 88.8484 81.72 89.6519 79.7828C91.8008 74.6022 95.6343 71.7067 99.9828 68.3397C102.027 66.7569 107.563 63.051 108.632 68.2424C109.399 71.9694 106.82 78.1083 104.824 80.9918C103.304 83.1886 100.718 84.4386 98.968 86.4598C98.3411 87.1839 98.2482 88.2096 97.7804 89.0199C96.9508 90.4569 100.092 85.7493 100.185 85.6248" stroke="#001D3D" stroke-width="3" stroke-linecap="round" stroke-linejoin="round"/>
<path d="M123.309 70.0714C117.092 72.4193 112.19 77.6009 110.053 83.977C109.564 85.4349 108.928 86.9702 109.611 88.4709C111.537 92.7045 115.202 93.8725 119.166 92.0404C125.611 89.0623 130.864 81.8253 129.736 74.4142C129.174 70.7271 127.22 68.1506 123.662 70.2583C122.767 70.7882 119.361 73.6134 120.425 72.4037" stroke="#001D3D" stroke-width="3" stroke-linecap="round" stroke-linejoin="round"/>
<path d="M134.519 82.078C131.646 87.5511 129.055 93.0662 126.487 98.6236C126.151 99.3511 125.718 100.082 125.184 100.673C122.921 103.178 128.485 96.6656 129.174 95.5967C132.088 91.0734 135.645 86.6499 141.012 85.2118C150.001 82.8032 145.09 96.9701 142.151 100.697C140.531 102.751 139.327 105.174 138.021 107.435C137.769 107.872 137.145 108.583 137.126 109.105C137.078 110.413 138.295 106.552 138.442 106.175" stroke="#001D3D" stroke-width="3" stroke-linecap="round" stroke-linejoin="round"/>
</svg>
