<svg width="351" height="129" viewBox="0 0 351 129" fill="none" xmlns="http://www.w3.org/2000/svg">
<path d="M1 65C3.7968 81.8909 6.5 92 10 101C13.5 110 26 127.5 26 127.5C19.3036 93.4047 8.5 13.5 18.5 34.5C28.5 55.5 51.8467 98.5367 77 127.5C73.7688 79.6891 75.4861 53.4176 81.5 7L139.5 75C139.5 75 132.5 46 128.5 34.5C124.5 23 148.968 50.8882 157.5 65L177 88.5C192 107 192.871 107.365 193 98.5L200 58.5L215 71C221.522 75.0487 224.748 74.8537 228.5 62.5C255.486 27.1166 291.5 7 308.5 7C325.5 7 325 10.5 325 10.5C331.173 11.9881 331.769 14.8066 339.5 10.5L350 1" stroke="black"/>
</svg>
